SplineFontDB: 3.2
FontName: Caladea-Regular
FullName: Caladea Regular
FamilyName: Caladea
Weight: Regular
Copyright: Copyright 2012 The Caladea Project Authors \\(https://github.com/huertatipografica/Caladea\\)
Version: 001.001
ItalicAngle: 0
UnderlinePosition: -204.8
UnderlineWidth: 102.4
Ascent: 1638
Descent: 410
InvalidEm: 0
sfntRevision: 0x00010041
LayerCount: 2
Layer: 0 0 "Back" 1
Layer: 1 0 "Fore" 0
XUID: [1021 282 2012869056 7816978]
StyleMap: 0x0040
FSType: 0
OS2Version: 4
OS2_WeightWidthSlopeOnly: 0
OS2_UseTypoMetrics: 1
CreationTime: 1576713534
ModificationTime: 1719082959
PfmFamily: 17
TTFWeight: 400
TTFWidth: 5
LineGap: 0
VLineGap: 0
Panose: 2 4 5 3 5 4 6 3 2 4
OS2TypoAscent: 1843
OS2TypoAOffset: 0
OS2TypoDescent: -512
OS2TypoDOffset: 0
OS2TypoLinegap: 0
OS2WinAscent: 2150
OS2WinAOffset: 0
OS2WinDescent: 512
OS2WinDOffset: 0
HheadAscent: 1843
HheadAOffset: 0
HheadDescent: -512
HheadDOffset: 0
OS2SubXSize: 1331
OS2SubYSize: 1229
OS2SubXOff: 0
OS2SubYOff: 205
OS2SupXSize: 1331
OS2SupYSize: 1229
OS2SupXOff: 0
OS2SupYOff: 717
OS2StrikeYSize: 102
OS2StrikeYPos: 573
OS2CapHeight: 1366
OS2XHeight: 956
OS2Vendor: 'HT  '
OS2CodePages: 20000093.00000000
OS2UnicodeRanges: 00000007.00000000.00000000.00000000
Lookup: 1 0 0 "'aalt' Access All Alternates in Latin lookup 0" { "'aalt' Access All Alternates in Latin lookup 0 subtable"  } ['aalt' ('DFLT' <'dflt' > 'latn' <'AZE ' 'CAT ' 'CRT ' 'KAZ ' 'MOL ' 'ROM ' 'TAT ' 'TRK ' 'dflt' > ) ]
Lookup: 6 0 0 "'ccmp' Glyph Composition/Decomposition in Latin lookup 1" { "'ccmp' Glyph Composition/Decomposition in Latin lookup 1 contextual 0"  "'ccmp' Glyph Composition/Decomposition in Latin lookup 1 contextual 1"  "'ccmp' Glyph Composition/Decomposition in Latin lookup 1 contextual 2"  "'ccmp' Glyph Composition/Decomposition in Latin lookup 1 contextual 3"  } ['ccmp' ('DFLT' <'dflt' > 'latn' <'AZE ' 'CAT ' 'CRT ' 'KAZ ' 'MOL ' 'ROM ' 'TAT ' 'TRK ' 'dflt' > ) ]

StartChar: .notdef
Encoding: 65536 -1 0
Width: 1263
GlyphClass: 1
Flags: HMW
HStem: 123 74<246 1018 246 1120> 936 41G<391 391 844 844> 1169 74<246 246 246 1018>
VStem: 143 102<197 1169 197 1243 197 1243> 1018 102<197 1169 1169 1169>
LayerCount: 2
Fore
SplineSet
1120 1243 m 1
 1120 123 l 1
 143 123 l 1
 143 1243 l 1
 1120 1243 l 1
246 1169 m 1
 246 197 l 1
 1018 197 l 1
 1018 1169 l 1
 246 1169 l 1
389 389 m 1
 575 690 l 1
 391 977 l 1
 504 975 l 1
 637 768 l 1
 766 975 l 1
 844 977 l 1
 676 707 l 1
 879 389 l 1
 766 391 l 1
 614 629 l 1
 467 389 l 1
 389 389 l 1
EndSplineSet
EndChar

StartChar: A
Encoding: 65 65 5
Width: 1226
GlyphClass: 2
Flags: HMW
HStem: 0 76<2 12 12 12 12 477> 440 106<414 760 414 795 381 760> 1325 41G<541 664 664 664>
VStem: 2 1219<0 76>
AnchorPoint: "Anchor-3" 600 1366 basechar 0
AnchorPoint: "Anchor-2" 1212 0 basechar 0
LayerCount: 2
Fore
SplineSet
2 0 m 1
 12 76 l 1
 65 84 111 94 158 129 c 1
 541 1366 l 1
 664 1366 l 1
 1085 127 l 1
 1128 96 1174 84 1221 76 c 1
 1212 0 l 1
 700 0 l 1
 711 76 l 1
 779 84 840 96 899 131 c 1
 795 440 l 1
 381 440 l 1
 287 131 l 1
 346 96 417 84 485 76 c 1
 477 0 l 1
 2 0 l 1
414 547 m 1
 760 547 l 1
 580 1081 l 1
 414 547 l 1
EndSplineSet
Substitution2: "Single Substitution lookup 12 subtable" ordfeminine
Substitution2: "'aalt' Access All Alternates in Latin lookup 0 subtable" ordfeminine
EndChar

StartChar: B
Encoding: 66 66 6
Width: 1185
GlyphClass: 1
Flags: HMW
HStem: 0 76<63 74 74 74 74 657> 0 100<610 657> 670 100<442 604 442 606> 1272 94<572 602 602 701> 1292 74<61 602>
VStem: 262 180<131 670 109 770 770 1237 1237 1237> 893 178<948 1108> 942 186<292 469 268 473>
LayerCount: 2
Fore
SplineSet
63 0 m 1x75
 74 76 l 1
 158 86 213 102 262 131 c 1
 262 1237 l 1
 215 1264 149 1282 61 1292 c 1xad
 72 1366 l 1
 602 1366 l 2
 919 1366 1071 1243 1071 1026 c 0x76
 1071 870 989 770 831 725 c 1
 1015 672 1128 553 1128 385 c 0
 1128 152 958 0 657 0 c 2
 63 0 l 1x75
442 770 m 1
 606 770 l 2
 803 770 893 850 893 1022 c 0
 893 1194 803 1272 600 1272 c 0
 545 1272 487 1268 442 1264 c 1x76
 442 770 l 1
657 100 m 0x75
 847 100 942 201 942 383 c 0
 942 563 833 670 604 670 c 2
 442 670 l 1
 442 109 l 1
 485 105 563 100 657 100 c 0x75
EndSplineSet
EndChar

StartChar: C
Encoding: 67 67 7
Width: 1062
GlyphClass: 2
Flags: HMW
HStem: -14 123<472 659 472 691> 1274 111<473 647>
VStem: 53 205<486 886 486 922> 793 199<1118 1177>
AnchorPoint: "Anchor-4" 590 0 basechar 0
AnchorPoint: "Anchor-3" 559 1366 basechar 0
LayerCount: 2
Fore
SplineSet
578 -14 m 0
 222 -14 53 207 53 684 c 0
 53 1159 224 1384 584 1384 c 0
 820 1384 991 1270 991 1114 c 0
 991 1024 938 952 872 952 c 0
 819 952 770 985 754 1032 c 1
 781 1069 793 1102 793 1135 c 0
 793 1219 711 1274 584 1274 c 0
 363 1274 258 1087 258 684 c 0
 258 289 361 109 584 109 c 0
 736 109 881 194 944 276 c 1
 1016 199 l 1
 959 129 805 -14 578 -14 c 0
EndSplineSet
EndChar

StartChar: D
Encoding: 68 68 8
Width: 1280
GlyphClass: 2
Flags: HMW
HStem: 0 76<63 74 74 74 74 500> 0 100<63 690> 1264 102<442 512 512 541 442 442> 1292 74<61 512>
VStem: 260 182<129 1237 1237 1237> 1022 205<462 903>
AnchorPoint: "Anchor-3" 643 1366 basechar 0
LayerCount: 2
Fore
SplineSet
63 0 m 1x6c
 74 76 l 1
 140 84 203 94 260 129 c 1
 260 1237 l 1
 201 1270 127 1284 61 1292 c 1x9c
 72 1366 l 1
 512 1366 l 2
 981 1366 1227 1165 1227 682 c 0
 1227 197 983 0 500 0 c 2
 63 0 l 1x6c
535 100 m 0x6c
 846 100 1022 240 1022 684 c 0
 1022 1122 850 1264 541 1264 c 2
 442 1264 l 1
 442 109 l 1
 469 103 506 100 535 100 c 0x6c
EndSplineSet
EndChar

StartChar: E
Encoding: 69 69 9
Width: 1105
GlyphClass: 2
Flags: HMW
HStem: 0 76<61 74 74 74 74 1030> 0 119<442 879 442 1030> 645 105 1044 322<939 954> 1257 109<442 827 442 442> 1292 74<61 985>
VStem: 262 180<131 651 745 1237 1237 1237> 788 66<487 893 487 893> 967 73
AnchorPoint: "Anchor-3" 555 1366 basechar 0
AnchorPoint: "Anchor-2" 991 0 basechar 0
LayerCount: 2
Fore
SplineSet
61 0 m 1x6b80
 74 76 l 1
 142 84 229 106 262 131 c 1
 262 1237 l 1
 203 1268 129 1284 61 1292 c 1xa780
 72 1366 l 1
 985 1366 l 1x6b80
 1001 1055 l 1
 985 1049 964 1044 944 1044 c 0
 934 1044 923 1047 913 1049 c 1x7380
 901 1112 878 1194 827 1257 c 1
 442 1257 l 1
 442 745 l 1
 674 756 l 2
 737 758 768 821 788 893 c 1
 854 893 l 1
 854 487 l 1
 788 487 l 1
 757 600 738 635 668 639 c 2
 442 651 l 1
 442 119 l 1
 879 119 l 1
 932 193 955 282 967 350 c 1
 979 352 994 354 1006 354 c 0
 1020 354 1033 352 1049 350 c 1
 1030 0 l 1
 61 0 l 1x6b80
EndSplineSet
EndChar

StartChar: F
Encoding: 70 70 10
Width: 1042
GlyphClass: 1
Flags: HMW
HStem: 0 76<61 74 74 74 74 633> 629 105 1044 322<941 956> 1257 109<442 817 442 442> 1292 74<61 985>
VStem: 262 180<131 635 729 1237 1237 1237> 788 66<473 879 473 879>
LayerCount: 2
Fore
SplineSet
61 0 m 1xd6
 74 76 l 1
 142 84 229 106 262 131 c 1
 262 1237 l 1
 203 1268 131 1284 61 1292 c 1xce
 72 1366 l 1
 985 1366 l 1xd6
 1001 1055 l 1
 985 1049 966 1044 946 1044 c 0
 936 1044 923 1045 913 1049 c 1xe6
 901 1112 872 1194 817 1257 c 1
 442 1257 l 1
 442 729 l 1
 674 739 l 2
 744 741 776 830 788 879 c 1
 854 879 l 1
 854 473 l 1
 788 473 l 1
 765 569 733 619 672 623 c 2
 442 635 l 1
 442 131 l 1
 495 98 573 84 641 76 c 1
 633 0 l 1
 61 0 l 1xd6
EndSplineSet
EndChar

StartChar: G
Encoding: 71 71 11
Width: 1103
GlyphClass: 2
Flags: HMW
HStem: -14 109<459 673 459 683> 571 85 1274 111<462 677>
VStem: 53 207<528 841 528 898> 844 201<1119 1182> 862 182<170 528 528 528>
AnchorPoint: "Anchor-5" 590 0 basechar 0
AnchorPoint: "Anchor-3" 590 1366 basechar 0
LayerCount: 2
Fore
SplineSet
610 -14 m 0xf4
 188 -14 53 258 53 684 c 0
 53 1112 194 1384 612 1384 c 0
 800 1384 1044 1307 1044 1114 c 0
 1044 1016 987 952 924 952 c 0
 869 952 821 987 805 1032 c 1
 832 1071 844 1104 844 1135 c 0xf8
 844 1229 739 1274 614 1274 c 0
 309 1274 260 997 260 684 c 0
 260 373 307 94 610 94 c 0
 735 94 833 145 862 170 c 1
 862 528 l 1
 801 553 737 565 653 571 c 1
 662 647 l 1
 1044 666 l 1
 1044 86 l 1
 929 23 755 -14 610 -14 c 0xf4
EndSplineSet
EndChar

StartChar: H
Encoding: 72 72 12
Width: 1425
GlyphClass: 2
Flags: HMW
HStem: 0 76<61 74 74 74 74 623> 649 104<432 995 432 995> 1292 74<61 633 621 621 1354 1354>
VStem: 252 180<131 649 754 1237> 995 180<131 649 649 649 754 1237 131 1237>
AnchorPoint: "Anchor-3" 713 1366 basechar 0
LayerCount: 2
Fore
SplineSet
61 0 m 1
 74 76 l 1
 140 84 193 96 252 131 c 1
 252 1237 l 1
 193 1268 131 1284 61 1292 c 1
 72 1366 l 1
 633 1366 l 1
 621 1292 l 1
 553 1284 491 1270 432 1237 c 1
 432 754 l 1
 995 754 l 1
 995 1237 l 1
 936 1268 865 1284 795 1292 c 1
 805 1366 l 1
 1364 1366 l 1
 1354 1292 l 1
 1288 1284 1235 1270 1176 1237 c 1
 1176 131 l 1
 1235 96 1296 84 1364 76 c 1
 1356 0 l 1
 795 0 l 1
 807 76 l 1
 875 84 936 96 995 131 c 1
 995 649 l 1
 432 649 l 1
 432 131 l 1
 491 98 563 84 633 76 c 1
 623 0 l 1
 61 0 l 1
EndSplineSet
EndChar

StartChar: I
Encoding: 73 73 13
Width: 702
GlyphClass: 2
Flags: HMW
HStem: 0 76<61 74 74 74 74 631> 1292 74<61 639 629 629>
VStem: 262 180<131 1237 131 1237>
AnchorPoint: "Anchor-3" 352 1366 basechar 0
AnchorPoint: "Anchor-2" 395 0 basechar 0
LayerCount: 2
Fore
SplineSet
61 0 m 1
 74 76 l 1
 140 84 203 96 262 131 c 1
 262 1237 l 1
 203 1268 131 1284 61 1292 c 1
 72 1366 l 1
 639 1366 l 1
 629 1292 l 1
 563 1284 501 1270 442 1237 c 1
 442 131 l 1
 501 96 573 84 641 76 c 1
 631 0 l 1
 61 0 l 1
EndSplineSet
EndChar

StartChar: J
Encoding: 74 74 14
Width: 622
GlyphClass: 2
Flags: HMW
HStem: 1292 74<25 602 592 592>
VStem: 225 180<2 33 33 1237>
AnchorPoint: "Anchor-3" 324 1366 basechar 0
LayerCount: 2
Fore
SplineSet
6 -406 m 1
 -16 -344 l 1
 105 -289 225 -201 225 2 c 2
 225 1237 l 1
 166 1268 95 1284 25 1292 c 1
 35 1366 l 1
 602 1366 l 1
 592 1292 l 1
 524 1284 463 1270 406 1237 c 1
 406 33 l 2
 406 -219 246 -343 6 -406 c 1
EndSplineSet
EndChar

StartChar: K
Encoding: 75 75 15
Width: 1290
GlyphClass: 2
Flags: HMW
HStem: 0 76<61 74 74 74 74 633> 0 78<932 1272> 1292 74<61 643 631 631 1219 1219>
VStem: 260 182<131 1237 131 1237>
AnchorPoint: "Anchor-5" 729 0 basechar 0
LayerCount: 2
Fore
SplineSet
61 0 m 1xb0
 74 76 l 1
 142 84 203 96 260 131 c 1
 260 1237 l 1
 203 1268 129 1284 61 1292 c 1
 72 1366 l 1
 643 1366 l 1
 631 1292 l 1
 561 1284 501 1270 442 1237 c 1
 442 131 l 1
 501 98 573 84 643 76 c 1
 633 0 l 1
 61 0 l 1xb0
932 0 m 1
 930 35 913 78 899 98 c 2xb0
 463 713 l 1
 848 1192 l 2
 856 1208 860 1223 860 1233 c 0
 860 1270 805 1290 733 1292 c 1
 745 1366 l 1
 1227 1366 l 1
 1219 1292 l 1
 1162 1288 1091 1282 1032 1227 c 1
 651 750 l 1
 1098 131 l 1
 1133 106 1186 86 1272 78 c 1x70
 1260 0 l 1
 932 0 l 1
EndSplineSet
EndChar

StartChar: L
Encoding: 76 76 16
Width: 1026
GlyphClass: 2
Flags: HMW
HStem: 0 76<61 74 74 74 74 975> 0 119<440 823 440 975> 1292 74<61 639 629 629>
VStem: 258 182<131 1237 119 1237> 911 73
AnchorPoint: "Anchor-5" 567 0 basechar 0
AnchorPoint: "Anchor-3" 352 1366 basechar 0
LayerCount: 2
Fore
SplineSet
61 0 m 1x78
 74 76 l 1
 140 84 203 96 258 131 c 1xb8
 258 1237 l 1
 201 1268 127 1284 61 1292 c 1
 72 1366 l 1
 639 1366 l 1
 629 1292 l 1
 561 1284 499 1270 440 1237 c 1
 440 119 l 1
 823 119 l 1
 876 193 899 276 911 350 c 1
 921 354 934 356 948 356 c 0
 962 356 977 354 993 350 c 1
 975 0 l 1
 61 0 l 1x78
EndSplineSet
EndChar

StartChar: M
Encoding: 77 77 17
Width: 1818
GlyphClass: 1
Flags: HMW
HStem: 0 76<61 72 72 72 72 580> 1292 74<61 465 1747 1747>
VStem: 258 131<131 1102 131 1237> 1378 180<131 1083 1083 1083>
LayerCount: 2
Fore
SplineSet
61 0 m 1
 72 76 l 1
 150 84 209 100 258 131 c 1
 258 1237 l 1
 201 1268 127 1284 61 1292 c 1
 70 1366 l 1
 465 1366 l 1
 924 252 l 1
 1366 1366 l 1
 1757 1366 l 1
 1747 1292 l 1
 1677 1284 1618 1270 1559 1237 c 1
 1559 131 l 1
 1618 96 1689 84 1757 76 c 1
 1749 0 l 1
 1180 0 l 1
 1190 76 l 1
 1260 84 1319 96 1378 131 c 1
 1378 1083 l 1
 1370 1083 l 1
 954 0 l 1
 834 0 l 1
 397 1102 l 1
 389 1102 l 1
 389 131 l 1
 434 104 506 84 588 76 c 1
 580 0 l 1
 61 0 l 1
EndSplineSet
EndChar

StartChar: N
Encoding: 78 78 18
Width: 1419
GlyphClass: 2
Flags: HMW
HStem: 0 76<61 74 74 74 74 582> 1292 74<61 397 1364 1364>
VStem: 262 129<131 1055 131 1237> 1042 133<391 1237 0 1237>
AnchorPoint: "Anchor-5" 758 0 basechar 0
AnchorPoint: "Anchor-3" 711 1366 basechar 0
LayerCount: 2
Fore
SplineSet
61 0 m 1
 74 76 l 1
 142 84 203 96 262 131 c 1
 262 1237 l 1
 203 1268 131 1284 61 1292 c 1
 72 1366 l 1
 397 1366 l 1
 1042 391 l 1
 1042 1237 l 1
 987 1268 912 1284 846 1292 c 1
 856 1366 l 1
 1374 1366 l 1
 1364 1292 l 1
 1294 1284 1235 1270 1176 1237 c 1
 1176 0 l 1
 1087 0 l 1
 391 1055 l 1
 391 131 l 1
 448 98 524 84 590 76 c 1
 582 0 l 1
 61 0 l 1
EndSplineSet
EndChar

StartChar: O
Encoding: 79 79 19
Width: 1226
GlyphClass: 2
Flags: HMW
HStem: -14 100<461 768 461 823> 1282 102<461 768>
VStem: 53 207<527 842 527 898> 967 207<525 840>
AnchorPoint: "Anchor-3" 612 1366 basechar 0
LayerCount: 2
Fore
SplineSet
614 -14 m 0
 194 -14 53 258 53 684 c 0
 53 1112 194 1384 614 1384 c 0
 1032 1384 1174 1110 1174 682 c 0
 1174 256 1032 -14 614 -14 c 0
614 86 m 0
 921 86 967 369 967 682 c 0
 967 997 921 1282 614 1282 c 0
 307 1282 260 999 260 684 c 0
 260 371 307 86 614 86 c 0
EndSplineSet
Substitution2: "Single Substitution lookup 12 subtable" ordmasculine
Substitution2: "'aalt' Access All Alternates in Latin lookup 0 subtable" ordmasculine
EndChar

StartChar: P
Encoding: 80 80 20
Width: 1091
GlyphClass: 1
Flags: HMW
HStem: 0 76<63 76 76 76 76 633> 600 92<442 508 442 508> 1280 86<557 598 598 664> 1292 74<61 598>
VStem: 262 180<131 600 692 1237 1237 1237> 868 184<886 1099>
LayerCount: 2
Fore
SplineSet
63 0 m 1xec
 76 76 l 1
 142 84 203 96 262 131 c 1
 262 1237 l 1
 203 1268 131 1284 61 1292 c 1xdc
 72 1366 l 1
 598 1366 l 2
 915 1366 1053 1225 1053 987 c 0
 1053 686 838 600 508 600 c 2
 442 600 l 1
 442 131 l 1
 501 96 573 84 641 76 c 1
 633 0 l 1
 63 0 l 1xec
442 692 m 1
 508 692 l 2
 729 692 868 780 868 991 c 0
 868 1206 750 1280 578 1280 c 0
 537 1280 489 1276 442 1268 c 1xec
 442 692 l 1
EndSplineSet
EndChar

StartChar: Q
Encoding: 81 81 21
Width: 1226
GlyphClass: 1
Flags: HMW
HStem: -4 90 1282 102<461 768>
VStem: 53 207<527 842 527 898> 967 207<525 840> 1028 20
LayerCount: 2
Fore
SplineSet
1028 -348 m 1xe8
 782 -307 647 -168 567 -12 c 1
 184 6 53 274 53 684 c 0
 53 1112 194 1384 614 1384 c 0
 1032 1384 1174 1110 1174 682 c 0xf0
 1174 301 1059 45 733 -4 c 1
 782 -133 904 -238 1049 -287 c 1
 1049 -299 l 2
 1049 -317 1042 -336 1028 -348 c 1xe8
614 86 m 0xf0
 921 86 967 369 967 682 c 0
 967 997 921 1282 614 1282 c 0
 307 1282 260 999 260 684 c 0
 260 371 307 86 614 86 c 0xf0
EndSplineSet
EndChar

StartChar: R
Encoding: 82 82 22
Width: 1255
GlyphClass: 2
Flags: HMW
HStem: 0 76<63 74 74 74 74 631> 0 78<924 1245> 637 94<442 483 442 506> 1282 84<568 598 598 690> 1292 74<61 598>
VStem: 262 180<131 637 731 1237 1237 1237> 883 184<915 1100>
AnchorPoint: "Anchor-5" 715 0 basechar 0
AnchorPoint: "Anchor-3" 602 1366 basechar 0
LayerCount: 2
Fore
SplineSet
63 0 m 1xb6
 74 76 l 1
 158 86 213 102 262 131 c 1
 262 1237 l 1
 215 1264 149 1282 61 1292 c 1xae
 72 1366 l 1
 598 1366 l 2
 907 1366 1067 1248 1067 1006 c 0
 1067 826 979 715 784 668 c 1
 837 633 874 576 911 492 c 2
 1073 131 l 1
 1112 104 1167 86 1245 78 c 1x76
 1233 0 l 1
 924 0 l 1
 745 457 l 2
 679 623 659 637 483 637 c 2
 442 637 l 1
 442 131 l 1
 481 106 532 90 641 76 c 1
 631 0 l 1
 63 0 l 1xb6
442 731 m 1
 506 731 l 2
 762 731 883 822 883 1010 c 0
 883 1190 784 1282 596 1282 c 0
 541 1282 514 1280 442 1268 c 1xb6
 442 731 l 1
EndSplineSet
EndChar

StartChar: S
Encoding: 83 83 23
Width: 927
GlyphClass: 2
Flags: HMW
HStem: -14 102<386 520 386 554> 1280 104<400 544>
VStem: 37 100<92 438 428 438> 55 176<995 1130> 684 178<1127 1189> 700 186<252 414>
AnchorPoint: "Anchor-5" 459 0 basechar 0
AnchorPoint: "Anchor-4" 471 0 basechar 0
AnchorPoint: "Anchor-3" 461 1366 basechar 0
LayerCount: 2
Fore
SplineSet
416 -14 m 0xd4
 260 -14 90 53 37 92 c 1
 37 428 l 1
 137 438 l 1
 151 327 166 237 211 135 c 1
 260 112 327 88 444 88 c 0
 596 88 700 176 700 328 c 0xe4
 700 500 556 564 406 627 c 0
 240 699 55 782 55 1022 c 0
 55 1239 209 1384 477 1384 c 0
 684 1384 862 1271 862 1124 c 0
 862 1038 828 993 760 993 c 0
 690 993 664 1020 641 1051 c 1
 661 1071 684 1100 684 1155 c 0xd8
 684 1223 612 1280 475 1280 c 0
 325 1280 231 1210 231 1073 c 0
 231 917 366 860 516 797 c 0
 692 721 887 637 887 371 c 0
 887 117 692 -14 416 -14 c 0xd4
EndSplineSet
EndChar

StartChar: T
Encoding: 84 84 24
Width: 1140
GlyphClass: 2
Flags: HMW
HStem: 0 76<283 295 295 295 295 852> 1020 354<45 98> 1274 100
VStem: 45 90<1022 1022> 481 180<131 1274 131 1274> 1006 90<1022 1022>
AnchorPoint: "Anchor-5" 571 0 basechar 0
AnchorPoint: "Anchor-3" 569 1366 basechar 0
LayerCount: 2
Fore
SplineSet
283 0 m 1xbc
 295 76 l 1
 361 84 424 96 481 131 c 1
 481 1274 l 1
 352 1272 270 1266 213 1260 c 1xbc
 160 1186 137 1083 135 1022 c 1
 121 1020 104 1020 92 1020 c 0
 76 1020 59 1020 45 1022 c 1xdc
 45 1374 l 1
 45 1374 315 1366 569 1366 c 0
 764 1366 1076 1372 1096 1374 c 1xbc
 1096 1022 l 1
 1082 1020 1067 1020 1053 1020 c 0
 1037 1020 1022 1020 1006 1022 c 1xdc
 1000 1081 981 1183 932 1257 c 1
 875 1263 793 1272 662 1274 c 1
 662 131 l 1
 721 98 794 84 862 76 c 1
 852 0 l 1
 283 0 l 1xbc
EndSplineSet
EndChar

StartChar: U
Encoding: 85 85 25
Width: 1406
GlyphClass: 2
Flags: HMW
HStem: -14 106<614 826 614 869> 1292 74<25 606 594 594 1372 1372>
VStem: 223 186<430 1237> 1053 131<442 1237>
AnchorPoint: "Anchor-3" 707 1366 basechar 0
AnchorPoint: "Anchor-2" 872 0 basechar 0
LayerCount: 2
Fore
SplineSet
721 -14 m 0
 369 -14 223 123 223 430 c 2
 223 1237 l 1
 176 1262 113 1282 25 1292 c 1
 33 1366 l 1
 606 1366 l 1
 594 1292 l 1
 510 1278 457 1262 410 1237 c 1
 410 430 l 2
 410 186 508 92 721 92 c 0
 932 92 1053 215 1053 442 c 2
 1053 1237 l 1
 1008 1262 942 1282 854 1292 c 1
 864 1366 l 1
 1382 1366 l 1
 1372 1292 l 1
 1284 1278 1231 1262 1184 1237 c 1
 1184 442 l 2
 1184 149 1018 -14 721 -14 c 0
EndSplineSet
EndChar

StartChar: V
Encoding: 86 86 26
Width: 1224
GlyphClass: 1
Flags: HMW
HStem: 0 43G<575 575 575 674> 1292 74<8 514 502 502 1202 1202>
VStem: 8 1206<1292 1366>
LayerCount: 2
Fore
SplineSet
575 0 m 1
 133 1237 l 1
 104 1262 53 1282 8 1292 c 1
 18 1366 l 1
 514 1366 l 1
 502 1292 l 1
 439 1284 381 1270 326 1237 c 1
 647 313 l 1
 940 1237 l 1
 885 1266 820 1284 754 1292 c 1
 764 1366 l 1
 1214 1366 l 1
 1202 1292 l 1
 1157 1284 1116 1268 1075 1239 c 1
 674 0 l 1
 575 0 l 1
EndSplineSet
EndChar

StartChar: W
Encoding: 87 87 27
Width: 1820
GlyphClass: 2
Flags: HMW
HStem: 0 43G<524 524 524 623 1225 1225 1225 1323> 1292 74<8 514 502 502 1800 1800>
VStem: 8 1804<1292 1366>
AnchorPoint: "Anchor-3" 932 1366 basechar 0
LayerCount: 2
Fore
SplineSet
524 0 m 1
 131 1239 l 1
 100 1264 53 1282 8 1292 c 1
 16 1366 l 1
 514 1366 l 1
 502 1292 l 1
 439 1284 381 1270 326 1237 c 1
 596 326 l 1
 901 1366 l 1
 967 1366 l 1
 1294 330 l 1
 1538 1237 l 1
 1483 1266 1420 1284 1352 1292 c 1
 1362 1366 l 1
 1812 1366 l 1
 1800 1292 l 1
 1757 1284 1716 1268 1677 1241 c 1
 1323 0 l 1
 1225 0 l 1
 909 946 l 1
 623 0 l 1
 524 0 l 1
EndSplineSet
EndChar

StartChar: X
Encoding: 88 88 28
Width: 1169
GlyphClass: 1
Flags: HMW
HStem: 0 76<-51 -41 -41 -41 428 469 678 727> 1292 74<20 537 524 524 1137 1137>
VStem: -51 1274<0 76>
LayerCount: 2
Fore
SplineSet
-51 0 m 1
 -41 76 l 1
 22 80 86 90 139 125 c 1
 496 694 l 1
 145 1239 l 1
 116 1259 75 1278 20 1292 c 1
 31 1366 l 1
 537 1366 l 1
 524 1292 l 1
 456 1282 399 1262 360 1237 c 1
 610 844 l 1
 856 1237 l 1
 821 1257 762 1280 692 1292 c 1
 702 1366 l 1
 1147 1366 l 1
 1137 1292 l 1
 1080 1284 1039 1264 1006 1239 c 1
 686 727 l 1
 1071 125 l 1
 1122 90 1182 82 1223 76 c 1
 1212 0 l 1
 668 0 l 1
 678 76 l 1
 776 76 821 96 854 129 c 1
 567 580 l 1
 287 125 l 1
 314 90 379 76 477 76 c 1
 469 0 l 1
 -51 0 l 1
EndSplineSet
EndChar

StartChar: Y
Encoding: 89 89 29
Width: 1140
GlyphClass: 2
Flags: HMW
HStem: 0 76<274 285 285 285 285 864> 1292 74<8 524 514 514 1120 1120>
VStem: 483 180<131 543 543 543>
AnchorPoint: "Anchor-3" 590 1366 basechar 0
LayerCount: 2
Fore
SplineSet
274 0 m 1
 285 76 l 1
 359 84 420 94 483 131 c 1
 483 543 l 1
 135 1239 l 1
 104 1262 55 1282 8 1292 c 1
 18 1366 l 1
 524 1366 l 1
 514 1292 l 1
 453 1284 393 1270 336 1237 c 1
 592 702 l 1
 854 1239 l 1
 803 1266 738 1284 672 1292 c 1
 682 1366 l 1
 1133 1366 l 1
 1120 1292 l 1
 1075 1284 1032 1268 995 1239 c 1
 664 567 l 1
 664 131 l 1
 725 96 800 84 872 76 c 1
 864 0 l 1
 274 0 l 1
EndSplineSet
EndChar

StartChar: Z
Encoding: 90 90 30
Width: 1038
GlyphClass: 2
Flags: HMW
HStem: -6 43G<973 973> 0 106<360 546> 1026 350<123 136> 1262 115 1294 82 1327 49
VStem: 82 90
AnchorPoint: "Anchor-3" 565 1366 basechar 0
LayerCount: 2
Fore
SplineSet
55 -8 m 1x92
 49 94 l 1
 758 1260 l 1
 695 1262 620 1262 520 1262 c 0
 424 1262 362 1259 270 1257 c 1x92
 221 1214 186 1112 172 1028 c 1
 160 1028 143 1026 129 1026 c 0
 119 1026 104 1026 94 1028 c 1x62
 70 1327 l 1
 123 1376 l 1
 123 1376 369 1366 578 1366 c 0x46
 752 1366 920 1374 975 1376 c 1x52
 993 1294 l 1
 266 106 l 1
 327 104 676 104 768 106 c 1
 827 178 876 271 903 371 c 1
 915 373 934 375 946 375 c 0
 962 375 977 373 991 371 c 1
 973 -6 l 1
 879 -2 631 0 461 0 c 0x4a
 260 0 69 -6 55 -8 c 1x92
EndSplineSet
EndChar

StartChar: a
Encoding: 97 97 31
Width: 962
GlyphClass: 2
Flags: HMW
HStem: -14 84<325 375> 0 70 439 85 893 82<368 485>
VStem: 53 180<182 292 182 308> 78 174<783 815> 604 174<188 446 446 446 530 696 125 765>
AnchorPoint: "Anchor-3" 428 956 basechar 0
AnchorPoint: "Anchor-2" 774 0 basechar 0
LayerCount: 2
Fore
SplineSet
319 -14 m 0xba
 151 -14 53 72 53 219 c 0xba
 53 397 186 502 436 518 c 2
 604 530 l 1
 604 696 l 2
 604 833 549 893 422 893 c 0
 313 893 252 858 252 801 c 0
 252 766 274 739 313 725 c 1
 313 662 273 627 197 627 c 0
 125 627 78 673 78 745 c 0
 78 884 211 975 422 975 c 0
 645 975 778 872 778 696 c 2
 778 125 l 1
 803 107 863 82 922 70 c 1xb6
 913 0 l 1
 631 0 l 1x76
 610 92 l 1
 520 8 430 -14 319 -14 c 0xba
371 70 m 0
 449 70 516 104 604 188 c 1
 604 446 l 1
 440 432 l 2
 311 422 233 347 233 238 c 0
 233 127 279 70 371 70 c 0
EndSplineSet
Substitution2: "Single Substitution lookup 12 subtable" ordfeminine
Substitution2: "'aalt' Access All Alternates in Latin lookup 0 subtable" ordfeminine
EndChar

StartChar: b
Encoding: 98 98 32
Width: 1064
GlyphClass: 1
Flags: HMW
HStem: -14 86<531 685 531 713> 0 43G<188 287 188 188> 887 88<555 707> 1296 61<45 51>
VStem: 188 98<0 1161> 188 176<174 420 831 1161 1161 1212> 821 186<390 590>
LayerCount: 2
Fore
SplineSet
565 -14 m 0xb6
 465 -14 385 33 328 86 c 1xba
 308 55 295 33 287 0 c 1x7a
 188 0 l 1x76
 188 1161 l 2
 188 1263 151 1292 45 1296 c 1
 51 1358 l 1
 143 1372 240 1402 324 1427 c 1
 365 1407 l 1
 365 831 l 1
 406 909 504 975 606 975 c 0
 897 975 1008 770 1008 485 c 0
 1008 200 860 -14 565 -14 c 0xb6
575 72 m 0
 794 72 821 295 821 485 c 0
 821 694 803 887 610 887 c 0
 389 887 365 645 365 420 c 2
 365 174 l 1
 418 127 487 72 575 72 c 0
EndSplineSet
EndChar

StartChar: c
Encoding: 99 99 33
Width: 862
GlyphClass: 2
Flags: HMW
HStem: -14 100<386 577 386 587> 901 74<391 536>
VStem: 57 190<373 487> 625 188<773 819>
AnchorPoint: "Anchor-4" 485 0 basechar 0
AnchorPoint: "Anchor-3" 475 956 basechar 0
LayerCount: 2
Fore
SplineSet
489 -14 m 0
 170 -14 57 168 57 487 c 0
 61 809 211 975 498 975 c 0
 686 975 813 887 813 758 c 0
 813 695 764 637 705 637 c 0
 654 637 610 668 598 711 c 1
 614 738 625 761 625 784 c 0
 625 854 574 901 498 901 c 0
 285 901 248 704 248 487 c 0
 248 258 273 86 500 86 c 0
 654 86 760 182 760 182 c 1
 813 121 l 1
 813 121 684 -14 489 -14 c 0
EndSplineSet
EndChar

StartChar: d
Encoding: 100 100 34
Width: 1064
GlyphClass: 1
Flags: HMW
HStem: -14 88<378 492> 0 70<711 1012> 0 125<870 870 870 1006> 889 86<427 553 371 560> 1296 59<553 557>
VStem: 57 180<327 595 327 627> 694 176<121 1407 459 848 848 848 940 1161 1161 1212>
LayerCount: 2
Fore
SplineSet
432 -14 m 0x96
 184 -14 57 146 57 459 c 0
 57 795 221 975 520 975 c 0
 586 975 639 963 694 940 c 1
 694 1161 l 2
 694 1263 657 1292 553 1296 c 1
 557 1356 l 1
 649 1372 745 1402 829 1427 c 1
 870 1407 l 1
 870 125 l 1x3e
 903 100 953 82 1012 70 c 1
 1006 0 l 1
 711 0 l 1x56
 694 121 l 1
 637 31 551 -14 432 -14 c 0x96
451 74 m 0
 609 74 694 201 694 459 c 2
 694 848 l 1
 655 868 606 889 514 889 c 0
 340 889 238 731 238 459 c 0
 238 195 306 74 451 74 c 0
EndSplineSet
EndChar

StartChar: e
Encoding: 101 101 35
Width: 903
GlyphClass: 2
Flags: HMW
HStem: -14 100<383 561 383 571> 498 83 893 82<395 555>
VStem: 57 188<373 487 487 498 373 573 373 636> 674 184<553 690>
AnchorPoint: "Anchor-3" 457 956 basechar 0
AnchorPoint: "Anchor-2" 719 0 basechar 0
LayerCount: 2
Fore
SplineSet
485 -14 m 0
 168 -14 57 168 57 487 c 0
 57 784 200 975 485 975 c 0
 772 975 850 811 858 553 c 1
 815 498 l 1
 246 498 l 1
 246 487 l 2
 246 258 269 86 498 86 c 0
 625 86 723 153 760 182 c 1
 811 121 l 1
 774 86 657 -14 485 -14 c 0
246 573 m 1
 674 588 l 1
 674 793 633 893 477 893 c 0
 313 893 250 759 246 573 c 1
EndSplineSet
EndChar

StartChar: f
Encoding: 102 102 36
Width: 641
GlyphClass: 1
Flags: HMW
HStem: 0 74<61 70 70 70 70 528> 854 72<43 205 43 53> 854 109<53 205 379 592> 1376 76<436 520>
VStem: 205 150<963 1252 1172 1177> 205 174<127 854 127 854 963 1000 127 1073> 590 162<1288 1321>
LayerCount: 2
Fore
SplineSet
61 0 m 1xb4
 70 74 l 1
 131 84 164 94 205 127 c 1
 205 854 l 1
 53 854 l 1xb4
 43 926 l 1xd4
 90 930 148 938 205 963 c 1
 205 1073 l 2xb4
 205 1280 281 1452 502 1452 c 0
 633 1452 752 1385 752 1274 c 0
 752 1186 696 1147 645 1147 c 0
 602 1147 561 1174 553 1225 c 1
 578 1250 590 1275 590 1300 c 0
 590 1341 553 1376 487 1376 c 0
 385 1376 354 1296 354 1208 c 0xba
 354 1136 379 1039 379 963 c 1
 592 963 l 1
 592 854 l 1
 379 854 l 1
 379 127 l 1
 414 100 476 82 535 70 c 1
 528 0 l 1
 61 0 l 1xb4
EndSplineSet
EndChar

StartChar: g
Encoding: 103 103 37
Width: 940
GlyphClass: 2
Flags: HMW
HStem: -449 84<401 561 401 630> -2 139<463 500 326 549> 301 84<418 446 418 418> 891 82<380 494 322 513>
VStem: 45 188<-231 -130 -231 -118> 72 184<549 726 549 742> 637 186<549 680 530 726> 727 188<-232 -105> 750 141<1004 1018>
AnchorPoint: "Anchor-3" 453 956 basechar 0
LayerCount: 2
Fore
SplineSet
481 -449 m 0xf9
 184 -449 45 -344 45 -190 c 0
 45 -45 94 -2 203 57 c 1
 174 90 158 138 158 195 c 1xfa
 326 313 l 1
 164 352 72 467 72 631 c 0
 72 854 196 973 446 973 c 0
 540 973 617 957 676 924 c 1
 723 938 750 965 750 1004 c 0
 750 1033 727 1061 692 1077 c 1
 692 1118 729 1147 788 1147 c 0
 849 1147 891 1105 891 1044 c 0xf480
 891 962 842 899 748 866 c 1
 799 809 823 729 823 631 c 0xf6
 823 430 679 301 446 301 c 2
 418 301 l 1
 332 195 l 1
 338 156 365 139 463 137 c 2
 549 137 l 2
 817 137 915 -4 915 -164 c 0
 915 -344 778 -449 481 -449 c 0xf9
446 385 m 0xf6
 581 385 637 461 637 637 c 0
 637 815 579 891 446 891 c 0
 313 891 256 815 256 637 c 0
 256 461 311 385 446 385 c 0xf6
481 -365 m 0xf9
 641 -365 727 -301 727 -164 c 0
 727 -47 643 -2 500 -2 c 2
 326 -2 l 1
 267 -41 233 -96 233 -164 c 0
 233 -299 321 -365 481 -365 c 0xf9
EndSplineSet
EndChar

StartChar: h
Encoding: 104 104 38
Width: 1134
GlyphClass: 2
Flags: HMW
HStem: 0 70<635 641 641 641 641 1085> 0 72<53 514> 0 76<53 61 61 61 61 506> 877 98<584 659> 1296 61<53 59>
VStem: 197 174<127 705 836 1161 1161 1212> 776 174<127 674 674 692 127 742>
AnchorPoint: "Anchor-3" 614 1366 basechar 0
LayerCount: 2
Fore
SplineSet
53 0 m 1x96
 61 76 l 1
 122 84 156 94 197 127 c 1x36
 197 1161 l 2
 197 1263 157 1292 53 1296 c 1
 59 1358 l 1
 151 1372 248 1402 332 1427 c 1
 371 1407 l 1
 371 836 l 1
 437 920 533 975 635 975 c 0
 834 975 950 870 950 692 c 2
 950 127 l 1
 975 107 1035 82 1094 70 c 1
 1085 0 l 1
 635 0 l 1
 641 70 l 1
 692 78 737 96 776 127 c 1x9e
 776 674 l 2
 776 811 717 877 602 877 c 0
 508 877 414 807 371 705 c 1
 371 127 l 1
 406 100 455 82 514 72 c 1x56
 506 0 l 1
 53 0 l 1x96
EndSplineSet
EndChar

StartChar: i
Encoding: 105 105 39
Width: 567
GlyphClass: 2
Flags: HMW
HStem: 0 74<61 70 70 70 70 514> 850 59<61 68> 918 41G<379 379> 1133 238<231 304>
VStem: 162 215<1213 1289> 205 174<125 715 715 766>
AnchorPoint: "Anchor-3" 268 956 basechar 0
AnchorPoint: "Anchor-2" 522 0 basechar 0
LayerCount: 2
Fore
SplineSet
268 1133 m 0xb8
 194 1133 162 1175 162 1251 c 0
 162 1327 194 1370 268 1370 c 0
 340 1370 377 1327 377 1251 c 0
 377 1175 340 1133 268 1133 c 0xb8
61 0 m 1
 70 74 l 1
 129 84 162 94 205 125 c 1
 205 715 l 2
 205 817 165 846 61 850 c 1
 68 909 l 1
 160 925 256 956 338 981 c 1xd4
 379 958 l 1
 379 125 l 1
 414 100 463 82 522 70 c 1
 514 0 l 1xb4
 61 0 l 1
EndSplineSet
Substitution2: "Single Substitution lookup 10 subtable" dotlessi
Substitution2: "'locl' Localized Forms in Latin lookup 3 per glyph data 6" i.loclTRK
Substitution2: "'locl' Localized Forms in Latin lookup 3 per glyph data 5" i.loclTRK
Substitution2: "'locl' Localized Forms in Latin lookup 3 per glyph data 4" i.loclTRK
Substitution2: "'locl' Localized Forms in Latin lookup 3 per glyph data 3" i.loclTRK
Substitution2: "'locl' Localized Forms in Latin lookup 3 per glyph data 1" i.loclTRK
Substitution2: "'aalt' Access All Alternates in Latin lookup 0 subtable" i.loclTRK
EndChar

StartChar: j
Encoding: 106 106 40
Width: 522
GlyphClass: 2
Flags: HMW
HStem: -442 88<113 169 113 174> 850 59<51 57> 918 41G<369 369> 1133 238<229 302>
VStem: -86 147<-300 -267 -300 -255> 160 215<1213 1289> 195 174<150 715 715 766> 219 150<-258 -68>
AnchorPoint: "Anchor-3" 266 956 basechar 0
LayerCount: 2
Fore
SplineSet
266 1133 m 0xbc
 192 1133 160 1175 160 1251 c 0
 160 1327 192 1370 266 1370 c 0
 338 1370 375 1327 375 1251 c 0
 375 1175 338 1133 266 1133 c 0xbc
135 -442 m 0
 18 -442 -86 -402 -86 -285 c 0
 -86 -226 -47 -172 12 -172 c 0
 47 -172 76 -186 92 -213 c 1
 74 -227 61 -254 61 -281 c 0
 61 -320 88 -354 137 -354 c 0
 200 -354 219 -295 219 -221 c 0xb9
 219 -78 195 -32 195 150 c 2
 195 715 l 2
 195 817 155 846 51 850 c 1
 57 909 l 1
 149 925 246 954 330 981 c 1xd2
 369 958 l 1
 369 -68 l 2
 369 -181 356 -295 301 -367 c 0xb2
 266 -414 213 -442 135 -442 c 0
EndSplineSet
Substitution2: "Single Substitution lookup 10 subtable" uni0237
EndChar

StartChar: k
Encoding: 107 107 41
Width: 1075
GlyphClass: 2
Flags: HMW
HStem: 0 72<53 514> 0 76<53 61 61 61 61 506> 895 61<719 997> 1296 61<53 59>
VStem: 197 174<127 408 559 1161 1161 1212>
AnchorPoint: "Anchor-5" 565 0 basechar 0
LayerCount: 2
Fore
SplineSet
53 0 m 1x68
 61 76 l 1
 122 84 156 94 197 127 c 1x68
 197 1161 l 2
 197 1263 157 1292 53 1296 c 1
 59 1358 l 1
 151 1372 248 1402 332 1427 c 1
 371 1407 l 1
 371 559 l 1
 651 842 l 2
 698 891 713 929 719 956 c 1
 991 956 l 1
 997 895 l 1
 913 891 835 868 772 807 c 2
 584 618 l 1
 891 129 l 1
 938 102 1005 82 1079 72 c 1xb8
 1071 0 l 1
 778 0 l 1x68
 465 500 l 1
 371 408 l 1
 371 127 l 1
 406 100 455 82 514 72 c 1xa8
 506 0 l 1
 53 0 l 1x68
EndSplineSet
EndChar

StartChar: l
Encoding: 108 108 42
Width: 555
GlyphClass: 2
Flags: HMW
HStem: 0 72<53 514> 0 76<53 61 61 61 61 506> 1296 61<53 59>
VStem: 197 174<127 1161 1161 1212>
AnchorPoint: "Anchor-5" 283 0 basechar 0
AnchorPoint: "Anchor-3" 283 1366 basechar 0
LayerCount: 2
Fore
SplineSet
53 0 m 1x50
 61 76 l 1
 122 84 156 94 197 127 c 1x50
 197 1161 l 2
 197 1263 159 1292 53 1296 c 1
 59 1358 l 1
 151 1372 248 1402 332 1427 c 1
 371 1407 l 1
 371 127 l 1
 406 100 455 82 514 72 c 1xb0
 506 0 l 1
 53 0 l 1x50
EndSplineSet
EndChar

StartChar: m
Encoding: 109 109 43
Width: 1665
GlyphClass: 1
Flags: HMW
HStem: 0 70<61 522> 0 74<61 70 70 70 70 514> 846 59<61 68> 877 98<550 653 1106 1199> 915 41G<356 356>
VStem: 205 176<127 711 711 717 127 762> 762 174<127 674 674 739 127 744> 1307 174<127 668 127 674 127 744>
LayerCount: 2
Fore
SplineSet
61 0 m 1x97
 70 74 l 1
 131 84 164 94 205 127 c 1
 205 711 l 2
 205 813 167 842 61 846 c 1
 68 905 l 1x67
 156 921 241 952 319 975 c 1x97
 356 956 l 1x8f
 371 850 l 1
 385 866 480 975 621 975 c 0
 746 975 836 934 891 848 c 1
 961 911 1048 975 1163 975 c 0
 1331 975 1481 893 1481 668 c 2
 1481 127 l 1
 1508 107 1565 82 1624 70 c 1
 1616 0 l 1
 1167 0 l 1
 1171 70 l 1
 1222 78 1268 96 1307 127 c 1
 1307 674 l 2
 1307 815 1254 877 1145 877 c 0
 1053 877 971 805 936 739 c 1
 936 127 l 1
 961 107 1020 82 1079 70 c 1
 1071 0 l 1
 621 0 l 1
 627 70 l 1
 678 78 723 96 762 127 c 1
 762 674 l 2
 762 815 706 877 600 877 c 0
 498 877 406 789 381 717 c 1
 381 127 l 1
 414 100 463 82 522 70 c 1
 514 0 l 1
 61 0 l 1x97
EndSplineSet
EndChar

StartChar: n
Encoding: 110 110 44
Width: 1142
GlyphClass: 2
Flags: HMW
HStem: 0 70<61 522> 0 74<61 70 70 70 70 514> 846 59<61 68> 877 98<591 667> 915 41G<354 354>
VStem: 205 174<127 705 127 711 127 762> 784 174<127 674 674 692 127 742>
AnchorPoint: "Anchor-5" 582 0 basechar 0
AnchorPoint: "Anchor-3" 582 956 basechar 0
LayerCount: 2
Fore
SplineSet
61 0 m 1x96
 70 74 l 1
 129 84 164 94 205 127 c 1
 205 711 l 2
 205 813 165 842 61 846 c 1
 68 905 l 1x66
 156 921 239 952 317 975 c 1x96
 354 956 l 1x8e
 373 829 l 1
 436 917 539 975 643 975 c 0
 842 975 958 870 958 692 c 2
 958 127 l 1
 983 107 1043 82 1102 70 c 1
 1094 0 l 1
 643 0 l 1
 649 70 l 1
 700 78 745 96 784 127 c 1
 784 674 l 2
 784 811 725 877 608 877 c 0
 516 877 422 807 379 705 c 1
 379 127 l 1
 414 100 463 82 522 70 c 1
 514 0 l 1
 61 0 l 1x96
EndSplineSet
Substitution2: "'sups' Superscript in Latin lookup 5 subtable" uni207F
Substitution2: "'aalt' Access All Alternates in Latin lookup 0 subtable" uni207F
EndChar

StartChar: o
Encoding: 111 111 45
Width: 983
GlyphClass: 2
Flags: HMW
HStem: -14 94<402 581 402 636> 881 94<402 581>
VStem: 57 184<339 624 339 642> 745 180<339 624>
AnchorPoint: "Anchor-3" 492 956 basechar 0
LayerCount: 2
Fore
SplineSet
492 -14 m 0
 205 -14 57 159 57 481 c 0
 57 803 205 975 492 975 c 0
 781 975 926 803 926 481 c 0
 926 159 781 -14 492 -14 c 0
492 80 m 0
 670 80 745 196 745 481 c 0
 745 766 670 881 492 881 c 0
 314 881 242 766 242 481 c 0
 242 196 314 80 492 80 c 0
EndSplineSet
Substitution2: "Single Substitution lookup 12 subtable" ordmasculine
Substitution2: "'aalt' Access All Alternates in Latin lookup 0 subtable" ordmasculine
EndChar

StartChar: p
Encoding: 112 112 46
Width: 1064
GlyphClass: 1
Flags: HMW
HStem: -430 70<53 512> -430 74<53 61 61 61 61 506> -14 86<511 638 505 694> 848 59<53 59> 887 88<571 688> 915 41G<346 346>
VStem: 195 176<-305 18 -305 113 113 502> 827 180<364 633>
LayerCount: 2
Fore
SplineSet
53 -430 m 1x6b
 61 -356 l 1
 120 -348 154 -336 195 -305 c 1
 195 713 l 2
 195 815 157 844 53 848 c 1
 59 907 l 1x73
 147 923 231 954 309 977 c 1x6b
 346 956 l 1x67
 365 831 l 1
 420 925 510 975 633 975 c 0
 881 975 1008 815 1008 500 c 0
 1008 166 844 -14 545 -14 c 0
 477 -14 424 -5 371 18 c 1
 371 -305 l 1
 406 -332 453 -350 512 -360 c 1xab
 506 -430 l 1
 53 -430 l 1x6b
551 72 m 0
 725 72 827 228 827 500 c 0
 827 766 759 887 616 887 c 0x6b
 456 887 371 758 371 502 c 2
 371 113 l 1
 408 93 459 72 551 72 c 0
EndSplineSet
EndChar

StartChar: q
Encoding: 113 113 47
Width: 1026
GlyphClass: 1
Flags: HMW
HStem: -434 74<535 543 543 543 543 987> -14 86<352 501> 889 86<364 518> 915 41G<743 852 852 852>
VStem: 57 184<371 566 371 618> 678 174<-309 121 121 121 492 784 784 784>
LayerCount: 2
Fore
SplineSet
535 -434 m 1xec
 543 -360 l 1
 604 -350 635 -340 678 -309 c 1
 678 121 l 1
 629 43 557 -14 444 -14 c 0
 159 -14 57 192 57 475 c 0
 57 762 174 975 481 975 c 0
 575 975 652 932 711 879 c 1xec
 743 956 l 1
 852 956 l 1xdc
 852 -309 l 1
 887 -334 936 -353 995 -365 c 1
 987 -434 l 1
 535 -434 l 1xec
444 72 m 0
 639 72 678 275 678 492 c 2
 678 784 l 1
 627 837 559 889 477 889 c 0
 250 889 242 657 242 475 c 0
 242 266 260 72 444 72 c 0
EndSplineSet
EndChar

StartChar: r
Encoding: 114 114 48
Width: 811
GlyphClass: 2
Flags: HMW
HStem: 0 74<61 70 70 70 70 532> 846 59<61 68> 862 113<570 572> 915 41G<354 354>
VStem: 205 174<127 602 127 711 127 762> 610 193<792 820>
AnchorPoint: "Anchor-5" 319 0 basechar 0
AnchorPoint: "Anchor-3" 432 956 basechar 0
LayerCount: 2
Fore
SplineSet
61 0 m 1x98
 70 74 l 1
 131 84 162 94 205 127 c 1
 205 711 l 2
 205 813 165 842 61 846 c 1
 68 905 l 1xc8
 156 921 239 952 317 975 c 1xa8
 354 956 l 1x98
 375 813 l 1
 432 899 521 975 621 975 c 0
 711 975 803 922 803 809 c 0
 803 746 764 680 694 680 c 0
 649 680 602 702 590 743 c 1
 600 753 610 783 610 801 c 0
 610 840 592 862 553 862 c 0xac
 479 862 379 731 379 602 c 2
 379 127 l 1
 418 100 475 82 541 70 c 1
 532 0 l 1
 61 0 l 1x98
EndSplineSet
EndChar

StartChar: s
Encoding: 115 115 49
Width: 802
GlyphClass: 2
Flags: HMW
HStem: -12 92<359 447 359 490> 891 82<347 445>
VStem: 70 109<66 332 317 332> 72 154<699 792> 561 170<780 823> 582 160<194 288>
AnchorPoint: "Anchor-5" 406 0 basechar 0
AnchorPoint: "Anchor-4" 428 0 basechar 0
AnchorPoint: "Anchor-3" 406 956 basechar 0
LayerCount: 2
Fore
SplineSet
375 -12 m 0xd4
 277 -12 131 27 70 66 c 1
 70 317 l 1
 178 332 l 1
 188 213 202 159 233 100 c 1
 272 88 328 80 391 80 c 0
 504 80 582 150 582 238 c 0xe4
 582 338 478 373 365 412 c 0
 226 461 72 516 72 711 c 0
 72 873 199 973 414 973 c 0
 590 973 731 883 731 772 c 0
 731 702 698 666 637 666 c 0
 586 666 553 682 526 721 c 1
 549 737 561 766 561 795 c 0xd8
 561 852 489 891 401 891 c 0
 292 891 225 838 225 754 c 0
 225 645 340 608 463 565 c 0
 598 516 741 459 741 279 c 0
 741 95 606 -12 375 -12 c 0xd4
EndSplineSet
EndChar

StartChar: t
Encoding: 116 116 50
Width: 665
GlyphClass: 2
Flags: HMW
HStem: -20 96<421 488> 846 111<362 627 365 627 365 627>
VStem: 186 176<231 846> 186 178<231 1155 846 1155>
AnchorPoint: "Anchor-5" 422 0 basechar 0
LayerCount: 2
Fore
SplineSet
422 -20 m 0xe0
 234 -20 186 57 186 231 c 2
 186 846 l 1
 20 846 l 1
 20 907 l 1
 159 954 242 1038 283 1155 c 1xe0
 365 1155 l 1
 365 956 l 1xd0
 627 956 l 1
 627 846 l 1
 362 846 l 1
 362 217 l 2
 362 129 371 76 471 76 c 0
 539 76 581 99 614 117 c 1
 655 55 l 1
 624 32 555 -20 422 -20 c 0xe0
EndSplineSet
EndChar

StartChar: u
Encoding: 117 117 51
Width: 1118
GlyphClass: 2
Flags: HMW
HStem: -14 92<469 556> 0 72<786 1065> 850 59<39 43> 920 41G<356 356 924 924>
VStem: 180 176<315 715 715 766> 750 174<240 715 715 766>
AnchorPoint: "Anchor-3" 549 956 basechar 0
AnchorPoint: "Anchor-2" 928 0 basechar 0
LayerCount: 2
Fore
SplineSet
510 -14 m 0x9c
 291 -14 180 96 180 315 c 2
 180 715 l 2
 180 817 143 846 39 850 c 1
 43 909 l 1
 135 925 231 956 315 981 c 1xac
 356 961 l 1x9c
 356 293 l 2
 356 166 405 78 532 78 c 0
 593 78 684 121 750 240 c 1
 750 715 l 2
 750 817 710 846 606 850 c 1
 612 909 l 1
 704 925 801 956 885 981 c 1xac
 924 961 l 1
 924 127 l 1
 949 107 1008 82 1065 72 c 1
 1059 0 l 1
 786 0 l 1x5c
 766 129 l 1
 694 33 602 -14 510 -14 c 0x9c
EndSplineSet
EndChar

StartChar: v
Encoding: 118 118 52
Width: 962
GlyphClass: 1
Flags: HMW
HStem: 0 43G<381 381 381 518> 0 197<381 483 483 483 483 518> 895 61<-61 399 393 393 967 967>
VStem: -61 1034<895 956>
LayerCount: 2
Fore
SplineSet
381 0 m 1xb0
 88 799 l 2
 70 850 41 875 -61 895 c 1
 -57 956 l 1
 399 956 l 1
 393 895 l 1
 348 889 303 883 266 850 c 1
 483 197 l 1x70
 700 850 l 1
 663 877 623 887 578 895 c 1
 584 956 l 1
 973 956 l 1
 967 895 l 1
 865 877 839 860 825 821 c 2
 518 0 l 1
 381 0 l 1xb0
EndSplineSet
EndChar

StartChar: w
Encoding: 119 119 53
Width: 1474
GlyphClass: 2
Flags: HMW
HStem: 0 43G<367 367 367 494 924 924 924 1049> 895 61<-61 399 393 393 1479 1479>
VStem: -61 1546<895 956>
AnchorPoint: "Anchor-3" 711 956 basechar 0
LayerCount: 2
Fore
SplineSet
367 0 m 1
 86 801 l 2
 68 854 41 872 -61 895 c 1
 -57 956 l 1
 399 956 l 1
 393 895 l 1
 348 889 303 883 266 850 c 1
 463 213 l 1
 692 922 l 1
 772 922 l 1
 1022 211 l 1
 1212 850 l 1
 1177 877 1137 887 1092 895 c 1
 1098 956 l 1
 1485 956 l 1
 1479 895 l 1
 1377 877 1349 858 1337 821 c 2
 1049 0 l 1
 924 0 l 1
 705 596 l 1
 494 0 l 1
 367 0 l 1
EndSplineSet
EndChar

StartChar: x
Encoding: 120 120 54
Width: 989
GlyphClass: 1
Flags: HMW
HStem: 0 74<-6 0 0 0 0 399> 0 76<539 989> 895 61<23 469 459 459 975 975>
VStem: -6 995<0 76>
LayerCount: 2
Fore
SplineSet
-6 0 m 1xb0
 0 74 l 1
 66 80 115 88 150 127 c 2xb0
 410 469 l 1
 150 823 l 2
 119 866 82 887 23 895 c 1
 29 956 l 1
 469 956 l 1
 459 895 l 1
 402 891 367 877 334 852 c 1
 522 598 l 1
 702 838 l 1
 665 867 631 887 565 895 c 1
 571 956 l 1
 983 956 l 1
 975 895 l 1
 891 885 852 866 823 829 c 2
 584 512 l 1
 868 127 l 2
 903 90 938 82 989 76 c 1x70
 981 0 l 1
 539 0 l 1
 547 74 l 1
 600 80 643 86 676 109 c 1
 471 385 l 1
 268 115 l 1
 305 86 349 80 406 74 c 1
 399 0 l 1
 -6 0 l 1xb0
EndSplineSet
EndChar

StartChar: y
Encoding: 121 121 55
Width: 987
GlyphClass: 2
Flags: HMW
HStem: -446 111<225 275 225 282> 895 61<395 395 993 993>
VStem: 31 147<-286 -254 -286 -251> 596 399
AnchorPoint: "Anchor-3" 498 956 basechar 0
LayerCount: 2
Fore
SplineSet
217 -446 m 0
 111 -446 31 -381 31 -289 c 0
 31 -213 76 -172 131 -172 c 0
 154 -172 180 -181 203 -195 c 1
 187 -218 178 -241 178 -266 c 0
 178 -305 205 -336 246 -336 c 0
 305 -336 346 -281 389 -150 c 2
 432 -16 l 1
 98 803 l 2
 80 848 45 877 -49 893 c 1
 -45 956 l 1
 401 956 l 1
 395 895 l 1
 350 891 311 883 274 850 c 1
 512 225 l 1
 715 850 l 1
 680 877 639 889 594 895 c 1
 598 956 l 1
 997 956 l 1
 993 895 l 1
 878 877 854 860 842 827 c 2
 496 -172 l 2
 426 -373 346 -446 217 -446 c 0
EndSplineSet
EndChar

StartChar: z
Encoding: 122 122 56
Width: 876
GlyphClass: 2
Flags: HMW
HStem: -6 43G<748 748> 0 92<397 485 397 490> 870 90 918 43
VStem: 85 118
AnchorPoint: "Anchor-3" 455 956 basechar 0
LayerCount: 2
Fore
SplineSet
82 -8 m 1xa8
 66 78 l 1
 596 862 l 1
 567 864 495 870 440 870 c 0
 381 870 297 866 258 860 c 1
 231 827 209 751 203 694 c 1
 187 688 165 684 147 684 c 0
 129 684 110 686 94 692 c 1xa8
 76 918 l 1x58
 127 961 l 1
 180 961 360 956 481 956 c 0
 608 956 721 959 791 961 c 1
 805 887 l 1
 270 94 l 1
 301 92 342 92 453 92 c 0
 519 92 574 92 621 94 c 1
 656 141 684 213 702 283 c 1
 718 287 738 289 754 289 c 0
 770 289 785 287 801 285 c 1
 786 43 l 1
 748 -6 l 1
 695 -2 568 0 414 0 c 0x68
 236 0 150 -6 82 -8 c 1xa8
EndSplineSet
EndChar

StartChar: Aacute
Encoding: 193 193 57
Width: 1226
GlyphClass: 2
Flags: HMW
HStem: 0 76<2 12 12 12 12 477> 440 106<414 760 414 795 381 760> 1325 41G<541 664 664 664>
VStem: 2 1219<0 76>
AnchorPoint: "Anchor-3" 600 1366 basechar 0
AnchorPoint: "Anchor-2" 1212 0 basechar 0
LayerCount: 2
Fore
SplineSet
543 1423 m 1
 498 1473 l 1
 668 1710 l 2
 686 1735 704 1745 733 1745 c 0
 772 1745 807 1710 807 1673 c 0
 807 1640 789 1618 756 1593 c 2
 543 1423 l 1
2 0 m 1
 12 76 l 1
 65 84 111 94 158 129 c 1
 541 1366 l 1
 664 1366 l 1
 1085 127 l 1
 1128 96 1174 84 1221 76 c 1
 1212 0 l 1
 700 0 l 1
 711 76 l 1
 779 84 840 96 899 131 c 1
 795 440 l 1
 381 440 l 1
 287 131 l 1
 346 96 417 84 485 76 c 1
 477 0 l 1
 2 0 l 1
414 547 m 1
 760 547 l 1
 580 1081 l 1
 414 547 l 1
EndSplineSet
EndChar

StartChar: Abreve
Encoding: 258 258 58
Width: 1226
GlyphClass: 2
Flags: HMW
HStem: 0 76<2 12 12 12 12 477> 440 106<414 760 414 795 381 760> 1325 41G<541 664 664 664> 1448 111<554 647 554 669>
VStem: 360 80 762 78
AnchorPoint: "Anchor-3" 600 1366 basechar 0
AnchorPoint: "Anchor-2" 1212 0 basechar 0
LayerCount: 2
Fore
SplineSet
600 1448 m 0
 463 1448 368 1545 360 1690 c 1
 385 1698 407 1704 440 1704 c 1
 446 1618 508 1559 600 1559 c 0
 694 1559 756 1618 762 1704 c 1
 795 1704 817 1700 840 1692 c 1
 834 1545 737 1448 600 1448 c 0
2 0 m 1
 12 76 l 1
 65 84 111 94 158 129 c 1
 541 1366 l 1
 664 1366 l 1
 1085 127 l 1
 1128 96 1174 84 1221 76 c 1
 1212 0 l 1
 700 0 l 1
 711 76 l 1
 779 84 840 96 899 131 c 1
 795 440 l 1
 381 440 l 1
 287 131 l 1
 346 96 417 84 485 76 c 1
 477 0 l 1
 2 0 l 1
414 547 m 1
 760 547 l 1
 580 1081 l 1
 414 547 l 1
EndSplineSet
EndChar

StartChar: Acircumflex
Encoding: 194 194 59
Width: 1226
GlyphClass: 2
Flags: HMW
HStem: 0 76<2 12 12 12 12 477> 440 106<414 760 414 795 381 760> 1325 41G<541 664 664 664>
VStem: 2 1219<0 76>
AnchorPoint: "Anchor-3" 600 1366 basechar 0
AnchorPoint: "Anchor-2" 1212 0 basechar 0
LayerCount: 2
Fore
SplineSet
393 1427 m 1
 348 1477 l 1
 539 1696 l 2
 557 1716 577 1729 602 1729 c 0
 627 1729 648 1719 666 1696 c 2
 854 1477 l 1
 807 1427 l 1
 600 1585 l 1
 393 1427 l 1
2 0 m 1
 12 76 l 1
 65 84 111 94 158 129 c 1
 541 1366 l 1
 664 1366 l 1
 1085 127 l 1
 1128 96 1174 84 1221 76 c 1
 1212 0 l 1
 700 0 l 1
 711 76 l 1
 779 84 840 96 899 131 c 1
 795 440 l 1
 381 440 l 1
 287 131 l 1
 346 96 417 84 485 76 c 1
 477 0 l 1
 2 0 l 1
414 547 m 1
 760 547 l 1
 580 1081 l 1
 414 547 l 1
EndSplineSet
EndChar

StartChar: Adieresis
Encoding: 196 196 60
Width: 1226
GlyphClass: 2
Flags: HMW
HStem: 0 76<2 12 12 12 12 477> 440 106<414 760 414 795 381 760> 1325 41G<541 664 664 664> 1481 215<396 462 737 803>
VStem: 334 193<1554 1623> 676 193<1554 1623>
AnchorPoint: "Anchor-3" 600 1366 basechar 0
AnchorPoint: "Anchor-2" 1212 0 basechar 0
LayerCount: 2
Fore
SplineSet
430 1481 m 0
 362 1481 334 1519 334 1589 c 0
 334 1657 362 1696 430 1696 c 0
 493 1696 526 1657 526 1589 c 0
 526 1519 493 1481 430 1481 c 0
770 1481 m 0
 704 1481 676 1519 676 1589 c 0
 676 1657 704 1696 770 1696 c 0
 836 1696 868 1657 868 1589 c 0
 868 1519 836 1481 770 1481 c 0
2 0 m 1
 12 76 l 1
 65 84 111 94 158 129 c 1
 541 1366 l 1
 664 1366 l 1
 1085 127 l 1
 1128 96 1174 84 1221 76 c 1
 1212 0 l 1
 700 0 l 1
 711 76 l 1
 779 84 840 96 899 131 c 1
 795 440 l 1
 381 440 l 1
 287 131 l 1
 346 96 417 84 485 76 c 1
 477 0 l 1
 2 0 l 1
414 547 m 1
 760 547 l 1
 580 1081 l 1
 414 547 l 1
EndSplineSet
EndChar

StartChar: Agrave
Encoding: 192 192 61
Width: 1226
GlyphClass: 2
Flags: HMW
HStem: 0 76<2 12 12 12 12 477> 440 106<414 760 414 795 381 760> 1325 41G<541 664 664 664>
VStem: 2 1219<0 76>
AnchorPoint: "Anchor-3" 600 1366 basechar 0
AnchorPoint: "Anchor-2" 1212 0 basechar 0
LayerCount: 2
Fore
SplineSet
655 1425 m 1
 446 1595 l 2
 415 1622 395 1642 395 1675 c 0
 395 1712 430 1747 469 1747 c 0
 498 1747 517 1737 535 1712 c 2
 705 1475 l 1
 655 1425 l 1
2 0 m 1
 12 76 l 1
 65 84 111 94 158 129 c 1
 541 1366 l 1
 664 1366 l 1
 1085 127 l 1
 1128 96 1174 84 1221 76 c 1
 1212 0 l 1
 700 0 l 1
 711 76 l 1
 779 84 840 96 899 131 c 1
 795 440 l 1
 381 440 l 1
 287 131 l 1
 346 96 417 84 485 76 c 1
 477 0 l 1
 2 0 l 1
414 547 m 1
 760 547 l 1
 580 1081 l 1
 414 547 l 1
EndSplineSet
EndChar

StartChar: Amacron
Encoding: 256 256 62
Width: 1226
GlyphClass: 2
Flags: HMW
HStem: 0 76<2 12 12 12 12 477> 440 106<414 760 414 795 381 760> 1325 41G<541 664 664 664> 1552 90<315 885 315 885>
VStem: 2 1219<0 76>
AnchorPoint: "Anchor-3" 600 1366 basechar 0
AnchorPoint: "Anchor-2" 1212 0 basechar 0
LayerCount: 2
Fore
SplineSet
315 1552 m 1
 315 1642 l 1
 885 1642 l 1
 885 1552 l 1
 315 1552 l 1
2 0 m 1
 12 76 l 1
 65 84 111 94 158 129 c 1
 541 1366 l 1
 664 1366 l 1
 1085 127 l 1
 1128 96 1174 84 1221 76 c 1
 1212 0 l 1
 700 0 l 1
 711 76 l 1
 779 84 840 96 899 131 c 1
 795 440 l 1
 381 440 l 1
 287 131 l 1
 346 96 417 84 485 76 c 1
 477 0 l 1
 2 0 l 1
414 547 m 1
 760 547 l 1
 580 1081 l 1
 414 547 l 1
EndSplineSet
EndChar

StartChar: Aogonek
Encoding: 260 260 63
Width: 1275
GlyphClass: 1
Flags: HMW
HStem: -418 92<968 982> 0 76<37 37 37 502 27 37> 440 106<438 784 438 819 406 784> 1325 41G<565 688 688 688>
VStem: 772 139<-255 -215>
LayerCount: 2
Fore
SplineSet
950 -418 m 0
 856 -418 772 -362 772 -264 c 0
 772 -166 854 -97 913 -23 c 0
 931 2 940 26 940 53 c 0
 940 76 934 102 924 131 c 2
 819 440 l 1
 406 440 l 1
 311 131 l 1
 370 96 442 84 510 76 c 1
 502 0 l 1
 27 0 l 1
 37 76 l 1
 90 84 135 94 182 129 c 1
 565 1366 l 1
 688 1366 l 1
 1110 127 l 1
 1153 96 1198 84 1245 76 c 1
 1237 0 l 1
 1135 0 l 2
 994 0 911 -139 911 -227 c 0
 911 -282 938 -326 997 -326 c 0
 1024 -326 1057 -318 1098 -295 c 1
 1133 -338 l 1
 1084 -391 1013 -418 950 -418 c 0
438 547 m 1
 784 547 l 1
 604 1081 l 1
 438 547 l 1
EndSplineSet
EndChar

StartChar: Aring
Encoding: 197 197 64
Width: 1226
GlyphClass: 2
Flags: HMW
HStem: 0 76<2 12 12 12 12 477> 440 106<414 760 414 795 381 760> 1325 41G<541 664 664 664> 1421 80<574 625 574 652> 1681 78<574 625>
VStem: 426 86<1566 1614 1566 1638> 692 84<1566 1614>
AnchorPoint: "Anchor-3" 600 1366 basechar 0
AnchorPoint: "Anchor-2" 1212 0 basechar 0
LayerCount: 2
Fore
SplineSet
600 1421 m 0
 494 1421 426 1493 426 1589 c 0
 426 1687 494 1759 600 1759 c 0
 704 1759 776 1687 776 1589 c 0
 776 1493 704 1421 600 1421 c 0
600 1501 m 0
 649 1501 692 1542 692 1589 c 0
 692 1638 649 1681 600 1681 c 0
 549 1681 512 1638 512 1589 c 0
 512 1542 549 1501 600 1501 c 0
2 0 m 1
 12 76 l 1
 65 84 111 94 158 129 c 1
 541 1366 l 1
 664 1366 l 1xee
 1085 127 l 1
 1128 96 1174 84 1221 76 c 1
 1212 0 l 1
 700 0 l 1
 711 76 l 1
 779 84 840 96 899 131 c 1
 795 440 l 1
 381 440 l 1
 287 131 l 1
 346 96 417 84 485 76 c 1
 477 0 l 1
 2 0 l 1
414 547 m 1
 760 547 l 1
 580 1081 l 1
 414 547 l 1
EndSplineSet
EndChar

StartChar: Aringacute
Encoding: 506 506 65
Width: 1226
GlyphClass: 2
Flags: HMW
HStem: 0 76<12 12 12 477 2 12> 440 106<414 760 414 795 381 760> 1591 78<612 625 625 649>
VStem: 451 86<1476 1524> 717 84<1476 1524>
AnchorPoint: "Anchor-3" 600 1366 basechar 0
AnchorPoint: "Anchor-2" 1212 0 basechar 0
LayerCount: 2
Fore
SplineSet
1085 127 m 1
 1128 96 1174 84 1221 76 c 1
 1212 0 l 1
 700 0 l 1
 711 76 l 1
 779 84 840 96 899 131 c 1
 795 440 l 1
 381 440 l 1
 287 131 l 1
 346 96 417 84 485 76 c 1
 477 0 l 1
 2 0 l 1
 12 76 l 1
 65 84 111 94 158 129 c 1
 537 1352 l 1
 482 1379 451 1433 451 1499 c 0
 451 1565 479 1618 530 1647 c 1
 506 1686 l 1
 715 1890 l 2
 738 1910 755 1919 784 1913 c 0
 823 1907 852 1866 846 1829 c 0
 840 1798 817 1777 780 1759 c 2
 612 1669 l 1
 625 1669 l 2
 729 1669 801 1597 801 1499 c 0
 801 1419 752 1355 674 1337 c 1
 1085 127 l 1
717 1499 m 0
 717 1548 674 1591 625 1591 c 0
 574 1591 537 1548 537 1499 c 0
 537 1452 574 1411 625 1411 c 0
 674 1411 717 1452 717 1499 c 0
414 547 m 1
 760 547 l 1
 580 1081 l 1
 414 547 l 1
EndSplineSet
EndChar

StartChar: Atilde
Encoding: 195 195 66
Width: 1226
GlyphClass: 2
Flags: HMW
HStem: 0 76<2 12 12 12 12 477> 440 106<414 760 414 795 381 760> 1325 41G<541 664 664 664> 1497 127<679 748 679 772> 1569 127<453 521>
VStem: 2 1219<0 76>
AnchorPoint: "Anchor-3" 600 1366 basechar 0
AnchorPoint: "Anchor-2" 1212 0 basechar 0
LayerCount: 2
Fore
SplineSet
346 1497 m 1xec
 317 1505 299 1520 281 1536 c 1
 304 1591 372 1696 485 1696 c 0xec
 575 1696 639 1624 719 1624 c 0
 776 1624 815 1661 854 1700 c 1
 883 1690 902 1677 922 1661 c 1
 897 1606 823 1497 721 1497 c 0xf4
 621 1497 563 1569 479 1569 c 0
 426 1569 385 1536 346 1497 c 1xec
2 0 m 1
 12 76 l 1
 65 84 111 94 158 129 c 1
 541 1366 l 1
 664 1366 l 1
 1085 127 l 1
 1128 96 1174 84 1221 76 c 1
 1212 0 l 1
 700 0 l 1
 711 76 l 1
 779 84 840 96 899 131 c 1
 795 440 l 1
 381 440 l 1
 287 131 l 1
 346 96 417 84 485 76 c 1
 477 0 l 1
 2 0 l 1
414 547 m 1
 760 547 l 1
 580 1081 l 1
 414 547 l 1
EndSplineSet
EndChar

StartChar: AE
Encoding: 198 198 67
Width: 1773
GlyphClass: 2
Flags: HMW
HStem: 0 76<39 51 51 51 51 516> 0 119<1067 1503 1067 1655> 555 96<594 887 594 887 543 887> 645 105 1257 109<1067 1454 1067 1067>
VStem: 887 180<131 555 555 555 745 1208 1208 1208> 1415 61<487 893 487 893> 1591 73
AnchorPoint: "Anchor-5" 1040 0 basechar 0
AnchorPoint: "Anchor-3" 1165 1366 basechar 0
LayerCount: 2
Fore
SplineSet
39 0 m 1x6f
 51 76 l 1
 100 84 141 98 180 125 c 1xaf
 831 1366 l 1
 1608 1366 l 1
 1626 1055 l 1
 1610 1049 1589 1044 1569 1044 c 0
 1561 1044 1550 1047 1540 1049 c 1
 1528 1112 1503 1194 1454 1257 c 1
 1067 1257 l 1
 1067 745 l 1
 1296 756 l 2
 1370 758 1401 842 1415 893 c 1
 1477 893 l 1
 1477 487 l 1
 1415 487 l 1
 1384 593 1357 635 1294 639 c 2
 1067 651 l 1
 1067 119 l 1
 1503 119 l 1
 1556 193 1579 282 1591 350 c 1
 1605 352 1618 354 1632 354 c 0
 1644 354 1659 352 1673 350 c 1
 1655 0 l 1
 686 0 l 1x5f
 698 76 l 1
 766 84 826 96 887 131 c 1
 887 555 l 1
 543 555 l 1
 322 131 l 1
 369 102 444 84 524 76 c 1xaf
 516 0 l 1
 39 0 l 1x6f
594 651 m 1
 887 651 l 1
 887 1208 l 1
 594 651 l 1
EndSplineSet
EndChar

StartChar: AEacute
Encoding: 508 508 68
Width: 1773
GlyphClass: 2
Flags: HMW
HStem: 0 76<39 51 51 51 51 516> 0 119<1067 1503 1067 1655> 555 96<594 887 594 887 543 887> 645 105 1257 109<1067 1454 1067 1067>
VStem: 887 180<131 555 555 555 745 1208 1208 1208> 1415 61<487 893 487 893> 1591 73
AnchorPoint: "Anchor-5" 1040 0 basechar 0
AnchorPoint: "Anchor-3" 1165 1366 basechar 0
LayerCount: 2
Fore
SplineSet
1108 1423 m 1x6f
 1063 1473 l 1
 1233 1710 l 2
 1251 1735 1269 1745 1298 1745 c 0
 1337 1745 1372 1710 1372 1673 c 0
 1372 1640 1354 1618 1321 1593 c 2
 1108 1423 l 1x6f
39 0 m 1
 51 76 l 1
 100 84 141 98 180 125 c 1xaf
 831 1366 l 1
 1608 1366 l 1
 1626 1055 l 1
 1610 1049 1589 1044 1569 1044 c 0
 1561 1044 1550 1047 1540 1049 c 1
 1528 1112 1503 1194 1454 1257 c 1
 1067 1257 l 1
 1067 745 l 1
 1296 756 l 2
 1370 758 1401 842 1415 893 c 1
 1477 893 l 1
 1477 487 l 1
 1415 487 l 1
 1384 593 1357 635 1294 639 c 2
 1067 651 l 1
 1067 119 l 1
 1503 119 l 1
 1556 193 1579 282 1591 350 c 1
 1605 352 1618 354 1632 354 c 0
 1644 354 1659 352 1673 350 c 1
 1655 0 l 1
 686 0 l 1x5f
 698 76 l 1
 766 84 826 96 887 131 c 1
 887 555 l 1
 543 555 l 1
 322 131 l 1
 369 102 444 84 524 76 c 1xaf
 516 0 l 1
 39 0 l 1
594 651 m 1
 887 651 l 1
 887 1208 l 1
 594 651 l 1
EndSplineSet
EndChar

StartChar: Cacute
Encoding: 262 262 69
Width: 1062
GlyphClass: 2
Flags: HMW
HStem: -14 123<472 659 472 691> 1274 111<473 647>
VStem: 53 205<486 886 486 922> 793 199<1118 1177>
AnchorPoint: "Anchor-4" 590 0 basechar 0
AnchorPoint: "Anchor-3" 559 1366 basechar 0
LayerCount: 2
Fore
SplineSet
502 1423 m 1
 457 1473 l 1
 627 1710 l 2
 645 1735 663 1745 692 1745 c 0
 731 1745 766 1710 766 1673 c 0
 766 1640 748 1618 715 1593 c 2
 502 1423 l 1
578 -14 m 0
 222 -14 53 207 53 684 c 0
 53 1159 224 1384 584 1384 c 0
 820 1384 991 1270 991 1114 c 0
 991 1024 938 952 872 952 c 0
 819 952 770 985 754 1032 c 1
 781 1069 793 1102 793 1135 c 0
 793 1219 711 1274 584 1274 c 0
 363 1274 258 1087 258 684 c 0
 258 289 361 109 584 109 c 0
 736 109 881 194 944 276 c 1
 1016 199 l 1
 959 129 805 -14 578 -14 c 0
EndSplineSet
EndChar

StartChar: Ccaron
Encoding: 268 268 70
Width: 1062
GlyphClass: 2
Flags: HMW
HStem: -14 123<472 659 472 691> 1274 111<473 647>
VStem: 53 205<486 886 486 922> 793 199<1118 1177>
AnchorPoint: "Anchor-4" 590 0 basechar 0
AnchorPoint: "Anchor-3" 559 1366 basechar 0
LayerCount: 2
Fore
SplineSet
559 1430 m 0
 534 1430 514 1442 496 1462 c 2
 307 1679 l 1
 352 1731 l 1
 559 1573 l 1
 768 1731 l 1
 813 1679 l 1
 623 1462 l 2
 605 1439 584 1430 559 1430 c 0
578 -14 m 0
 222 -14 53 207 53 684 c 0
 53 1159 224 1384 584 1384 c 0
 820 1384 991 1270 991 1114 c 0
 991 1024 938 952 872 952 c 0
 819 952 770 985 754 1032 c 1
 781 1069 793 1102 793 1135 c 0
 793 1219 711 1274 584 1274 c 0
 363 1274 258 1087 258 684 c 0
 258 289 361 109 584 109 c 0
 736 109 881 194 944 276 c 1
 1016 199 l 1
 959 129 805 -14 578 -14 c 0
EndSplineSet
EndChar

StartChar: Ccedilla
Encoding: 199 199 71
Width: 1062
GlyphClass: 2
Flags: HMW
HStem: -418 68<518 573 518 597> -14 123<543 543 608 608> 1274 111<473 647>
VStem: 53 205<486 886 486 922> 354 96<-283 -262> 631 104<-282 -217> 793 199<1118 1177>
AnchorPoint: "Anchor-4" 590 0 basechar 0
AnchorPoint: "Anchor-3" 559 1366 basechar 0
LayerCount: 2
Fore
SplineSet
1016 199 m 1
 961 133 819 -2 608 -14 c 1
 580 -94 l 1
 674 -112 735 -152 735 -256 c 0
 735 -346 654 -418 541 -418 c 0
 408 -418 354 -344 354 -283 c 0
 354 -242 379 -203 422 -203 c 0
 434 -203 445 -205 459 -211 c 1
 455 -225 451 -240 451 -254 c 0
 451 -311 494 -350 543 -350 c 0
 604 -350 631 -316 631 -248 c 0
 631 -187 577 -164 518 -156 c 1
 481 -115 l 1xfc
 543 -14 l 1
 211 0 53 223 53 684 c 0
 53 1159 224 1384 584 1384 c 0
 820 1384 991 1270 991 1114 c 0
 991 1024 938 952 872 952 c 0
 819 952 770 985 754 1032 c 1
 781 1069 793 1102 793 1135 c 0xfe
 793 1219 711 1274 584 1274 c 0
 363 1274 258 1087 258 684 c 0
 258 289 361 109 584 109 c 0
 736 109 881 194 944 276 c 1
 1016 199 l 1
EndSplineSet
EndChar

StartChar: Ccircumflex
Encoding: 264 264 72
Width: 1062
GlyphClass: 2
Flags: HMW
HStem: -14 123<472 659 472 691> 1274 111<473 647>
VStem: 53 205<486 886 486 922> 793 199<1118 1177>
AnchorPoint: "Anchor-4" 590 0 basechar 0
AnchorPoint: "Anchor-3" 559 1366 basechar 0
LayerCount: 2
Fore
SplineSet
352 1427 m 1
 307 1477 l 1
 498 1696 l 2
 516 1716 536 1729 561 1729 c 0
 586 1729 607 1719 625 1696 c 2
 813 1477 l 1
 766 1427 l 1
 559 1585 l 1
 352 1427 l 1
578 -14 m 0
 222 -14 53 207 53 684 c 0
 53 1159 224 1384 584 1384 c 0
 820 1384 991 1270 991 1114 c 0
 991 1024 938 952 872 952 c 0
 819 952 770 985 754 1032 c 1
 781 1069 793 1102 793 1135 c 0
 793 1219 711 1274 584 1274 c 0
 363 1274 258 1087 258 684 c 0
 258 289 361 109 584 109 c 0
 736 109 881 194 944 276 c 1
 1016 199 l 1
 959 129 805 -14 578 -14 c 0
EndSplineSet
EndChar

StartChar: Cdotaccent
Encoding: 266 266 73
Width: 1062
GlyphClass: 2
Flags: HMW
HStem: -14 123<472 659 472 691> 1274 111<473 647> 1464 238<522 595>
VStem: 53 205<486 886 486 922> 453 215<1545 1621> 793 199<1118 1177>
AnchorPoint: "Anchor-4" 590 0 basechar 0
AnchorPoint: "Anchor-3" 559 1366 basechar 0
LayerCount: 2
Fore
SplineSet
559 1464 m 0
 485 1464 453 1507 453 1583 c 0
 453 1659 485 1702 559 1702 c 0
 631 1702 668 1659 668 1583 c 0
 668 1507 631 1464 559 1464 c 0
578 -14 m 0
 222 -14 53 207 53 684 c 0
 53 1159 224 1384 584 1384 c 0
 820 1384 991 1270 991 1114 c 0
 991 1024 938 952 872 952 c 0
 819 952 770 985 754 1032 c 1
 781 1069 793 1102 793 1135 c 0
 793 1219 711 1274 584 1274 c 0
 363 1274 258 1087 258 684 c 0
 258 289 361 109 584 109 c 0
 736 109 881 194 944 276 c 1
 1016 199 l 1
 959 129 805 -14 578 -14 c 0
EndSplineSet
EndChar

StartChar: Dcaron
Encoding: 270 270 74
Width: 1280
GlyphClass: 2
Flags: HMW
HStem: 0 76<63 74 74 74 74 500> 0 100<63 690> 1264 102<442 512 512 541 442 442> 1292 74<61 512>
VStem: 260 182<129 1237 1237 1237> 1022 205<462 903>
AnchorPoint: "Anchor-3" 643 1366 basechar 0
LayerCount: 2
Fore
SplineSet
643 1430 m 0x6c
 618 1430 598 1442 580 1462 c 2
 391 1679 l 1
 436 1731 l 1
 643 1573 l 1
 852 1731 l 1
 897 1679 l 1
 707 1462 l 2
 689 1439 668 1430 643 1430 c 0x6c
63 0 m 1
 74 76 l 1
 140 84 203 94 260 129 c 1
 260 1237 l 1
 201 1270 127 1284 61 1292 c 1x9c
 72 1366 l 1
 512 1366 l 2
 981 1366 1227 1165 1227 682 c 0
 1227 197 983 0 500 0 c 2
 63 0 l 1
535 100 m 0x6c
 846 100 1022 240 1022 684 c 0
 1022 1122 850 1264 541 1264 c 2
 442 1264 l 1
 442 109 l 1
 469 103 506 100 535 100 c 0x6c
EndSplineSet
EndChar

StartChar: Dcroat
Encoding: 272 272 75
Width: 1355
GlyphClass: 2
Flags: HMW
HStem: 0 76<74 74 74 500 63 74> 0 100<63 690> 621 90<125 260 125 260 442 694> 1264 102<442 512 512 541 442 442> 1292 74<61 512>
VStem: 260 182<129 621 109 621 711 1237 1237 1237> 1022 205<462 903>
AnchorPoint: "Anchor-3" 643 1366 basechar 0
LayerCount: 2
Fore
SplineSet
512 1366 m 2x76
 981 1366 1227 1165 1227 682 c 0
 1227 197 983 0 500 0 c 2
 63 0 l 1x76
 74 76 l 1
 140 84 203 94 260 129 c 1
 260 621 l 1
 125 621 l 1
 125 711 l 1
 260 711 l 1
 260 1237 l 1
 201 1270 127 1284 61 1292 c 1xae
 72 1366 l 1
 512 1366 l 2x76
535 100 m 0
 846 100 1022 240 1022 684 c 0
 1022 1122 850 1264 541 1264 c 2
 442 1264 l 1
 442 711 l 1
 694 711 l 1
 694 621 l 1
 442 621 l 1
 442 109 l 1
 469 103 506 100 535 100 c 0
EndSplineSet
EndChar

StartChar: Eth
Encoding: 208 208 76
Width: 1355
GlyphClass: 2
Flags: HMW
HStem: 0 76<74 74 74 500 63 74> 0 100<63 690> 623 90<123 260 123 260 442 692> 1264 102<442 512 512 541 442 442> 1292 74<61 512>
VStem: 260 182<129 623 109 623 713 1237 1237 1237> 1022 205<462 903>
AnchorPoint: "Anchor-3" 643 1366 basechar 0
LayerCount: 2
Fore
SplineSet
512 1366 m 2x76
 981 1366 1227 1165 1227 682 c 0
 1227 197 983 0 500 0 c 2
 63 0 l 1x76
 74 76 l 1
 140 84 203 94 260 129 c 1
 260 623 l 1
 123 623 l 1
 123 713 l 1
 260 713 l 1
 260 1237 l 1
 201 1270 127 1284 61 1292 c 1xae
 72 1366 l 1
 512 1366 l 2x76
535 100 m 0
 846 100 1022 240 1022 684 c 0
 1022 1122 850 1264 541 1264 c 2
 442 1264 l 1
 442 713 l 1
 692 713 l 1
 692 623 l 1
 442 623 l 1
 442 109 l 1
 469 103 506 100 535 100 c 0
EndSplineSet
EndChar

StartChar: Eacute
Encoding: 201 201 77
Width: 1105
GlyphClass: 2
Flags: HMW
HStem: 0 76<61 74 74 74 74 1030> 0 119<442 879 442 1030> 645 105 1044 322<939 954> 1257 109<442 827 442 442> 1292 74<61 985>
VStem: 262 180<131 651 745 1237 1237 1237> 788 66<487 893 487 893> 967 73
AnchorPoint: "Anchor-3" 555 1366 basechar 0
AnchorPoint: "Anchor-2" 991 0 basechar 0
LayerCount: 2
Fore
SplineSet
498 1423 m 1x6b80
 453 1473 l 1
 623 1710 l 2
 641 1735 659 1745 688 1745 c 0
 727 1745 762 1710 762 1673 c 0
 762 1640 744 1618 711 1593 c 2
 498 1423 l 1x6b80
61 0 m 1
 74 76 l 1
 142 84 229 106 262 131 c 1
 262 1237 l 1
 203 1268 129 1284 61 1292 c 1xa780
 72 1366 l 1
 985 1366 l 1x6b80
 1001 1055 l 1
 985 1049 964 1044 944 1044 c 0
 934 1044 923 1047 913 1049 c 1x7380
 901 1112 878 1194 827 1257 c 1
 442 1257 l 1
 442 745 l 1
 674 756 l 2
 737 758 768 821 788 893 c 1
 854 893 l 1
 854 487 l 1
 788 487 l 1
 757 600 738 635 668 639 c 2
 442 651 l 1
 442 119 l 1
 879 119 l 1
 932 193 955 282 967 350 c 1
 979 352 994 354 1006 354 c 0
 1020 354 1033 352 1049 350 c 1
 1030 0 l 1
 61 0 l 1
EndSplineSet
EndChar

StartChar: Ebreve
Encoding: 276 276 78
Width: 1105
GlyphClass: 2
Flags: HMW
HStem: 0 76<61 74 74 74 74 1030> 0 119<442 879 442 1030> 645 105 1044 322<939 954> 1257 109<442 827 442 442> 1292 74<61 985> 1448 111<509 602 509 624>
VStem: 262 180<131 651 745 1237 1237 1237> 315 80 717 78 788 66<487 893 487 893> 967 73
AnchorPoint: "Anchor-3" 555 1366 basechar 0
AnchorPoint: "Anchor-2" 991 0 basechar 0
LayerCount: 2
Fore
SplineSet
555 1448 m 0x6ad0
 418 1448 323 1545 315 1690 c 1
 340 1698 362 1704 395 1704 c 1
 401 1618 463 1559 555 1559 c 0
 649 1559 711 1618 717 1704 c 1
 750 1704 772 1700 795 1692 c 1
 789 1545 692 1448 555 1448 c 0x6ad0
61 0 m 1
 74 76 l 1
 142 84 229 106 262 131 c 1
 262 1237 l 1
 203 1268 129 1284 61 1292 c 1xa730
 72 1366 l 1
 985 1366 l 1x6b30
 1001 1055 l 1
 985 1049 964 1044 944 1044 c 0
 934 1044 923 1047 913 1049 c 1x7330
 901 1112 878 1194 827 1257 c 1
 442 1257 l 1
 442 745 l 1
 674 756 l 2
 737 758 768 821 788 893 c 1
 854 893 l 1
 854 487 l 1
 788 487 l 1
 757 600 738 635 668 639 c 2
 442 651 l 1
 442 119 l 1x6b30
 879 119 l 1
 932 193 955 282 967 350 c 1
 979 352 994 354 1006 354 c 0
 1020 354 1033 352 1049 350 c 1
 1030 0 l 1
 61 0 l 1
EndSplineSet
EndChar

StartChar: Ecaron
Encoding: 282 282 79
Width: 1105
GlyphClass: 2
Flags: HMW
HStem: 0 76<61 74 74 74 74 1030> 0 119<442 879 442 1030> 645 105 1044 322<939 954> 1257 109<442 827 442 442> 1292 74<61 985>
VStem: 262 180<131 651 745 1237 1237 1237> 788 66<487 893 487 893> 967 73
AnchorPoint: "Anchor-3" 555 1366 basechar 0
AnchorPoint: "Anchor-2" 991 0 basechar 0
LayerCount: 2
Fore
SplineSet
555 1430 m 0x6b80
 530 1430 510 1442 492 1462 c 2
 303 1679 l 1
 348 1731 l 1
 555 1573 l 1
 764 1731 l 1
 809 1679 l 1
 618 1462 l 2
 600 1439 580 1430 555 1430 c 0x6b80
61 0 m 1
 74 76 l 1
 142 84 229 106 262 131 c 1
 262 1237 l 1
 203 1268 129 1284 61 1292 c 1xa780
 72 1366 l 1
 985 1366 l 1x6b80
 1001 1055 l 1
 985 1049 964 1044 944 1044 c 0
 934 1044 923 1047 913 1049 c 1x7380
 901 1112 878 1194 827 1257 c 1
 442 1257 l 1
 442 745 l 1
 674 756 l 2
 737 758 768 821 788 893 c 1
 854 893 l 1
 854 487 l 1
 788 487 l 1
 757 600 738 635 668 639 c 2
 442 651 l 1
 442 119 l 1
 879 119 l 1
 932 193 955 282 967 350 c 1
 979 352 994 354 1006 354 c 0
 1020 354 1033 352 1049 350 c 1
 1030 0 l 1
 61 0 l 1
EndSplineSet
EndChar

StartChar: Ecircumflex
Encoding: 202 202 80
Width: 1105
GlyphClass: 2
Flags: HMW
HStem: 0 76<61 74 74 74 74 1030> 0 119<442 879 442 1030> 645 105 1044 322<939 954> 1257 109<442 827 442 442> 1292 74<61 985>
VStem: 262 180<131 651 745 1237 1237 1237> 788 66<487 893 487 893> 967 73
AnchorPoint: "Anchor-3" 555 1366 basechar 0
AnchorPoint: "Anchor-2" 991 0 basechar 0
LayerCount: 2
Fore
SplineSet
348 1427 m 1x6b80
 303 1477 l 1
 494 1696 l 2
 512 1716 532 1729 557 1729 c 0
 582 1729 603 1719 621 1696 c 2
 809 1477 l 1
 762 1427 l 1
 555 1585 l 1
 348 1427 l 1x6b80
61 0 m 1
 74 76 l 1
 142 84 229 106 262 131 c 1
 262 1237 l 1
 203 1268 129 1284 61 1292 c 1xa780
 72 1366 l 1
 985 1366 l 1x6b80
 1001 1055 l 1
 985 1049 964 1044 944 1044 c 0
 934 1044 923 1047 913 1049 c 1x7380
 901 1112 878 1194 827 1257 c 1
 442 1257 l 1
 442 745 l 1
 674 756 l 2
 737 758 768 821 788 893 c 1
 854 893 l 1
 854 487 l 1
 788 487 l 1
 757 600 738 635 668 639 c 2
 442 651 l 1
 442 119 l 1
 879 119 l 1
 932 193 955 282 967 350 c 1
 979 352 994 354 1006 354 c 0
 1020 354 1033 352 1049 350 c 1
 1030 0 l 1
 61 0 l 1
EndSplineSet
EndChar

StartChar: Edieresis
Encoding: 203 203 81
Width: 1105
GlyphClass: 2
Flags: HMW
HStem: 0 76<61 74 74 74 74 1030> 0 119<442 879 442 1030> 645 105 1044 322<939 954> 1257 109<442 827 442 442> 1292 74<61 985> 1481 215<351 417 692 758>
VStem: 262 180<131 651 745 1237 1237 1237> 289 193<1554 1623> 631 193<1554 1623> 788 66<487 893 487 893> 967 73
AnchorPoint: "Anchor-3" 555 1366 basechar 0
AnchorPoint: "Anchor-2" 991 0 basechar 0
LayerCount: 2
Fore
SplineSet
385 1481 m 0x6ad0
 317 1481 289 1519 289 1589 c 0
 289 1657 317 1696 385 1696 c 0
 448 1696 481 1657 481 1589 c 0
 481 1519 448 1481 385 1481 c 0x6ad0
725 1481 m 0
 659 1481 631 1519 631 1589 c 0
 631 1657 659 1696 725 1696 c 0
 791 1696 823 1657 823 1589 c 0
 823 1519 791 1481 725 1481 c 0
61 0 m 1
 74 76 l 1
 142 84 229 106 262 131 c 1
 262 1237 l 1
 203 1268 129 1284 61 1292 c 1xa530
 72 1366 l 1
 985 1366 l 1x6930
 1001 1055 l 1
 985 1049 964 1044 944 1044 c 0
 934 1044 923 1047 913 1049 c 1x7130
 901 1112 878 1194 827 1257 c 1
 442 1257 l 1
 442 745 l 1
 674 756 l 2
 737 758 768 821 788 893 c 1
 854 893 l 1
 854 487 l 1
 788 487 l 1
 757 600 738 635 668 639 c 2
 442 651 l 1
 442 119 l 1x6930
 879 119 l 1
 932 193 955 282 967 350 c 1
 979 352 994 354 1006 354 c 0
 1020 354 1033 352 1049 350 c 1
 1030 0 l 1
 61 0 l 1
EndSplineSet
EndChar

StartChar: Edotaccent
Encoding: 278 278 82
Width: 1105
GlyphClass: 2
Flags: HMW
HStem: 0 76<61 74 74 74 74 1030> 0 119<442 879 442 1030> 645 105 1044 322<939 954> 1257 109<442 827 442 442> 1292 74<61 985> 1464 238<518 591>
VStem: 262 180<131 651 745 1237 1237 1237> 449 215<1545 1621> 788 66<487 893 487 893> 967 73
AnchorPoint: "Anchor-3" 555 1366 basechar 0
AnchorPoint: "Anchor-2" 991 0 basechar 0
LayerCount: 2
Fore
SplineSet
555 1464 m 0x6ae0
 481 1464 449 1507 449 1583 c 0
 449 1659 481 1702 555 1702 c 0
 627 1702 664 1659 664 1583 c 0
 664 1507 627 1464 555 1464 c 0x6ae0
61 0 m 1
 74 76 l 1
 142 84 229 106 262 131 c 1
 262 1237 l 1
 203 1268 129 1284 61 1292 c 1xa560
 72 1366 l 1
 985 1366 l 1x6960
 1001 1055 l 1
 985 1049 964 1044 944 1044 c 0
 934 1044 923 1047 913 1049 c 1x7160
 901 1112 878 1194 827 1257 c 1
 442 1257 l 1
 442 745 l 1
 674 756 l 2
 737 758 768 821 788 893 c 1
 854 893 l 1
 854 487 l 1
 788 487 l 1
 757 600 738 635 668 639 c 2
 442 651 l 1
 442 119 l 1x6960
 879 119 l 1
 932 193 955 282 967 350 c 1
 979 352 994 354 1006 354 c 0
 1020 354 1033 352 1049 350 c 1
 1030 0 l 1
 61 0 l 1
EndSplineSet
EndChar

StartChar: Egrave
Encoding: 200 200 83
Width: 1105
GlyphClass: 2
Flags: HMW
HStem: 0 76<61 74 74 74 74 1030> 0 119<442 879 442 1030> 645 105 1044 322<939 954> 1257 109<442 827 442 442> 1292 74<61 985>
VStem: 262 180<131 651 745 1237 1237 1237> 788 66<487 893 487 893> 967 73
AnchorPoint: "Anchor-3" 555 1366 basechar 0
AnchorPoint: "Anchor-2" 991 0 basechar 0
LayerCount: 2
Fore
SplineSet
610 1425 m 1x6b80
 401 1595 l 2
 370 1622 350 1642 350 1675 c 0
 350 1712 385 1747 424 1747 c 0
 453 1747 471 1737 489 1712 c 2
 659 1475 l 1
 610 1425 l 1x6b80
61 0 m 1
 74 76 l 1
 142 84 229 106 262 131 c 1
 262 1237 l 1
 203 1268 129 1284 61 1292 c 1xa780
 72 1366 l 1
 985 1366 l 1x6b80
 1001 1055 l 1
 985 1049 964 1044 944 1044 c 0
 934 1044 923 1047 913 1049 c 1x7380
 901 1112 878 1194 827 1257 c 1
 442 1257 l 1
 442 745 l 1
 674 756 l 2
 737 758 768 821 788 893 c 1
 854 893 l 1
 854 487 l 1
 788 487 l 1
 757 600 738 635 668 639 c 2
 442 651 l 1
 442 119 l 1
 879 119 l 1
 932 193 955 282 967 350 c 1
 979 352 994 354 1006 354 c 0
 1020 354 1033 352 1049 350 c 1
 1030 0 l 1
 61 0 l 1
EndSplineSet
EndChar

StartChar: Emacron
Encoding: 274 274 84
Width: 1105
GlyphClass: 2
Flags: HMW
HStem: 0 76<61 74 74 74 74 1030> 0 119<442 879 442 1030> 645 105 1044 322<939 954> 1257 109<442 827 442 442> 1292 74<61 985> 1552 90<270 840 270 840>
VStem: 262 180<131 651 745 1237 1237 1237> 788 66<487 893 487 893> 967 73
AnchorPoint: "Anchor-3" 555 1366 basechar 0
AnchorPoint: "Anchor-2" 991 0 basechar 0
LayerCount: 2
Fore
SplineSet
270 1552 m 1x6bc0
 270 1642 l 1
 840 1642 l 1
 840 1552 l 1
 270 1552 l 1x6bc0
61 0 m 1
 74 76 l 1
 142 84 229 106 262 131 c 1
 262 1237 l 1
 203 1268 129 1284 61 1292 c 1xa7c0
 72 1366 l 1
 985 1366 l 1x6bc0
 1001 1055 l 1
 985 1049 964 1044 944 1044 c 0
 934 1044 923 1047 913 1049 c 1x73c0
 901 1112 878 1194 827 1257 c 1
 442 1257 l 1
 442 745 l 1
 674 756 l 2
 737 758 768 821 788 893 c 1
 854 893 l 1
 854 487 l 1
 788 487 l 1
 757 600 738 635 668 639 c 2
 442 651 l 1
 442 119 l 1
 879 119 l 1
 932 193 955 282 967 350 c 1
 979 352 994 354 1006 354 c 0
 1020 354 1033 352 1049 350 c 1
 1030 0 l 1
 61 0 l 1
EndSplineSet
EndChar

StartChar: Eogonek
Encoding: 280 280 85
Width: 1105
GlyphClass: 2
Flags: HMW
HStem: -418 92<849 859> 0 76<74 74 74 811 61 74> 0 119<442 811 442 1030 442 989> 645 105 1044 322<939 954> 1257 109<442 827 442 442> 1292 74<61 985>
VStem: 262 180<131 651 745 1237 1237 1237> 649 139<-261 -229> 788 66<487 893 487 893> 967 73
AnchorPoint: "Anchor-3" 555 1366 basechar 0
AnchorPoint: "Anchor-2" 991 0 basechar 0
LayerCount: 2
Fore
SplineSet
989 0 m 1x35a0
 860 -33 788 -143 788 -227 c 0
 788 -295 823 -326 874 -326 c 0
 901 -326 934 -318 975 -295 c 1
 1010 -338 l 1
 961 -391 890 -418 827 -418 c 0
 729 -418 649 -358 649 -264 c 0
 649 -194 696 -133 731 -94 c 0
 760 -61 788 -33 811 0 c 1
 61 0 l 1xb5a0
 74 76 l 1
 142 84 229 106 262 131 c 1
 262 1237 l 1
 203 1268 129 1284 61 1292 c 1x5360
 72 1366 l 1
 985 1366 l 1x3560
 1001 1055 l 1
 985 1049 964 1044 944 1044 c 0
 934 1044 923 1047 913 1049 c 1x3960
 901 1112 878 1194 827 1257 c 1
 442 1257 l 1
 442 745 l 1
 674 756 l 2
 737 758 768 821 788 893 c 1
 854 893 l 1
 854 487 l 1
 788 487 l 1
 757 600 738 635 668 639 c 2x3560
 442 651 l 1
 442 119 l 1
 879 119 l 1
 932 193 955 282 967 350 c 1
 979 352 994 354 1006 354 c 0
 1020 354 1033 352 1049 350 c 1
 1030 0 l 1
 989 0 l 1x35a0
EndSplineSet
EndChar

StartChar: uni1EBC
Encoding: 7868 7868 86
Width: 1105
GlyphClass: 2
Flags: HMW
HStem: 0 76<61 74 74 74 74 1030> 0 119<442 879 442 1030> 645 105 1044 322<939 954> 1257 109<442 827 442 442> 1292 74<61 985> 1497 127<634 702 634 727> 1569 127<408 476>
VStem: 262 180<131 651 745 1237 1237 1237> 788 66<487 893 487 893> 967 73
AnchorPoint: "Anchor-3" 555 1366 basechar 0
AnchorPoint: "Anchor-2" 991 0 basechar 0
LayerCount: 2
Fore
SplineSet
301 1497 m 1x69e0
 272 1505 254 1520 236 1536 c 1
 259 1591 327 1696 440 1696 c 0x69e0
 530 1696 594 1624 674 1624 c 0
 731 1624 770 1661 809 1700 c 1
 838 1690 857 1677 877 1661 c 1
 852 1606 778 1497 676 1497 c 0x6ae0
 576 1497 518 1569 434 1569 c 0
 381 1569 340 1536 301 1497 c 1x69e0
61 0 m 1
 74 76 l 1
 142 84 229 106 262 131 c 1
 262 1237 l 1
 203 1268 129 1284 61 1292 c 1xa5e0
 72 1366 l 1
 985 1366 l 1x69e0
 1001 1055 l 1
 985 1049 964 1044 944 1044 c 0
 934 1044 923 1047 913 1049 c 1x71e0
 901 1112 878 1194 827 1257 c 1
 442 1257 l 1
 442 745 l 1
 674 756 l 2
 737 758 768 821 788 893 c 1
 854 893 l 1
 854 487 l 1
 788 487 l 1
 757 600 738 635 668 639 c 2
 442 651 l 1
 442 119 l 1
 879 119 l 1
 932 193 955 282 967 350 c 1
 979 352 994 354 1006 354 c 0
 1020 354 1033 352 1049 350 c 1
 1030 0 l 1
 61 0 l 1
EndSplineSet
EndChar

StartChar: Gbreve
Encoding: 286 286 87
Width: 1103
GlyphClass: 2
Flags: HMW
HStem: -14 109<459 673 459 683> 571 85 1274 111<462 677> 1448 111<544 637 544 658>
VStem: 53 207<528 841 528 898> 350 80 752 78 844 201<1119 1182> 862 182<170 528 528 528>
AnchorPoint: "Anchor-5" 590 0 basechar 0
AnchorPoint: "Anchor-3" 590 1366 basechar 0
LayerCount: 2
Fore
SplineSet
590 1448 m 0xfc80
 453 1448 358 1545 350 1690 c 1
 375 1698 397 1704 430 1704 c 1
 436 1618 498 1559 590 1559 c 0
 684 1559 746 1618 752 1704 c 1
 785 1704 806 1700 829 1692 c 1xfe80
 823 1545 727 1448 590 1448 c 0xfc80
610 -14 m 0
 188 -14 53 258 53 684 c 0
 53 1112 194 1384 612 1384 c 0
 800 1384 1044 1307 1044 1114 c 0
 1044 1016 987 952 924 952 c 0
 869 952 821 987 805 1032 c 1
 832 1071 844 1104 844 1135 c 0xfd
 844 1229 739 1274 614 1274 c 0
 309 1274 260 997 260 684 c 0
 260 373 307 94 610 94 c 0
 735 94 833 145 862 170 c 1
 862 528 l 1
 801 553 737 565 653 571 c 1
 662 647 l 1
 1044 666 l 1
 1044 86 l 1
 929 23 755 -14 610 -14 c 0
EndSplineSet
EndChar

StartChar: Gcircumflex
Encoding: 284 284 88
Width: 1103
GlyphClass: 2
Flags: HMW
HStem: -14 109<459 673 459 683> 571 85 1274 111<462 677>
VStem: 53 207<528 841 528 898> 844 201<1119 1182> 862 182<170 528 528 528>
AnchorPoint: "Anchor-5" 590 0 basechar 0
AnchorPoint: "Anchor-3" 590 1366 basechar 0
LayerCount: 2
Fore
SplineSet
383 1427 m 1xf4
 338 1477 l 1
 528 1696 l 2
 546 1716 567 1729 592 1729 c 0
 617 1729 637 1719 655 1696 c 2
 844 1477 l 1
 797 1427 l 1
 590 1585 l 1
 383 1427 l 1xf4
610 -14 m 0
 188 -14 53 258 53 684 c 0
 53 1112 194 1384 612 1384 c 0
 800 1384 1044 1307 1044 1114 c 0
 1044 1016 987 952 924 952 c 0
 869 952 821 987 805 1032 c 1
 832 1071 844 1104 844 1135 c 0xf8
 844 1229 739 1274 614 1274 c 0
 309 1274 260 997 260 684 c 0
 260 373 307 94 610 94 c 0
 735 94 833 145 862 170 c 1
 862 528 l 1
 801 553 737 565 653 571 c 1
 662 647 l 1
 1044 666 l 1
 1044 86 l 1
 929 23 755 -14 610 -14 c 0
EndSplineSet
EndChar

StartChar: uni0122
Encoding: 290 290 89
Width: 1103
GlyphClass: 2
Flags: HMW
HStem: -432 43G<569 569> -14 109<459 673 459 683> 571 85 1274 111<462 677>
VStem: 53 207<528 841 528 898> 543 139<-210 -205> 844 201<1119 1182> 862 182<170 528 528 528>
AnchorPoint: "Anchor-5" 590 0 basechar 0
AnchorPoint: "Anchor-3" 590 1366 basechar 0
LayerCount: 2
Fore
SplineSet
610 -14 m 0xf9
 188 -14 53 258 53 684 c 0
 53 1112 194 1384 612 1384 c 0
 800 1384 1044 1307 1044 1114 c 0
 1044 1016 987 952 924 952 c 0
 869 952 821 987 805 1032 c 1
 832 1071 844 1104 844 1135 c 0xfa
 844 1229 739 1274 614 1274 c 0
 309 1274 260 997 260 684 c 0
 260 373 307 94 610 94 c 0
 735 94 833 145 862 170 c 1
 862 528 l 1
 801 553 737 565 653 571 c 1
 662 647 l 1
 1044 666 l 1
 1044 86 l 1
 929 23 755 -14 610 -14 c 0xf9
569 -432 m 1xfd
 506 -406 l 1
 533 -336 543 -274 543 -231 c 0
 543 -178 529 -148 498 -121 c 1
 521 -88 551 -76 578 -76 c 0
 639 -76 682 -115 682 -172 c 0
 682 -248 632 -348 569 -432 c 1xfd
EndSplineSet
EndChar

StartChar: Gdotaccent
Encoding: 288 288 90
Width: 1103
GlyphClass: 2
Flags: HMW
HStem: -14 109<459 673 459 683> 571 85 1274 111<462 677> 1464 238<553 626>
VStem: 53 207<528 841 528 898> 483 215<1545 1621> 844 201<1119 1182> 862 182<170 528 528 528>
AnchorPoint: "Anchor-5" 590 0 basechar 0
AnchorPoint: "Anchor-3" 590 1366 basechar 0
LayerCount: 2
Fore
SplineSet
590 1464 m 0xfd
 516 1464 483 1507 483 1583 c 0
 483 1659 516 1702 590 1702 c 0
 662 1702 698 1659 698 1583 c 0
 698 1507 662 1464 590 1464 c 0xfd
610 -14 m 0
 188 -14 53 258 53 684 c 0
 53 1112 194 1384 612 1384 c 0
 800 1384 1044 1307 1044 1114 c 0
 1044 1016 987 952 924 952 c 0
 869 952 821 987 805 1032 c 1
 832 1071 844 1104 844 1135 c 0xfe
 844 1229 739 1274 614 1274 c 0
 309 1274 260 997 260 684 c 0
 260 373 307 94 610 94 c 0
 735 94 833 145 862 170 c 1
 862 528 l 1
 801 553 737 565 653 571 c 1
 662 647 l 1
 1044 666 l 1
 1044 86 l 1
 929 23 755 -14 610 -14 c 0
EndSplineSet
EndChar

StartChar: Hbar
Encoding: 294 294 91
Width: 1415
GlyphClass: 2
Flags: HMW
HStem: 0 76<78 78 78 627 66 78> 649 104<436 999 436 999> 930 90<63 256 63 256 436 999 1180 1337> 1292 74<66 637 625 625 1358 1358>
VStem: 256 180<131 649 754 930 1020 1237> 999 180<131 649 649 649 754 930 131 930 1020 1237>
AnchorPoint: "Anchor-3" 717 1366 basechar 0
LayerCount: 2
Fore
SplineSet
1180 930 m 1
 1180 131 l 1
 1239 96 1300 84 1368 76 c 1
 1360 0 l 1
 799 0 l 1
 811 76 l 1
 879 84 940 96 999 131 c 1
 999 649 l 1
 436 649 l 1
 436 131 l 1
 495 98 567 84 637 76 c 1
 627 0 l 1
 66 0 l 1
 78 76 l 1
 144 84 197 96 256 131 c 1
 256 930 l 1
 63 930 l 1
 63 1020 l 1
 256 1020 l 1
 256 1237 l 1
 197 1268 136 1284 66 1292 c 1
 76 1366 l 1
 637 1366 l 1
 625 1292 l 1
 557 1284 495 1270 436 1237 c 1
 436 1020 l 1
 999 1020 l 1
 999 1237 l 1
 940 1268 869 1284 799 1292 c 1
 809 1366 l 1
 1368 1366 l 1
 1358 1292 l 1
 1292 1284 1239 1270 1180 1237 c 1
 1180 1020 l 1
 1337 1020 l 1
 1337 930 l 1
 1180 930 l 1
436 754 m 1
 999 754 l 1
 999 930 l 1
 436 930 l 1
 436 754 l 1
EndSplineSet
EndChar

StartChar: Hcircumflex
Encoding: 292 292 92
Width: 1425
GlyphClass: 2
Flags: HMW
HStem: 0 76<61 74 74 74 74 623> 649 104<432 995 432 995> 1292 74<61 633 621 621 1354 1354>
VStem: 252 180<131 649 754 1237> 995 180<131 649 649 649 754 1237 131 1237>
AnchorPoint: "Anchor-3" 713 1366 basechar 0
LayerCount: 2
Fore
SplineSet
506 1427 m 1
 461 1477 l 1
 651 1696 l 2
 669 1716 690 1729 715 1729 c 0
 740 1729 760 1719 778 1696 c 2
 967 1477 l 1
 920 1427 l 1
 713 1585 l 1
 506 1427 l 1
61 0 m 1
 74 76 l 1
 140 84 193 96 252 131 c 1
 252 1237 l 1
 193 1268 131 1284 61 1292 c 1
 72 1366 l 1
 633 1366 l 1
 621 1292 l 1
 553 1284 491 1270 432 1237 c 1
 432 754 l 1
 995 754 l 1
 995 1237 l 1
 936 1268 865 1284 795 1292 c 1
 805 1366 l 1
 1364 1366 l 1
 1354 1292 l 1
 1288 1284 1235 1270 1176 1237 c 1
 1176 131 l 1
 1235 96 1296 84 1364 76 c 1
 1356 0 l 1
 795 0 l 1
 807 76 l 1
 875 84 936 96 995 131 c 1
 995 649 l 1
 432 649 l 1
 432 131 l 1
 491 98 563 84 633 76 c 1
 623 0 l 1
 61 0 l 1
EndSplineSet
EndChar

StartChar: Iacute
Encoding: 205 205 93
Width: 702
GlyphClass: 2
Flags: HMW
HStem: 0 76<61 74 74 74 74 631> 1292 74<61 639 629 629>
VStem: 262 180<131 1237 131 1237>
AnchorPoint: "Anchor-3" 352 1366 basechar 0
AnchorPoint: "Anchor-2" 395 0 basechar 0
LayerCount: 2
Fore
SplineSet
295 1423 m 1
 250 1473 l 1
 420 1710 l 2
 438 1735 456 1745 485 1745 c 0
 524 1745 559 1710 559 1673 c 0
 559 1640 541 1618 508 1593 c 2
 295 1423 l 1
61 0 m 1
 74 76 l 1
 140 84 203 96 262 131 c 1
 262 1237 l 1
 203 1268 131 1284 61 1292 c 1
 72 1366 l 1
 639 1366 l 1
 629 1292 l 1
 563 1284 501 1270 442 1237 c 1
 442 131 l 1
 501 96 573 84 641 76 c 1
 631 0 l 1
 61 0 l 1
EndSplineSet
EndChar

StartChar: Ibreve
Encoding: 300 300 94
Width: 702
GlyphClass: 2
Flags: HMW
HStem: 0 76<61 74 74 74 74 631> 1292 74<61 639 629 629> 1448 111<306 399 306 421>
VStem: 113 80 262 180<131 1237 131 1237> 514 78
AnchorPoint: "Anchor-3" 352 1366 basechar 0
AnchorPoint: "Anchor-2" 395 0 basechar 0
LayerCount: 2
Fore
SplineSet
352 1448 m 0
 215 1448 121 1545 113 1690 c 1
 138 1698 160 1704 193 1704 c 1
 199 1618 260 1559 352 1559 c 0
 446 1559 508 1618 514 1704 c 1
 547 1704 569 1700 592 1692 c 1
 586 1545 489 1448 352 1448 c 0
61 0 m 1
 74 76 l 1
 140 84 203 96 262 131 c 1
 262 1237 l 1
 203 1268 131 1284 61 1292 c 1
 72 1366 l 1
 639 1366 l 1
 629 1292 l 1
 563 1284 501 1270 442 1237 c 1
 442 131 l 1
 501 96 573 84 641 76 c 1
 631 0 l 1
 61 0 l 1
EndSplineSet
EndChar

StartChar: Icircumflex
Encoding: 206 206 95
Width: 702
GlyphClass: 2
Flags: HMW
HStem: 0 76<61 74 74 74 74 631> 1292 74<61 639 629 629>
VStem: 262 180<131 1237 131 1237>
AnchorPoint: "Anchor-3" 352 1366 basechar 0
AnchorPoint: "Anchor-2" 395 0 basechar 0
LayerCount: 2
Fore
SplineSet
145 1427 m 1
 100 1477 l 1
 291 1696 l 2
 309 1716 329 1729 354 1729 c 0
 379 1729 400 1719 418 1696 c 2
 606 1477 l 1
 559 1427 l 1
 352 1585 l 1
 145 1427 l 1
61 0 m 1
 74 76 l 1
 140 84 203 96 262 131 c 1
 262 1237 l 1
 203 1268 131 1284 61 1292 c 1
 72 1366 l 1
 639 1366 l 1
 629 1292 l 1
 563 1284 501 1270 442 1237 c 1
 442 131 l 1
 501 96 573 84 641 76 c 1
 631 0 l 1
 61 0 l 1
EndSplineSet
EndChar

StartChar: Idieresis
Encoding: 207 207 96
Width: 702
GlyphClass: 2
Flags: HMW
HStem: 0 76<61 74 74 74 74 631> 1292 74<61 639 629 629> 1481 215<148 214 489 555>
VStem: 86 193<1554 1623> 262 180<131 1237 131 1237> 428 193<1554 1623>
AnchorPoint: "Anchor-3" 352 1366 basechar 0
AnchorPoint: "Anchor-2" 395 0 basechar 0
LayerCount: 2
Fore
SplineSet
182 1481 m 0xf4
 114 1481 86 1519 86 1589 c 0
 86 1657 114 1696 182 1696 c 0
 245 1696 279 1657 279 1589 c 0
 279 1519 245 1481 182 1481 c 0xf4
522 1481 m 0
 456 1481 428 1519 428 1589 c 0
 428 1657 456 1696 522 1696 c 0
 588 1696 621 1657 621 1589 c 0
 621 1519 588 1481 522 1481 c 0
61 0 m 1
 74 76 l 1
 140 84 203 96 262 131 c 1
 262 1237 l 1
 203 1268 131 1284 61 1292 c 1
 72 1366 l 1
 639 1366 l 1
 629 1292 l 1
 563 1284 501 1270 442 1237 c 1
 442 131 l 1
 501 96 573 84 641 76 c 1
 631 0 l 1xc8
 61 0 l 1
EndSplineSet
EndChar

StartChar: Idotaccent
Encoding: 304 304 97
Width: 702
GlyphClass: 2
Flags: HMW
HStem: 0 76<61 74 74 74 74 631> 1292 74<61 639 629 629> 1464 238<315 388>
VStem: 246 215<1545 1621> 262 180<131 1237 131 1237>
AnchorPoint: "Anchor-3" 352 1366 basechar 0
AnchorPoint: "Anchor-2" 395 0 basechar 0
LayerCount: 2
Fore
SplineSet
352 1464 m 0xf0
 278 1464 246 1507 246 1583 c 0
 246 1659 278 1702 352 1702 c 0
 424 1702 461 1659 461 1583 c 0
 461 1507 424 1464 352 1464 c 0xf0
61 0 m 1
 74 76 l 1
 140 84 203 96 262 131 c 1
 262 1237 l 1
 203 1268 131 1284 61 1292 c 1
 72 1366 l 1
 639 1366 l 1
 629 1292 l 1
 563 1284 501 1270 442 1237 c 1
 442 131 l 1
 501 96 573 84 641 76 c 1
 631 0 l 1xc8
 61 0 l 1
EndSplineSet
EndChar

StartChar: Igrave
Encoding: 204 204 98
Width: 702
GlyphClass: 2
Flags: HMW
HStem: 0 76<61 74 74 74 74 631> 1292 74<61 639 629 629>
VStem: 262 180<131 1237 131 1237>
AnchorPoint: "Anchor-3" 352 1366 basechar 0
AnchorPoint: "Anchor-2" 395 0 basechar 0
LayerCount: 2
Fore
SplineSet
408 1425 m 1
 199 1595 l 2
 168 1622 147 1642 147 1675 c 0
 147 1712 182 1747 221 1747 c 0
 250 1747 269 1737 287 1712 c 2
 457 1475 l 1
 408 1425 l 1
61 0 m 1
 74 76 l 1
 140 84 203 96 262 131 c 1
 262 1237 l 1
 203 1268 131 1284 61 1292 c 1
 72 1366 l 1
 639 1366 l 1
 629 1292 l 1
 563 1284 501 1270 442 1237 c 1
 442 131 l 1
 501 96 573 84 641 76 c 1
 631 0 l 1
 61 0 l 1
EndSplineSet
EndChar

StartChar: Imacron
Encoding: 298 298 99
Width: 702
GlyphClass: 2
Flags: HMW
HStem: 0 76<61 74 74 74 74 631> 1292 74<61 639 629 629> 1552 90<68 637 68 637>
VStem: 262 180<131 1237 131 1237>
AnchorPoint: "Anchor-3" 352 1366 basechar 0
AnchorPoint: "Anchor-2" 395 0 basechar 0
LayerCount: 2
Fore
SplineSet
68 1552 m 1
 68 1642 l 1
 637 1642 l 1
 637 1552 l 1
 68 1552 l 1
61 0 m 1
 74 76 l 1
 140 84 203 96 262 131 c 1
 262 1237 l 1
 203 1268 131 1284 61 1292 c 1
 72 1366 l 1
 639 1366 l 1
 629 1292 l 1
 563 1284 501 1270 442 1237 c 1
 442 131 l 1
 501 96 573 84 641 76 c 1
 631 0 l 1
 61 0 l 1
EndSplineSet
EndChar

StartChar: Iogonek
Encoding: 302 302 100
Width: 702
GlyphClass: 2
Flags: HMW
HStem: -418 92<253 263> 0 76<426 641> 1292 74<61 639 629 629>
VStem: 53 139<-261 -229> 262 180<145 1237 131 1237>
AnchorPoint: "Anchor-3" 352 1366 basechar 0
LayerCount: 2
Fore
SplineSet
231 -418 m 0
 133 -418 53 -358 53 -264 c 0
 53 -194 100 -133 135 -94 c 0
 207 -12 262 39 262 145 c 2
 262 1237 l 1
 203 1268 131 1284 61 1292 c 1
 72 1366 l 1
 639 1366 l 1
 629 1292 l 1
 563 1284 501 1270 442 1237 c 1
 442 131 l 1
 501 96 573 84 641 76 c 1
 631 0 l 1
 426 0 l 2
 285 0 193 -143 193 -227 c 0
 193 -295 228 -326 279 -326 c 0
 306 -326 338 -318 379 -295 c 1
 414 -338 l 1
 365 -391 294 -418 231 -418 c 0
EndSplineSet
EndChar

StartChar: Itilde
Encoding: 296 296 101
Width: 702
GlyphClass: 2
Flags: HMW
HStem: 0 76<61 74 74 74 74 631> 1292 74<61 639 629 629> 1497 127<431 500 431 524> 1569 127<205 273>
VStem: 262 180<131 1237 131 1237>
AnchorPoint: "Anchor-3" 352 1366 basechar 0
AnchorPoint: "Anchor-2" 395 0 basechar 0
LayerCount: 2
Fore
SplineSet
98 1497 m 1xd8
 69 1505 51 1520 33 1536 c 1
 56 1591 125 1696 238 1696 c 0xd8
 328 1696 391 1624 471 1624 c 0
 528 1624 567 1661 606 1700 c 1
 635 1690 654 1677 674 1661 c 1
 649 1606 575 1497 473 1497 c 0xe8
 373 1497 315 1569 231 1569 c 0
 178 1569 137 1536 98 1497 c 1xd8
61 0 m 1
 74 76 l 1
 140 84 203 96 262 131 c 1
 262 1237 l 1
 203 1268 131 1284 61 1292 c 1
 72 1366 l 1
 639 1366 l 1
 629 1292 l 1
 563 1284 501 1270 442 1237 c 1
 442 131 l 1
 501 96 573 84 641 76 c 1
 631 0 l 1
 61 0 l 1
EndSplineSet
EndChar

StartChar: Jcircumflex
Encoding: 308 308 102
Width: 622
GlyphClass: 2
Flags: HMW
HStem: 1292 74<25 602 592 592>
VStem: 225 180<2 33 33 1237>
AnchorPoint: "Anchor-3" 324 1366 basechar 0
LayerCount: 2
Fore
SplineSet
117 1427 m 1
 72 1477 l 1
 262 1696 l 2
 280 1716 301 1729 326 1729 c 0
 351 1729 371 1719 389 1696 c 2
 578 1477 l 1
 530 1427 l 1
 324 1585 l 1
 117 1427 l 1
6 -406 m 1
 -16 -344 l 1
 105 -289 225 -201 225 2 c 2
 225 1237 l 1
 166 1268 95 1284 25 1292 c 1
 35 1366 l 1
 602 1366 l 1
 592 1292 l 1
 524 1284 463 1270 406 1237 c 1
 406 33 l 2
 406 -219 246 -343 6 -406 c 1
EndSplineSet
EndChar

StartChar: uni0136
Encoding: 310 310 103
Width: 1290
GlyphClass: 2
Flags: HMW
HStem: -432 43G<709 709> 0 76<61 74 74 74 74 633> 0 78<932 1272> 1292 74<61 643 631 631 1219 1219>
VStem: 260 182<131 1237 131 1237> 682 139<-210 -205>
AnchorPoint: "Anchor-5" 729 0 basechar 0
LayerCount: 2
Fore
SplineSet
61 0 m 1xd8
 74 76 l 1
 142 84 203 96 260 131 c 1
 260 1237 l 1
 203 1268 129 1284 61 1292 c 1
 72 1366 l 1
 643 1366 l 1
 631 1292 l 1
 561 1284 501 1270 442 1237 c 1
 442 131 l 1
 501 98 573 84 643 76 c 1
 633 0 l 1
 61 0 l 1xd8
932 0 m 1
 930 35 913 78 899 98 c 2xd8
 463 713 l 1
 848 1192 l 2
 856 1208 860 1223 860 1233 c 0
 860 1270 805 1290 733 1292 c 1
 745 1366 l 1
 1227 1366 l 1
 1219 1292 l 1
 1162 1288 1091 1282 1032 1227 c 1
 651 750 l 1
 1098 131 l 1
 1133 106 1186 86 1272 78 c 1xb8
 1260 0 l 1
 932 0 l 1
709 -432 m 1xdc
 645 -406 l 1
 672 -336 682 -274 682 -231 c 0
 682 -178 668 -148 637 -121 c 1
 660 -88 690 -76 717 -76 c 0
 778 -76 821 -115 821 -172 c 0
 821 -248 772 -348 709 -432 c 1xdc
EndSplineSet
EndChar

StartChar: Lacute
Encoding: 313 313 104
Width: 1026
GlyphClass: 2
Flags: HMW
HStem: 0 76<61 74 74 74 74 975> 0 119<440 823 440 975> 1292 74<61 639 629 629>
VStem: 258 182<131 1237 119 1237> 911 73
AnchorPoint: "Anchor-5" 567 0 basechar 0
AnchorPoint: "Anchor-3" 352 1366 basechar 0
LayerCount: 2
Fore
SplineSet
295 1423 m 1x78
 250 1473 l 1
 420 1710 l 2
 438 1735 456 1745 485 1745 c 0
 524 1745 559 1710 559 1673 c 0
 559 1640 541 1618 508 1593 c 2
 295 1423 l 1x78
61 0 m 1
 74 76 l 1
 140 84 203 96 258 131 c 1xb8
 258 1237 l 1
 201 1268 127 1284 61 1292 c 1
 72 1366 l 1
 639 1366 l 1
 629 1292 l 1
 561 1284 499 1270 440 1237 c 1
 440 119 l 1
 823 119 l 1
 876 193 899 276 911 350 c 1
 921 354 934 356 948 356 c 0
 962 356 977 354 993 350 c 1
 975 0 l 1
 61 0 l 1
EndSplineSet
EndChar

StartChar: Lcaron
Encoding: 317 317 105
Width: 1026
GlyphClass: 2
Flags: HMW
HStem: 0 76<61 74 74 74 74 975> 0 119<440 823 440 975> 1292 74<61 639 629 629>
VStem: 258 182<131 1237 119 1237> 807 141<1211 1227> 911 73
AnchorPoint: "Anchor-5" 567 0 basechar 0
AnchorPoint: "Anchor-3" 352 1366 basechar 0
LayerCount: 2
Fore
SplineSet
61 0 m 1x74
 74 76 l 1
 140 84 203 96 258 131 c 1xb8
 258 1237 l 1
 201 1268 127 1284 61 1292 c 1
 72 1366 l 1
 639 1366 l 1
 629 1292 l 1
 561 1284 499 1270 440 1237 c 1
 440 119 l 1
 823 119 l 1
 876 193 899 276 911 350 c 1
 921 354 934 356 948 356 c 0
 962 356 977 354 993 350 c 1
 975 0 l 1
 61 0 l 1x74
834 963 m 1
 752 993 l 1
 791 1083 807 1149 807 1200 c 0
 807 1253 789 1285 758 1305 c 1
 772 1338 805 1364 848 1364 c 0
 909 1364 948 1314 948 1253 c 0
 948 1169 889 1053 834 963 c 1
EndSplineSet
EndChar

StartChar: uni013B
Encoding: 315 315 106
Width: 1026
GlyphClass: 2
Flags: HMW
HStem: -432 43G<547 547> 0 76<61 74 74 74 74 975> 0 119<440 823 440 975> 1292 74<61 639 629 629>
VStem: 258 182<131 1237 119 1237> 520 139<-210 -205> 911 73
AnchorPoint: "Anchor-5" 567 0 basechar 0
AnchorPoint: "Anchor-3" 352 1366 basechar 0
LayerCount: 2
Fore
SplineSet
61 0 m 1xba
 74 76 l 1
 140 84 203 96 258 131 c 1xde
 258 1237 l 1
 201 1268 127 1284 61 1292 c 1
 72 1366 l 1
 639 1366 l 1
 629 1292 l 1
 561 1284 499 1270 440 1237 c 1
 440 119 l 1
 823 119 l 1
 876 193 899 276 911 350 c 1
 921 354 934 356 948 356 c 0
 962 356 977 354 993 350 c 1
 975 0 l 1
 61 0 l 1xba
547 -432 m 1
 483 -406 l 1
 510 -336 520 -274 520 -231 c 0
 520 -178 506 -148 475 -121 c 1
 498 -88 528 -76 555 -76 c 0
 616 -76 659 -115 659 -172 c 0
 659 -248 610 -348 547 -432 c 1
EndSplineSet
EndChar

StartChar: Ldot
Encoding: 319 319 107
Width: 1026
GlyphClass: 2
Flags: HMW
HStem: 0 76<61 74 74 74 74 975> 0 119<440 823 440 975> 623 238<788 862> 1292 74<61 639 629 629>
VStem: 258 182<131 1237 119 1237> 717 217<706 777 705 778> 911 73
AnchorPoint: "Anchor-5" 567 0 basechar 0
AnchorPoint: "Anchor-3" 352 1366 basechar 0
LayerCount: 2
Fore
SplineSet
61 0 m 1x5a
 74 76 l 1
 140 84 203 96 258 131 c 1xbc
 258 1237 l 1
 201 1268 127 1284 61 1292 c 1
 72 1366 l 1
 639 1366 l 1
 629 1292 l 1
 561 1284 499 1270 440 1237 c 1
 440 119 l 1
 823 119 l 1
 876 193 899 276 911 350 c 1
 921 354 934 356 948 356 c 0
 962 356 977 354 993 350 c 1
 975 0 l 1
 61 0 l 1x5a
825 623 m 0
 751 623 717 669 717 741 c 0
 717 815 751 860 825 860 c 0
 899 860 934 813 934 741 c 0
 934 667 899 623 825 623 c 0
EndSplineSet
Ligature2: "Ligature Substitution lookup 11 subtable" L periodcentered
EndChar

StartChar: Lslash
Encoding: 321 321 108
Width: 1105
GlyphClass: 2
Flags: HMW
HStem: 0 76<33 33 33 934 20 33> 0 119<399 782 399 934> 1292 74<20 598 588 588>
VStem: 217 182<131 537 537 537 768 1237> 870 73
AnchorPoint: "Anchor-5" 526 0 basechar 0
AnchorPoint: "Anchor-3" 311 1366 basechar 0
LayerCount: 2
Fore
SplineSet
907 356 m 0x78
 921 356 936 354 952 350 c 1
 934 0 l 1
 20 0 l 1x78
 33 76 l 1
 99 84 162 96 217 131 c 1xb8
 217 537 l 1
 68 451 l 1
 12 545 l 1
 217 664 l 1
 217 1237 l 1
 160 1268 86 1284 20 1292 c 1
 31 1366 l 1
 598 1366 l 1
 588 1292 l 1
 520 1284 458 1270 399 1237 c 1
 399 768 l 1
 684 932 l 1
 739 838 l 1
 399 641 l 1
 399 119 l 1
 782 119 l 1
 835 193 858 276 870 350 c 1
 880 354 893 356 907 356 c 0x78
EndSplineSet
EndChar

StartChar: Nacute
Encoding: 323 323 109
Width: 1419
GlyphClass: 2
Flags: HMW
HStem: 0 76<61 74 74 74 74 582> 1292 74<61 397 1364 1364>
VStem: 262 129<131 1055 131 1237> 1042 133<391 1237 0 1237>
AnchorPoint: "Anchor-5" 758 0 basechar 0
AnchorPoint: "Anchor-3" 711 1366 basechar 0
LayerCount: 2
Fore
SplineSet
653 1423 m 1
 608 1473 l 1
 778 1710 l 2
 796 1735 815 1745 844 1745 c 0
 883 1745 918 1710 918 1673 c 0
 918 1640 899 1618 866 1593 c 2
 653 1423 l 1
61 0 m 1
 74 76 l 1
 142 84 203 96 262 131 c 1
 262 1237 l 1
 203 1268 131 1284 61 1292 c 1
 72 1366 l 1
 397 1366 l 1
 1042 391 l 1
 1042 1237 l 1
 987 1268 912 1284 846 1292 c 1
 856 1366 l 1
 1374 1366 l 1
 1364 1292 l 1
 1294 1284 1235 1270 1176 1237 c 1
 1176 0 l 1
 1087 0 l 1
 391 1055 l 1
 391 131 l 1
 448 98 524 84 590 76 c 1
 582 0 l 1
 61 0 l 1
EndSplineSet
EndChar

StartChar: Ncaron
Encoding: 327 327 110
Width: 1419
GlyphClass: 2
Flags: HMW
HStem: 0 76<61 74 74 74 74 582> 1292 74<61 397 1364 1364>
VStem: 262 129<131 1055 131 1237> 1042 133<391 1237 0 1237>
AnchorPoint: "Anchor-5" 758 0 basechar 0
AnchorPoint: "Anchor-3" 711 1366 basechar 0
LayerCount: 2
Fore
SplineSet
711 1430 m 0
 686 1430 665 1442 647 1462 c 2
 459 1679 l 1
 504 1731 l 1
 711 1573 l 1
 920 1731 l 1
 965 1679 l 1
 774 1462 l 2
 756 1439 736 1430 711 1430 c 0
61 0 m 1
 74 76 l 1
 142 84 203 96 262 131 c 1
 262 1237 l 1
 203 1268 131 1284 61 1292 c 1
 72 1366 l 1
 397 1366 l 1
 1042 391 l 1
 1042 1237 l 1
 987 1268 912 1284 846 1292 c 1
 856 1366 l 1
 1374 1366 l 1
 1364 1292 l 1
 1294 1284 1235 1270 1176 1237 c 1
 1176 0 l 1
 1087 0 l 1
 391 1055 l 1
 391 131 l 1
 448 98 524 84 590 76 c 1
 582 0 l 1
 61 0 l 1
EndSplineSet
EndChar

StartChar: uni0145
Encoding: 325 325 111
Width: 1419
GlyphClass: 2
Flags: HMW
HStem: -432 43G<737 737> 0 76<61 74 74 74 74 582> 1292 74<61 397 1364 1364>
VStem: 262 129<131 1055 131 1237> 711 139<-210 -205> 1042 133<391 1237 0 1237>
AnchorPoint: "Anchor-5" 758 0 basechar 0
AnchorPoint: "Anchor-3" 711 1366 basechar 0
LayerCount: 2
Fore
SplineSet
61 0 m 1
 74 76 l 1
 142 84 203 96 262 131 c 1
 262 1237 l 1
 203 1268 131 1284 61 1292 c 1
 72 1366 l 1
 397 1366 l 1
 1042 391 l 1
 1042 1237 l 1
 987 1268 912 1284 846 1292 c 1
 856 1366 l 1
 1374 1366 l 1
 1364 1292 l 1
 1294 1284 1235 1270 1176 1237 c 1
 1176 0 l 1
 1087 0 l 1
 391 1055 l 1
 391 131 l 1
 448 98 524 84 590 76 c 1
 582 0 l 1
 61 0 l 1
737 -432 m 1
 674 -406 l 1
 701 -336 711 -274 711 -231 c 0
 711 -178 697 -148 666 -121 c 1
 689 -88 718 -76 745 -76 c 0
 806 -76 850 -115 850 -172 c 0
 850 -248 800 -348 737 -432 c 1
EndSplineSet
EndChar

StartChar: Ntilde
Encoding: 209 209 112
Width: 1419
GlyphClass: 2
Flags: HMW
HStem: 0 76<61 74 74 74 74 582> 1292 74<61 397 1364 1364> 1497 127<790 858 790 883> 1569 127<563 632>
VStem: 262 129<131 1055 131 1237> 1042 133<391 1237 0 1237>
AnchorPoint: "Anchor-5" 758 0 basechar 0
AnchorPoint: "Anchor-3" 711 1366 basechar 0
LayerCount: 2
Fore
SplineSet
457 1497 m 1xdc
 428 1505 409 1520 391 1536 c 1
 414 1591 483 1696 596 1696 c 0xdc
 686 1696 749 1624 829 1624 c 0
 886 1624 926 1661 965 1700 c 1
 994 1690 1012 1677 1032 1661 c 1
 1007 1606 933 1497 831 1497 c 0xec
 731 1497 674 1569 590 1569 c 0
 537 1569 496 1536 457 1497 c 1xdc
61 0 m 1
 74 76 l 1
 142 84 203 96 262 131 c 1
 262 1237 l 1
 203 1268 131 1284 61 1292 c 1
 72 1366 l 1
 397 1366 l 1
 1042 391 l 1
 1042 1237 l 1
 987 1268 912 1284 846 1292 c 1
 856 1366 l 1
 1374 1366 l 1
 1364 1292 l 1
 1294 1284 1235 1270 1176 1237 c 1
 1176 0 l 1
 1087 0 l 1
 391 1055 l 1
 391 131 l 1
 448 98 524 84 590 76 c 1
 582 0 l 1
 61 0 l 1
EndSplineSet
EndChar

StartChar: Eng
Encoding: 330 330 113
Width: 1394
GlyphClass: 1
Flags: HMW
HStem: -307 88<931 988 931 1040> 0 76<68 68 68 575 55 68> 1292 74<55 391 1358 1358>
VStem: 256 129<131 1055 131 1237> 733 147<-165 -132 -165 -120> 1036 133<-45 57 57 68 68 68 391 1237>
LayerCount: 2
Fore
SplineSet
940 -307 m 0
 827 -307 733 -261 733 -150 c 0
 733 -91 772 -39 829 -39 c 0
 864 -39 895 -51 909 -78 c 1
 893 -92 881 -118 881 -145 c 0
 881 -184 905 -219 956 -219 c 0
 1019 -219 1036 -160 1036 -86 c 2
 1036 68 l 1
 385 1055 l 1
 385 131 l 1
 442 98 518 84 584 76 c 1
 575 0 l 1
 55 0 l 1
 68 76 l 1
 136 84 197 96 256 131 c 1
 256 1237 l 1
 197 1268 125 1284 55 1292 c 1
 66 1366 l 1
 391 1366 l 1
 1036 391 l 1
 1036 1237 l 1
 981 1268 906 1284 840 1292 c 1
 850 1366 l 1
 1368 1366 l 1
 1358 1292 l 1
 1288 1284 1228 1270 1169 1237 c 1
 1169 57 l 2
 1169 -148 1141 -307 940 -307 c 0
EndSplineSet
EndChar

StartChar: Oacute
Encoding: 211 211 114
Width: 1226
GlyphClass: 2
Flags: HMW
HStem: -14 100<461 768 461 823> 1282 102<461 768>
VStem: 53 207<527 842 527 898> 967 207<525 840>
AnchorPoint: "Anchor-3" 612 1366 basechar 0
LayerCount: 2
Fore
SplineSet
555 1423 m 1
 510 1473 l 1
 680 1710 l 2
 698 1735 716 1745 745 1745 c 0
 784 1745 819 1710 819 1673 c 0
 819 1640 801 1618 768 1593 c 2
 555 1423 l 1
614 -14 m 0
 194 -14 53 258 53 684 c 0
 53 1112 194 1384 614 1384 c 0
 1032 1384 1174 1110 1174 682 c 0
 1174 256 1032 -14 614 -14 c 0
614 86 m 0
 921 86 967 369 967 682 c 0
 967 997 921 1282 614 1282 c 0
 307 1282 260 999 260 684 c 0
 260 371 307 86 614 86 c 0
EndSplineSet
EndChar

StartChar: Obreve
Encoding: 334 334 115
Width: 1226
GlyphClass: 2
Flags: HMW
HStem: -14 100<461 768 461 823> 1282 102<461 768> 1448 111<566 659 566 681>
VStem: 53 207<527 842 527 898> 373 80 774 78 967 207<525 840>
AnchorPoint: "Anchor-3" 612 1366 basechar 0
LayerCount: 2
Fore
SplineSet
612 1448 m 0
 475 1448 381 1545 373 1690 c 1
 398 1698 420 1704 453 1704 c 1
 459 1618 520 1559 612 1559 c 0
 706 1559 768 1618 774 1704 c 1
 807 1704 829 1700 852 1692 c 1
 846 1545 749 1448 612 1448 c 0
614 -14 m 0
 194 -14 53 258 53 684 c 0
 53 1112 194 1384 614 1384 c 0
 1032 1384 1174 1110 1174 682 c 0
 1174 256 1032 -14 614 -14 c 0
614 86 m 0
 921 86 967 369 967 682 c 0
 967 997 921 1282 614 1282 c 0
 307 1282 260 999 260 684 c 0
 260 371 307 86 614 86 c 0
EndSplineSet
EndChar

StartChar: Ocircumflex
Encoding: 212 212 116
Width: 1226
GlyphClass: 2
Flags: HMW
HStem: -14 100<461 768 461 823> 1282 102<461 768>
VStem: 53 207<527 842 527 898> 967 207<525 840>
AnchorPoint: "Anchor-3" 612 1366 basechar 0
LayerCount: 2
Fore
SplineSet
406 1427 m 1
 360 1477 l 1
 551 1696 l 2
 569 1716 589 1729 614 1729 c 0
 639 1729 660 1719 678 1696 c 2
 866 1477 l 1
 819 1427 l 1
 612 1585 l 1
 406 1427 l 1
614 -14 m 0
 194 -14 53 258 53 684 c 0
 53 1112 194 1384 614 1384 c 0
 1032 1384 1174 1110 1174 682 c 0
 1174 256 1032 -14 614 -14 c 0
614 86 m 0
 921 86 967 369 967 682 c 0
 967 997 921 1282 614 1282 c 0
 307 1282 260 999 260 684 c 0
 260 371 307 86 614 86 c 0
EndSplineSet
EndChar

StartChar: Odieresis
Encoding: 214 214 117
Width: 1226
GlyphClass: 2
Flags: HMW
HStem: -14 100<461 768 461 823> 1282 102<461 768> 1481 215<409 474 750 815>
VStem: 53 207<527 842 527 898> 346 193<1554 1623> 688 193<1554 1623> 967 207<525 840>
AnchorPoint: "Anchor-3" 612 1366 basechar 0
LayerCount: 2
Fore
SplineSet
442 1481 m 0
 374 1481 346 1519 346 1589 c 0
 346 1657 374 1696 442 1696 c 0
 505 1696 539 1657 539 1589 c 0
 539 1519 505 1481 442 1481 c 0
782 1481 m 0
 716 1481 688 1519 688 1589 c 0
 688 1657 716 1696 782 1696 c 0
 848 1696 881 1657 881 1589 c 0
 881 1519 848 1481 782 1481 c 0
614 -14 m 0
 194 -14 53 258 53 684 c 0
 53 1112 194 1384 614 1384 c 0
 1032 1384 1174 1110 1174 682 c 0
 1174 256 1032 -14 614 -14 c 0
614 86 m 0
 921 86 967 369 967 682 c 0
 967 997 921 1282 614 1282 c 0
 307 1282 260 999 260 684 c 0
 260 371 307 86 614 86 c 0
EndSplineSet
EndChar

StartChar: Ograve
Encoding: 210 210 118
Width: 1226
GlyphClass: 2
Flags: HMW
HStem: -14 100<461 768 461 823> 1282 102<461 768>
VStem: 53 207<527 842 527 898> 967 207<525 840>
AnchorPoint: "Anchor-3" 612 1366 basechar 0
LayerCount: 2
Fore
SplineSet
668 1425 m 1
 459 1595 l 2
 428 1622 408 1642 408 1675 c 0
 408 1712 442 1747 481 1747 c 0
 510 1747 529 1737 547 1712 c 2
 717 1475 l 1
 668 1425 l 1
614 -14 m 0
 194 -14 53 258 53 684 c 0
 53 1112 194 1384 614 1384 c 0
 1032 1384 1174 1110 1174 682 c 0
 1174 256 1032 -14 614 -14 c 0
614 86 m 0
 921 86 967 369 967 682 c 0
 967 997 921 1282 614 1282 c 0
 307 1282 260 999 260 684 c 0
 260 371 307 86 614 86 c 0
EndSplineSet
EndChar

StartChar: Ohungarumlaut
Encoding: 336 336 119
Width: 1226
GlyphClass: 2
Flags: HMW
HStem: -14 100<461 768 461 823> 1282 102<461 768>
VStem: 53 207<527 842 527 898> 967 207<525 840>
AnchorPoint: "Anchor-3" 612 1366 basechar 0
LayerCount: 2
Fore
SplineSet
489 1432 m 1
 444 1481 l 1
 567 1710 l 2
 583 1741 606 1753 639 1753 c 0
 678 1753 711 1720 711 1683 c 0
 711 1656 695 1631 670 1606 c 2
 489 1432 l 1
696 1432 m 1
 651 1481 l 1
 811 1714 l 2
 831 1737 850 1747 879 1747 c 0
 916 1747 948 1708 948 1673 c 0
 948 1640 928 1620 895 1593 c 2
 696 1432 l 1
614 -14 m 0
 194 -14 53 258 53 684 c 0
 53 1112 194 1384 614 1384 c 0
 1032 1384 1174 1110 1174 682 c 0
 1174 256 1032 -14 614 -14 c 0
614 86 m 0
 921 86 967 369 967 682 c 0
 967 997 921 1282 614 1282 c 0
 307 1282 260 999 260 684 c 0
 260 371 307 86 614 86 c 0
EndSplineSet
EndChar

StartChar: Omacron
Encoding: 332 332 120
Width: 1226
GlyphClass: 2
Flags: HMW
HStem: -14 100<461 768 461 823> 1282 102<461 768> 1552 90<328 897 328 897>
VStem: 53 207<527 842 527 898> 967 207<525 840>
AnchorPoint: "Anchor-3" 612 1366 basechar 0
LayerCount: 2
Fore
SplineSet
328 1552 m 1
 328 1642 l 1
 897 1642 l 1
 897 1552 l 1
 328 1552 l 1
614 -14 m 0
 194 -14 53 258 53 684 c 0
 53 1112 194 1384 614 1384 c 0
 1032 1384 1174 1110 1174 682 c 0
 1174 256 1032 -14 614 -14 c 0
614 86 m 0
 921 86 967 369 967 682 c 0
 967 997 921 1282 614 1282 c 0
 307 1282 260 999 260 684 c 0
 260 371 307 86 614 86 c 0
EndSplineSet
EndChar

StartChar: Oslash
Encoding: 216 216 121
Width: 1337
GlyphClass: 2
Flags: HMW
HStem: -14 100<609 834 609 889> -8 43G<117 117> 1282 102<526 748>
VStem: 119 207<620 842 620 898> 1032 207<525 750>
AnchorPoint: "Anchor-5" 670 0 basechar 0
AnchorPoint: "Anchor-3" 670 1366 basechar 0
LayerCount: 2
Fore
SplineSet
180 -61 m 1xb8
 155 -49 131 -28 117 -8 c 1
 246 168 l 1x78
 154 291 119 467 119 684 c 0
 119 1112 260 1384 680 1384 c 0
 840 1384 959 1344 1047 1270 c 1
 1147 1405 l 1
 1172 1393 1192 1379 1210 1352 c 1
 1106 1208 l 1
 1200 1085 1239 903 1239 682 c 0
 1239 256 1098 -14 680 -14 c 0
 512 -14 389 28 303 106 c 1
 180 -61 l 1xb8
362 330 m 1
 950 1139 l 1
 899 1227 815 1282 680 1282 c 0
 373 1282 326 999 326 684 c 0
 326 555 331 432 362 330 c 1
680 86 m 0
 987 86 1032 369 1032 682 c 0
 1032 817 1024 947 989 1049 c 1
 399 240 l 1
 452 146 539 86 680 86 c 0
EndSplineSet
EndChar

StartChar: Oslashacute
Encoding: 510 510 122
Width: 1337
GlyphClass: 2
Flags: HMW
HStem: -14 100<609 834 609 889> -8 43G<117 117> 1282 102<526 748>
VStem: 119 207<620 842 620 898> 1032 207<525 750>
AnchorPoint: "Anchor-5" 670 0 basechar 0
AnchorPoint: "Anchor-3" 670 1366 basechar 0
LayerCount: 2
Fore
SplineSet
612 1423 m 1xb8
 567 1473 l 1
 737 1710 l 2
 755 1735 774 1745 803 1745 c 0
 842 1745 877 1710 877 1673 c 0
 877 1640 858 1618 825 1593 c 2
 612 1423 l 1xb8
180 -61 m 1
 155 -49 131 -28 117 -8 c 1
 246 168 l 1x78
 154 291 119 467 119 684 c 0
 119 1112 260 1384 680 1384 c 0
 840 1384 959 1344 1047 1270 c 1
 1147 1405 l 1
 1172 1393 1192 1379 1210 1352 c 1
 1106 1208 l 1
 1200 1085 1239 903 1239 682 c 0
 1239 256 1098 -14 680 -14 c 0
 512 -14 389 28 303 106 c 1
 180 -61 l 1
362 330 m 1
 950 1139 l 1
 899 1227 815 1282 680 1282 c 0
 373 1282 326 999 326 684 c 0
 326 555 331 432 362 330 c 1
680 86 m 0
 987 86 1032 369 1032 682 c 0
 1032 817 1024 947 989 1049 c 1
 399 240 l 1
 452 146 539 86 680 86 c 0
EndSplineSet
EndChar

StartChar: Otilde
Encoding: 213 213 123
Width: 1226
GlyphClass: 2
Flags: HMW
HStem: -14 100<461 768 461 823> 1282 102<461 768> 1497 127<691 760 691 784> 1569 127<465 534>
VStem: 53 207<527 842 527 898> 967 207<525 840>
AnchorPoint: "Anchor-3" 612 1366 basechar 0
LayerCount: 2
Fore
SplineSet
358 1497 m 1xdc
 329 1505 311 1520 293 1536 c 1
 316 1591 385 1696 498 1696 c 0xdc
 588 1696 651 1624 731 1624 c 0
 788 1624 827 1661 866 1700 c 1
 895 1690 914 1677 934 1661 c 1
 909 1606 835 1497 733 1497 c 0xec
 633 1497 576 1569 492 1569 c 0
 439 1569 397 1536 358 1497 c 1xdc
614 -14 m 0
 194 -14 53 258 53 684 c 0
 53 1112 194 1384 614 1384 c 0
 1032 1384 1174 1110 1174 682 c 0
 1174 256 1032 -14 614 -14 c 0
614 86 m 0
 921 86 967 369 967 682 c 0
 967 997 921 1282 614 1282 c 0
 307 1282 260 999 260 684 c 0
 260 371 307 86 614 86 c 0
EndSplineSet
EndChar

StartChar: OE
Encoding: 338 338 124
Width: 1902
GlyphClass: 2
Flags: HMW
HStem: -14 100<492 675> 0 86<492 1751 492 803> 0 119<1171 1599 1171 1751> 651 94 1047 319<1668 1683> 1257 109<1171 1550 1171 1171> 1282 84<492 1704> 1282 102<492 676 453 802>
VStem: 88 205<522 847 522 911> 1001 170<522 662 735 847> 1509 63<487 893 487 893> 1688 73
AnchorPoint: "Anchor-5" 1010 0 basechar 0
AnchorPoint: "Anchor-3" 1022 1366 basechar 0
LayerCount: 2
Fore
SplineSet
647 -14 m 0x94f0
 258 -14 88 231 88 684 c 0
 88 1139 258 1384 647 1384 c 0x31f0
 704 1384 758 1378 809 1366 c 1
 1704 1366 l 1x34f0
 1722 1055 l 1
 1710 1049 1691 1047 1675 1047 c 0
 1661 1047 1648 1047 1636 1049 c 1x38f0
 1622 1112 1599 1194 1550 1257 c 1
 1171 1257 l 1
 1171 735 l 1
 1393 756 l 2
 1465 762 1497 846 1509 893 c 1
 1573 893 l 1
 1573 487 l 1
 1509 487 l 1
 1486 591 1454 633 1380 641 c 2
 1171 662 l 1
 1171 119 l 1
 1599 119 l 1
 1652 193 1676 282 1688 350 c 1
 1700 352 1712 354 1726 354 c 0
 1740 354 1755 352 1769 350 c 1
 1751 0 l 1
 803 0 l 1x34f0
 754 -8 702 -14 647 -14 c 0x94f0
647 86 m 0x52f0
 956 86 1001 360 1001 684 c 0
 1001 1010 956 1282 647 1282 c 0
 336 1282 293 1010 293 684 c 0
 293 360 336 86 647 86 c 0x52f0
EndSplineSet
EndChar

StartChar: Racute
Encoding: 340 340 125
Width: 1255
GlyphClass: 2
Flags: HMW
HStem: 0 76<63 74 74 74 74 631> 0 78<924 1245> 637 94<442 483 442 506> 1282 84<568 598 598 690> 1292 74<61 598>
VStem: 262 180<131 637 731 1237 1237 1237> 883 184<915 1100>
AnchorPoint: "Anchor-5" 715 0 basechar 0
AnchorPoint: "Anchor-3" 602 1366 basechar 0
LayerCount: 2
Fore
SplineSet
545 1423 m 1xb6
 500 1473 l 1
 670 1710 l 2
 688 1735 706 1745 735 1745 c 0
 774 1745 809 1710 809 1673 c 0
 809 1640 791 1618 758 1593 c 2
 545 1423 l 1xb6
63 0 m 1
 74 76 l 1
 158 86 213 102 262 131 c 1
 262 1237 l 1
 215 1264 149 1282 61 1292 c 1xae
 72 1366 l 1
 598 1366 l 2
 907 1366 1067 1248 1067 1006 c 0
 1067 826 979 715 784 668 c 1
 837 633 874 576 911 492 c 2
 1073 131 l 1
 1112 104 1167 86 1245 78 c 1x76
 1233 0 l 1
 924 0 l 1
 745 457 l 2
 679 623 659 637 483 637 c 2
 442 637 l 1
 442 131 l 1
 481 106 532 90 641 76 c 1
 631 0 l 1
 63 0 l 1
442 731 m 1
 506 731 l 2
 762 731 883 822 883 1010 c 0
 883 1190 784 1282 596 1282 c 0
 541 1282 514 1280 442 1268 c 1xb6
 442 731 l 1
EndSplineSet
EndChar

StartChar: Rcaron
Encoding: 344 344 126
Width: 1255
GlyphClass: 2
Flags: HMW
HStem: 0 76<63 74 74 74 74 631> 0 78<924 1245> 637 94<442 483 442 506> 1282 84<568 598 598 690> 1292 74<61 598>
VStem: 262 180<131 637 731 1237 1237 1237> 883 184<915 1100>
AnchorPoint: "Anchor-5" 715 0 basechar 0
AnchorPoint: "Anchor-3" 602 1366 basechar 0
LayerCount: 2
Fore
SplineSet
602 1430 m 0xb6
 577 1430 557 1442 539 1462 c 2
 350 1679 l 1
 395 1731 l 1
 602 1573 l 1
 811 1731 l 1
 856 1679 l 1
 666 1462 l 2
 648 1439 627 1430 602 1430 c 0xb6
63 0 m 1
 74 76 l 1
 158 86 213 102 262 131 c 1
 262 1237 l 1
 215 1264 149 1282 61 1292 c 1xae
 72 1366 l 1
 598 1366 l 2
 907 1366 1067 1248 1067 1006 c 0
 1067 826 979 715 784 668 c 1
 837 633 874 576 911 492 c 2
 1073 131 l 1
 1112 104 1167 86 1245 78 c 1x76
 1233 0 l 1
 924 0 l 1
 745 457 l 2
 679 623 659 637 483 637 c 2
 442 637 l 1
 442 131 l 1
 481 106 532 90 641 76 c 1
 631 0 l 1
 63 0 l 1
442 731 m 1
 506 731 l 2
 762 731 883 822 883 1010 c 0
 883 1190 784 1282 596 1282 c 0
 541 1282 514 1280 442 1268 c 1xb6
 442 731 l 1
EndSplineSet
EndChar

StartChar: uni0156
Encoding: 342 342 127
Width: 1255
GlyphClass: 2
Flags: HMW
HStem: -432 43G<694 694> 0 76<63 74 74 74 74 631> 0 78<924 1245> 637 94<442 483 442 506> 1282 84<568 598 598 690> 1292 74<61 598>
VStem: 262 180<131 637 731 1237 1237 1237> 668 139<-210 -205> 883 184<915 1100>
AnchorPoint: "Anchor-5" 715 0 basechar 0
AnchorPoint: "Anchor-3" 602 1366 basechar 0
LayerCount: 2
Fore
SplineSet
63 0 m 1xda80
 74 76 l 1
 158 86 213 102 262 131 c 1
 262 1237 l 1
 215 1264 149 1282 61 1292 c 1xd680
 72 1366 l 1
 598 1366 l 2
 907 1366 1067 1248 1067 1006 c 0
 1067 826 979 715 784 668 c 1
 837 633 874 576 911 492 c 2
 1073 131 l 1
 1112 104 1167 86 1245 78 c 1xba80
 1233 0 l 1
 924 0 l 1
 745 457 l 2
 679 623 659 637 483 637 c 2
 442 637 l 1
 442 131 l 1
 481 106 532 90 641 76 c 1
 631 0 l 1
 63 0 l 1xda80
442 731 m 1
 506 731 l 2
 762 731 883 822 883 1010 c 0
 883 1190 784 1282 596 1282 c 0
 541 1282 514 1280 442 1268 c 1xdb80
 442 731 l 1
694 -432 m 1
 631 -406 l 1
 658 -336 668 -274 668 -231 c 0
 668 -178 654 -148 623 -121 c 1
 646 -88 675 -76 702 -76 c 0
 763 -76 807 -115 807 -172 c 0
 807 -248 757 -348 694 -432 c 1
EndSplineSet
EndChar

StartChar: Sacute
Encoding: 346 346 128
Width: 927
GlyphClass: 2
Flags: HMW
HStem: -14 102<386 520 386 554> 1280 104<400 544>
VStem: 37 100<92 438 428 438> 55 176<995 1130> 684 178<1127 1189> 700 186<252 414>
AnchorPoint: "Anchor-5" 459 0 basechar 0
AnchorPoint: "Anchor-4" 471 0 basechar 0
AnchorPoint: "Anchor-3" 461 1366 basechar 0
LayerCount: 2
Fore
SplineSet
403 1423 m 1xd4
 358 1473 l 1
 528 1710 l 2
 546 1735 565 1745 594 1745 c 0
 633 1745 668 1710 668 1673 c 0
 668 1640 649 1618 616 1593 c 2
 403 1423 l 1xd4
416 -14 m 0
 260 -14 90 53 37 92 c 1
 37 428 l 1
 137 438 l 1
 151 327 166 237 211 135 c 1
 260 112 327 88 444 88 c 0
 596 88 700 176 700 328 c 0xe4
 700 500 556 564 406 627 c 0
 240 699 55 782 55 1022 c 0
 55 1239 209 1384 477 1384 c 0
 684 1384 862 1271 862 1124 c 0
 862 1038 828 993 760 993 c 0
 690 993 664 1020 641 1051 c 1
 661 1071 684 1100 684 1155 c 0xd8
 684 1223 612 1280 475 1280 c 0
 325 1280 231 1210 231 1073 c 0
 231 917 366 860 516 797 c 0
 692 721 887 637 887 371 c 0
 887 117 692 -14 416 -14 c 0
EndSplineSet
EndChar

StartChar: Scaron
Encoding: 352 352 129
Width: 927
GlyphClass: 2
Flags: HMW
HStem: -14 102<386 520 386 554> 1280 104<400 544>
VStem: 37 100<92 438 428 438> 55 176<995 1130> 684 178<1127 1189> 700 186<252 414>
AnchorPoint: "Anchor-5" 459 0 basechar 0
AnchorPoint: "Anchor-4" 471 0 basechar 0
AnchorPoint: "Anchor-3" 461 1366 basechar 0
LayerCount: 2
Fore
SplineSet
461 1430 m 0xd4
 436 1430 415 1442 397 1462 c 2
 209 1679 l 1
 254 1731 l 1
 461 1573 l 1
 670 1731 l 1
 715 1679 l 1
 524 1462 l 2
 506 1439 486 1430 461 1430 c 0xd4
416 -14 m 0
 260 -14 90 53 37 92 c 1
 37 428 l 1
 137 438 l 1
 151 327 166 237 211 135 c 1
 260 112 327 88 444 88 c 0
 596 88 700 176 700 328 c 0xe4
 700 500 556 564 406 627 c 0
 240 699 55 782 55 1022 c 0
 55 1239 209 1384 477 1384 c 0
 684 1384 862 1271 862 1124 c 0
 862 1038 828 993 760 993 c 0
 690 993 664 1020 641 1051 c 1
 661 1071 684 1100 684 1155 c 0xd8
 684 1223 612 1280 475 1280 c 0
 325 1280 231 1210 231 1073 c 0
 231 917 366 860 516 797 c 0
 692 721 887 637 887 371 c 0
 887 117 692 -14 416 -14 c 0
EndSplineSet
EndChar

StartChar: Scedilla
Encoding: 350 350 130
Width: 927
GlyphClass: 2
Flags: HMW
HStem: -418 68<399 455 399 478> -14 102<386 416 416 424> 1280 104<400 544>
VStem: 37 100<92 438 428 438> 55 176<995 1130> 236 96<-283 -262> 512 104<-282 -217> 684 178<1127 1189> 700 186<256 414>
AnchorPoint: "Anchor-5" 459 0 basechar 0
AnchorPoint: "Anchor-4" 471 0 basechar 0
AnchorPoint: "Anchor-3" 461 1366 basechar 0
LayerCount: 2
Fore
SplineSet
887 371 m 0xea80
 887 142 728 10 492 -10 c 1
 461 -94 l 1
 555 -112 616 -152 616 -256 c 0
 616 -346 535 -418 422 -418 c 0
 289 -418 236 -344 236 -283 c 0
 236 -242 260 -203 303 -203 c 0
 315 -203 326 -205 340 -211 c 1
 336 -225 332 -240 332 -254 c 0
 332 -311 375 -350 424 -350 c 0
 485 -350 512 -316 512 -248 c 0
 512 -187 458 -164 399 -156 c 1
 362 -115 l 1
 424 -14 l 1
 416 -14 l 2
 260 -14 90 53 37 92 c 1
 37 428 l 1
 137 438 l 1
 151 327 166 237 211 135 c 1
 260 112 327 88 444 88 c 0
 596 88 700 176 700 328 c 0xf680
 700 500 556 564 406 627 c 0
 240 699 55 782 55 1022 c 0
 55 1239 209 1384 477 1384 c 0
 684 1384 862 1271 862 1124 c 0
 862 1038 828 993 760 993 c 0
 690 993 664 1020 641 1051 c 1
 661 1071 684 1100 684 1155 c 0xeb
 684 1223 612 1280 475 1280 c 0
 325 1280 231 1210 231 1073 c 0
 231 917 366 860 516 797 c 0
 692 721 887 637 887 371 c 0xea80
EndSplineSet
Substitution2: "'locl' Localized Forms in Latin lookup 3 per glyph data 2" uni0218
Substitution2: "'locl' Localized Forms in Latin lookup 3 per glyph data 0" uni0218
Substitution2: "'aalt' Access All Alternates in Latin lookup 0 subtable" uni0218
EndChar

StartChar: Scircumflex
Encoding: 348 348 131
Width: 927
GlyphClass: 2
Flags: HMW
HStem: -14 102<386 520 386 554> 1280 104<400 544>
VStem: 37 100<92 438 428 438> 55 176<995 1130> 684 178<1127 1189> 700 186<252 414>
AnchorPoint: "Anchor-5" 459 0 basechar 0
AnchorPoint: "Anchor-4" 471 0 basechar 0
AnchorPoint: "Anchor-3" 461 1366 basechar 0
LayerCount: 2
Fore
SplineSet
254 1427 m 1xd4
 209 1477 l 1
 399 1696 l 2
 417 1716 438 1729 463 1729 c 0
 488 1729 508 1719 526 1696 c 2
 715 1477 l 1
 668 1427 l 1
 461 1585 l 1
 254 1427 l 1xd4
416 -14 m 0
 260 -14 90 53 37 92 c 1
 37 428 l 1
 137 438 l 1
 151 327 166 237 211 135 c 1
 260 112 327 88 444 88 c 0
 596 88 700 176 700 328 c 0xe4
 700 500 556 564 406 627 c 0
 240 699 55 782 55 1022 c 0
 55 1239 209 1384 477 1384 c 0
 684 1384 862 1271 862 1124 c 0
 862 1038 828 993 760 993 c 0
 690 993 664 1020 641 1051 c 1
 661 1071 684 1100 684 1155 c 0xd8
 684 1223 612 1280 475 1280 c 0
 325 1280 231 1210 231 1073 c 0
 231 917 366 860 516 797 c 0
 692 721 887 637 887 371 c 0
 887 117 692 -14 416 -14 c 0
EndSplineSet
EndChar

StartChar: uni0218
Encoding: 536 536 132
Width: 927
GlyphClass: 2
Flags: HMW
HStem: -432 43G<438 438> -14 102<386 520 386 554> 1280 104<400 544>
VStem: 37 100<92 438 428 438> 55 176<995 1130> 412 139<-210 -205> 684 178<1127 1189> 700 186<252 414>
AnchorPoint: "Anchor-5" 459 0 basechar 0
AnchorPoint: "Anchor-4" 471 0 basechar 0
AnchorPoint: "Anchor-3" 461 1366 basechar 0
LayerCount: 2
Fore
SplineSet
416 -14 m 0xed
 260 -14 90 53 37 92 c 1
 37 428 l 1
 137 438 l 1
 151 327 166 237 211 135 c 1
 260 112 327 88 444 88 c 0
 596 88 700 176 700 328 c 0xf5
 700 500 556 564 406 627 c 0
 240 699 55 782 55 1022 c 0
 55 1239 209 1384 477 1384 c 0
 684 1384 862 1271 862 1124 c 0
 862 1038 828 993 760 993 c 0
 690 993 664 1020 641 1051 c 1
 661 1071 684 1100 684 1155 c 0xee
 684 1223 612 1280 475 1280 c 0
 325 1280 231 1210 231 1073 c 0
 231 917 366 860 516 797 c 0
 692 721 887 637 887 371 c 0
 887 117 692 -14 416 -14 c 0xed
438 -432 m 1
 375 -406 l 1
 402 -336 412 -274 412 -231 c 0
 412 -178 398 -148 367 -121 c 1
 390 -88 419 -76 446 -76 c 0
 507 -76 551 -115 551 -172 c 0
 551 -248 501 -348 438 -432 c 1
EndSplineSet
EndChar

StartChar: Tbar
Encoding: 358 358 133
Width: 1140
GlyphClass: 2
Flags: HMW
HStem: 0 76<295 295 295 852 283 295> 627 90<225 481 225 481 662 918> 1020 346<84 667> 1274 92<481 481 662 662> 1333 41G<45 45 1096 1096>
VStem: 45 90<1022 1022> 481 180<131 627 131 627 717 1274> 1006 90<1022 1022>
AnchorPoint: "Anchor-5" 571 0 basechar 0
AnchorPoint: "Anchor-3" 569 1366 basechar 0
LayerCount: 2
Fore
SplineSet
569 1366 m 0xd7
 764 1366 1076 1372 1096 1374 c 1xcf
 1096 1022 l 1
 1082 1020 1067 1020 1053 1020 c 0
 1037 1020 1022 1020 1006 1022 c 1xe7
 1000 1081 981 1183 932 1257 c 1
 875 1263 793 1272 662 1274 c 1
 662 717 l 1
 918 717 l 1
 918 627 l 1
 662 627 l 1
 662 131 l 1
 721 98 794 84 862 76 c 1
 852 0 l 1
 283 0 l 1
 295 76 l 1
 361 84 424 96 481 131 c 1
 481 627 l 1
 225 627 l 1
 225 717 l 1
 481 717 l 1
 481 1274 l 1
 352 1272 270 1266 213 1260 c 1xd7
 160 1186 137 1083 135 1022 c 1
 121 1020 104 1020 92 1020 c 0
 76 1020 59 1020 45 1022 c 1xe7
 45 1374 l 1xcf
 45 1374 315 1366 569 1366 c 0xd7
EndSplineSet
EndChar

StartChar: Tcaron
Encoding: 356 356 134
Width: 1140
GlyphClass: 2
Flags: HMW
HStem: 0 76<283 295 295 295 295 852> 1020 354<45 98> 1274 100
VStem: 45 90<1022 1022> 481 180<131 1274 131 1274> 1006 90<1022 1022>
AnchorPoint: "Anchor-5" 571 0 basechar 0
AnchorPoint: "Anchor-3" 569 1366 basechar 0
LayerCount: 2
Fore
SplineSet
569 1430 m 0xbc
 544 1430 524 1442 506 1462 c 2
 317 1679 l 1
 362 1731 l 1
 569 1573 l 1
 778 1731 l 1
 823 1679 l 1
 633 1462 l 2
 615 1439 594 1430 569 1430 c 0xbc
283 0 m 1
 295 76 l 1
 361 84 424 96 481 131 c 1
 481 1274 l 1
 352 1272 270 1266 213 1260 c 1xbc
 160 1186 137 1083 135 1022 c 1
 121 1020 104 1020 92 1020 c 0
 76 1020 59 1020 45 1022 c 1xdc
 45 1374 l 1
 45 1374 315 1366 569 1366 c 0
 764 1366 1076 1372 1096 1374 c 1xbc
 1096 1022 l 1
 1082 1020 1067 1020 1053 1020 c 0
 1037 1020 1022 1020 1006 1022 c 1xdc
 1000 1081 981 1183 932 1257 c 1
 875 1263 793 1272 662 1274 c 1
 662 131 l 1
 721 98 794 84 862 76 c 1
 852 0 l 1
 283 0 l 1
EndSplineSet
EndChar

StartChar: uni021A
Encoding: 538 538 135
Width: 1140
GlyphClass: 2
Flags: HMW
HStem: -432 43G<551 551> 0 76<283 295 295 295 295 852> 1020 354<45 98> 1274 100
VStem: 45 90<1022 1022> 481 180<131 1274 131 1274> 524 139<-210 -205> 1006 90<1022 1022>
AnchorPoint: "Anchor-5" 571 0 basechar 0
AnchorPoint: "Anchor-3" 569 1366 basechar 0
LayerCount: 2
Fore
SplineSet
283 0 m 1xdd
 295 76 l 1
 361 84 424 96 481 131 c 1
 481 1274 l 1
 352 1272 270 1266 213 1260 c 1xdd
 160 1186 137 1083 135 1022 c 1
 121 1020 104 1020 92 1020 c 0
 76 1020 59 1020 45 1022 c 1xed
 45 1374 l 1
 45 1374 315 1366 569 1366 c 0
 764 1366 1076 1372 1096 1374 c 1xdd
 1096 1022 l 1
 1082 1020 1067 1020 1053 1020 c 0
 1037 1020 1022 1020 1006 1022 c 1xed
 1000 1081 981 1183 932 1257 c 1
 875 1263 793 1272 662 1274 c 1
 662 131 l 1
 721 98 794 84 862 76 c 1
 852 0 l 1
 283 0 l 1xdd
551 -432 m 1xdb
 487 -406 l 1
 514 -336 524 -274 524 -231 c 0
 524 -178 510 -148 479 -121 c 1
 502 -88 532 -76 559 -76 c 0
 620 -76 664 -115 664 -172 c 0
 664 -248 614 -348 551 -432 c 1xdb
EndSplineSet
EndChar

StartChar: Thorn
Encoding: 222 222 136
Width: 1175
GlyphClass: 1
Flags: HMW
HStem: 0 76<113 113 113 670 100 113> 317 92<481 549 481 549> 987 86<599 637 637 720> 1292 74<100 678 668 668>
VStem: 301 180<131 317 131 410 410 975 1073 1237> 901 184<599 799>
LayerCount: 2
Fore
SplineSet
549 317 m 2
 481 317 l 1
 481 131 l 1
 540 96 612 84 680 76 c 1
 670 0 l 1
 100 0 l 1
 113 76 l 1
 179 84 242 96 301 131 c 1
 301 1237 l 1
 242 1268 170 1284 100 1292 c 1
 111 1366 l 1
 678 1366 l 1
 668 1292 l 1
 602 1284 540 1270 481 1237 c 1
 481 1073 l 1
 637 1073 l 2
 950 1073 1085 936 1085 698 c 0
 1085 401 873 317 549 317 c 2
481 975 m 1
 481 410 l 1
 549 410 l 2
 764 410 901 495 901 702 c 0
 901 895 803 987 637 987 c 0
 561 987 516 981 481 975 c 1
EndSplineSet
EndChar

StartChar: Uacute
Encoding: 218 218 137
Width: 1406
GlyphClass: 2
Flags: HMW
HStem: -14 106<614 826 614 869> 1292 74<25 606 594 594 1372 1372>
VStem: 223 186<430 1237> 1053 131<442 1237>
AnchorPoint: "Anchor-3" 707 1366 basechar 0
AnchorPoint: "Anchor-2" 872 0 basechar 0
LayerCount: 2
Fore
SplineSet
649 1423 m 1
 604 1473 l 1
 774 1710 l 2
 792 1735 811 1745 840 1745 c 0
 879 1745 913 1710 913 1673 c 0
 913 1640 895 1618 862 1593 c 2
 649 1423 l 1
721 -14 m 0
 369 -14 223 123 223 430 c 2
 223 1237 l 1
 176 1262 113 1282 25 1292 c 1
 33 1366 l 1
 606 1366 l 1
 594 1292 l 1
 510 1278 457 1262 410 1237 c 1
 410 430 l 2
 410 186 508 92 721 92 c 0
 932 92 1053 215 1053 442 c 2
 1053 1237 l 1
 1008 1262 942 1282 854 1292 c 1
 864 1366 l 1
 1382 1366 l 1
 1372 1292 l 1
 1284 1278 1231 1262 1184 1237 c 1
 1184 442 l 2
 1184 149 1018 -14 721 -14 c 0
EndSplineSet
EndChar

StartChar: Ubreve
Encoding: 364 364 138
Width: 1406
GlyphClass: 2
Flags: HMW
HStem: -14 106<614 826 614 869> 1292 74<25 606 594 594 1372 1372> 1448 111<660 754 660 775>
VStem: 223 186<430 1237> 467 80 868 78 1053 131<442 1237>
AnchorPoint: "Anchor-3" 707 1366 basechar 0
AnchorPoint: "Anchor-2" 872 0 basechar 0
LayerCount: 2
Fore
SplineSet
707 1448 m 0
 570 1448 475 1545 467 1690 c 1
 492 1698 514 1704 547 1704 c 1
 553 1618 615 1559 707 1559 c 0
 801 1559 862 1618 868 1704 c 1
 901 1704 923 1700 946 1692 c 1
 940 1545 844 1448 707 1448 c 0
721 -14 m 0xf6
 369 -14 223 123 223 430 c 2
 223 1237 l 1
 176 1262 113 1282 25 1292 c 1
 33 1366 l 1
 606 1366 l 1
 594 1292 l 1
 510 1278 457 1262 410 1237 c 1
 410 430 l 2
 410 186 508 92 721 92 c 0
 932 92 1053 215 1053 442 c 2
 1053 1237 l 1
 1008 1262 942 1282 854 1292 c 1
 864 1366 l 1
 1382 1366 l 1
 1372 1292 l 1
 1284 1278 1231 1262 1184 1237 c 1
 1184 442 l 2
 1184 149 1018 -14 721 -14 c 0xf6
EndSplineSet
EndChar

StartChar: Ucircumflex
Encoding: 219 219 139
Width: 1406
GlyphClass: 2
Flags: HMW
HStem: -14 106<614 826 614 869> 1292 74<25 606 594 594 1372 1372>
VStem: 223 186<430 1237> 1053 131<442 1237>
AnchorPoint: "Anchor-3" 707 1366 basechar 0
AnchorPoint: "Anchor-2" 872 0 basechar 0
LayerCount: 2
Fore
SplineSet
500 1427 m 1
 455 1477 l 1
 645 1696 l 2
 663 1716 684 1729 709 1729 c 0
 734 1729 754 1719 772 1696 c 2
 961 1477 l 1
 913 1427 l 1
 707 1585 l 1
 500 1427 l 1
721 -14 m 0
 369 -14 223 123 223 430 c 2
 223 1237 l 1
 176 1262 113 1282 25 1292 c 1
 33 1366 l 1
 606 1366 l 1
 594 1292 l 1
 510 1278 457 1262 410 1237 c 1
 410 430 l 2
 410 186 508 92 721 92 c 0
 932 92 1053 215 1053 442 c 2
 1053 1237 l 1
 1008 1262 942 1282 854 1292 c 1
 864 1366 l 1
 1382 1366 l 1
 1372 1292 l 1
 1284 1278 1231 1262 1184 1237 c 1
 1184 442 l 2
 1184 149 1018 -14 721 -14 c 0
EndSplineSet
EndChar

StartChar: Udieresis
Encoding: 220 220 140
Width: 1406
GlyphClass: 2
Flags: HMW
HStem: -14 106<614 826 614 869> 1292 74<25 606 594 594 1372 1372> 1481 215<503 568 844 909>
VStem: 223 186<430 1237> 440 193<1554 1623> 782 193<1554 1623> 1053 131<442 1237>
AnchorPoint: "Anchor-3" 707 1366 basechar 0
AnchorPoint: "Anchor-2" 872 0 basechar 0
LayerCount: 2
Fore
SplineSet
537 1481 m 0
 469 1481 440 1519 440 1589 c 0
 440 1657 469 1696 537 1696 c 0
 600 1696 633 1657 633 1589 c 0
 633 1519 600 1481 537 1481 c 0
877 1481 m 0
 811 1481 782 1519 782 1589 c 0
 782 1657 811 1696 877 1696 c 0
 943 1696 975 1657 975 1589 c 0
 975 1519 943 1481 877 1481 c 0
721 -14 m 0xd2
 369 -14 223 123 223 430 c 2
 223 1237 l 1
 176 1262 113 1282 25 1292 c 1
 33 1366 l 1
 606 1366 l 1
 594 1292 l 1
 510 1278 457 1262 410 1237 c 1
 410 430 l 2
 410 186 508 92 721 92 c 0
 932 92 1053 215 1053 442 c 2
 1053 1237 l 1
 1008 1262 942 1282 854 1292 c 1
 864 1366 l 1
 1382 1366 l 1
 1372 1292 l 1
 1284 1278 1231 1262 1184 1237 c 1
 1184 442 l 2
 1184 149 1018 -14 721 -14 c 0xd2
EndSplineSet
EndChar

StartChar: Ugrave
Encoding: 217 217 141
Width: 1406
GlyphClass: 2
Flags: HMW
HStem: -14 106<614 826 614 869> 1292 74<25 606 594 594 1372 1372>
VStem: 223 186<430 1237> 1053 131<442 1237>
AnchorPoint: "Anchor-3" 707 1366 basechar 0
AnchorPoint: "Anchor-2" 872 0 basechar 0
LayerCount: 2
Fore
SplineSet
762 1425 m 1
 553 1595 l 2
 522 1622 502 1642 502 1675 c 0
 502 1712 536 1747 575 1747 c 0
 604 1747 623 1737 641 1712 c 2
 811 1475 l 1
 762 1425 l 1
721 -14 m 0
 369 -14 223 123 223 430 c 2
 223 1237 l 1
 176 1262 113 1282 25 1292 c 1
 33 1366 l 1
 606 1366 l 1
 594 1292 l 1
 510 1278 457 1262 410 1237 c 1
 410 430 l 2
 410 186 508 92 721 92 c 0
 932 92 1053 215 1053 442 c 2
 1053 1237 l 1
 1008 1262 942 1282 854 1292 c 1
 864 1366 l 1
 1382 1366 l 1
 1372 1292 l 1
 1284 1278 1231 1262 1184 1237 c 1
 1184 442 l 2
 1184 149 1018 -14 721 -14 c 0
EndSplineSet
EndChar

StartChar: Uhungarumlaut
Encoding: 368 368 142
Width: 1406
GlyphClass: 2
Flags: HMW
HStem: -14 106<614 826 614 869> 1292 74<25 606 594 594 1372 1372>
VStem: 223 186<430 1237> 1053 131<442 1237>
AnchorPoint: "Anchor-3" 707 1366 basechar 0
AnchorPoint: "Anchor-2" 872 0 basechar 0
LayerCount: 2
Fore
SplineSet
584 1432 m 1
 539 1481 l 1
 662 1710 l 2
 678 1741 700 1753 733 1753 c 0
 772 1753 805 1720 805 1683 c 0
 805 1656 789 1631 764 1606 c 2
 584 1432 l 1
791 1432 m 1
 745 1481 l 1
 905 1714 l 2
 925 1737 944 1747 973 1747 c 0
 1010 1747 1042 1708 1042 1673 c 0
 1042 1640 1022 1620 989 1593 c 2
 791 1432 l 1
721 -14 m 0
 369 -14 223 123 223 430 c 2
 223 1237 l 1
 176 1262 113 1282 25 1292 c 1
 33 1366 l 1
 606 1366 l 1
 594 1292 l 1
 510 1278 457 1262 410 1237 c 1
 410 430 l 2
 410 186 508 92 721 92 c 0
 932 92 1053 215 1053 442 c 2
 1053 1237 l 1
 1008 1262 942 1282 854 1292 c 1
 864 1366 l 1
 1382 1366 l 1
 1372 1292 l 1
 1284 1278 1231 1262 1184 1237 c 1
 1184 442 l 2
 1184 149 1018 -14 721 -14 c 0
EndSplineSet
EndChar

StartChar: Umacron
Encoding: 362 362 143
Width: 1406
GlyphClass: 2
Flags: HMW
HStem: -14 106<614 826 614 869> 1292 74<25 606 594 594 1372 1372> 1552 90<422 991 422 991>
VStem: 223 186<430 1237> 1053 131<442 1237>
AnchorPoint: "Anchor-3" 707 1366 basechar 0
AnchorPoint: "Anchor-2" 872 0 basechar 0
LayerCount: 2
Fore
SplineSet
422 1552 m 1
 422 1642 l 1
 991 1642 l 1
 991 1552 l 1
 422 1552 l 1
721 -14 m 0
 369 -14 223 123 223 430 c 2
 223 1237 l 1
 176 1262 113 1282 25 1292 c 1
 33 1366 l 1
 606 1366 l 1
 594 1292 l 1
 510 1278 457 1262 410 1237 c 1
 410 430 l 2
 410 186 508 92 721 92 c 0
 932 92 1053 215 1053 442 c 2
 1053 1237 l 1
 1008 1262 942 1282 854 1292 c 1
 864 1366 l 1
 1382 1366 l 1
 1372 1292 l 1
 1284 1278 1231 1262 1184 1237 c 1
 1184 442 l 2
 1184 149 1018 -14 721 -14 c 0
EndSplineSet
EndChar

StartChar: Uogonek
Encoding: 370 370 144
Width: 1406
GlyphClass: 2
Flags: HMW
HStem: -418 92<730 740> -14 106 1292 74<25 606 594 594 1372 1372>
VStem: 223 186<430 1237> 530 139<-261 -229> 1053 131<442 1237>
AnchorPoint: "Anchor-3" 707 1366 basechar 0
AnchorPoint: "Anchor-2" 872 0 basechar 0
LayerCount: 2
Fore
SplineSet
864 1366 m 1
 1382 1366 l 1
 1372 1292 l 1
 1284 1278 1231 1262 1184 1237 c 1
 1184 442 l 2
 1184 202 1073 49 868 2 c 1
 870 0 l 1
 741 -33 670 -143 670 -227 c 0
 670 -295 705 -326 756 -326 c 0
 783 -326 815 -318 856 -295 c 1
 891 -338 l 1
 842 -391 772 -418 709 -418 c 0
 611 -418 530 -358 530 -264 c 0
 530 -194 577 -133 612 -94 c 0
 637 -65 662 -41 682 -14 c 1
 358 -4 223 135 223 430 c 2
 223 1237 l 1
 176 1262 113 1282 25 1292 c 1
 33 1366 l 1
 606 1366 l 1
 594 1292 l 1
 510 1278 457 1262 410 1237 c 1
 410 430 l 2
 410 186 508 92 721 92 c 0
 932 92 1053 215 1053 442 c 2
 1053 1237 l 1
 1008 1262 942 1282 854 1292 c 1
 864 1366 l 1
EndSplineSet
EndChar

StartChar: Uring
Encoding: 366 366 145
Width: 1406
GlyphClass: 2
Flags: HMW
HStem: -14 106<614 826 614 869> 1292 74<25 606 594 594 1372 1372> 1421 80<681 731 681 759> 1681 78<681 731>
VStem: 223 186<430 1237> 532 86<1566 1614 1566 1638> 799 84<1566 1614> 1053 131<442 1237>
AnchorPoint: "Anchor-3" 707 1366 basechar 0
AnchorPoint: "Anchor-2" 872 0 basechar 0
LayerCount: 2
Fore
SplineSet
707 1421 m 0
 601 1421 532 1493 532 1589 c 0
 532 1687 601 1759 707 1759 c 0
 811 1759 883 1687 883 1589 c 0
 883 1493 811 1421 707 1421 c 0
707 1501 m 0
 756 1501 799 1542 799 1589 c 0
 799 1638 756 1681 707 1681 c 0
 656 1681 618 1638 618 1589 c 0
 618 1542 656 1501 707 1501 c 0
721 -14 m 0
 369 -14 223 123 223 430 c 2
 223 1237 l 1
 176 1262 113 1282 25 1292 c 1
 33 1366 l 1
 606 1366 l 1
 594 1292 l 1
 510 1278 457 1262 410 1237 c 1
 410 430 l 2
 410 186 508 92 721 92 c 0
 932 92 1053 215 1053 442 c 2
 1053 1237 l 1
 1008 1262 942 1282 854 1292 c 1
 864 1366 l 1
 1382 1366 l 1
 1372 1292 l 1
 1284 1278 1231 1262 1184 1237 c 1xdf
 1184 442 l 2
 1184 149 1018 -14 721 -14 c 0
EndSplineSet
EndChar

StartChar: Utilde
Encoding: 360 360 146
Width: 1406
GlyphClass: 2
Flags: HMW
HStem: -14 106<614 826 614 869> 1292 74<25 606 594 594 1372 1372> 1497 127<785 854 785 879> 1569 127<559 628>
VStem: 223 186<430 1237> 1053 131<442 1237>
AnchorPoint: "Anchor-3" 707 1366 basechar 0
AnchorPoint: "Anchor-2" 872 0 basechar 0
LayerCount: 2
Fore
SplineSet
453 1497 m 1xdc
 424 1505 405 1520 387 1536 c 1
 410 1591 479 1696 592 1696 c 0xdc
 682 1696 745 1624 825 1624 c 0
 882 1624 922 1661 961 1700 c 1
 990 1690 1008 1677 1028 1661 c 1
 1003 1606 929 1497 827 1497 c 0xec
 727 1497 670 1569 586 1569 c 0
 533 1569 492 1536 453 1497 c 1xdc
721 -14 m 0
 369 -14 223 123 223 430 c 2
 223 1237 l 1
 176 1262 113 1282 25 1292 c 1
 33 1366 l 1
 606 1366 l 1
 594 1292 l 1
 510 1278 457 1262 410 1237 c 1
 410 430 l 2
 410 186 508 92 721 92 c 0
 932 92 1053 215 1053 442 c 2
 1053 1237 l 1
 1008 1262 942 1282 854 1292 c 1
 864 1366 l 1
 1382 1366 l 1
 1372 1292 l 1
 1284 1278 1231 1262 1184 1237 c 1
 1184 442 l 2
 1184 149 1018 -14 721 -14 c 0
EndSplineSet
EndChar

StartChar: Wacute
Encoding: 7810 7810 147
Width: 1820
GlyphClass: 2
Flags: HMW
HStem: 0 43G<524 524 524 623 1225 1225 1225 1323> 1292 74<8 514 502 502 1800 1800>
VStem: 8 1804<1292 1366>
AnchorPoint: "Anchor-3" 932 1366 basechar 0
LayerCount: 2
Fore
SplineSet
874 1423 m 1
 829 1473 l 1
 999 1710 l 2
 1017 1735 1036 1745 1065 1745 c 0
 1104 1745 1139 1710 1139 1673 c 0
 1139 1640 1120 1618 1087 1593 c 2
 874 1423 l 1
524 0 m 1
 131 1239 l 1
 100 1264 53 1282 8 1292 c 1
 16 1366 l 1
 514 1366 l 1
 502 1292 l 1
 439 1284 381 1270 326 1237 c 1
 596 326 l 1
 901 1366 l 1
 967 1366 l 1
 1294 330 l 1
 1538 1237 l 1
 1483 1266 1420 1284 1352 1292 c 1
 1362 1366 l 1
 1812 1366 l 1
 1800 1292 l 1
 1757 1284 1716 1268 1677 1241 c 1
 1323 0 l 1
 1225 0 l 1
 909 946 l 1
 623 0 l 1
 524 0 l 1
EndSplineSet
EndChar

StartChar: Wcircumflex
Encoding: 372 372 148
Width: 1820
GlyphClass: 2
Flags: HMW
HStem: 0 43G<524 524 524 623 1225 1225 1225 1323> 1292 74<8 514 502 502 1800 1800>
VStem: 8 1804<1292 1366>
AnchorPoint: "Anchor-3" 932 1366 basechar 0
LayerCount: 2
Fore
SplineSet
725 1427 m 1
 680 1477 l 1
 870 1696 l 2
 888 1716 909 1729 934 1729 c 0
 959 1729 979 1719 997 1696 c 2
 1186 1477 l 1
 1139 1427 l 1
 932 1585 l 1
 725 1427 l 1
524 0 m 1
 131 1239 l 1
 100 1264 53 1282 8 1292 c 1
 16 1366 l 1
 514 1366 l 1
 502 1292 l 1
 439 1284 381 1270 326 1237 c 1
 596 326 l 1
 901 1366 l 1
 967 1366 l 1
 1294 330 l 1
 1538 1237 l 1
 1483 1266 1420 1284 1352 1292 c 1
 1362 1366 l 1
 1812 1366 l 1
 1800 1292 l 1
 1757 1284 1716 1268 1677 1241 c 1
 1323 0 l 1
 1225 0 l 1
 909 946 l 1
 623 0 l 1
 524 0 l 1
EndSplineSet
EndChar

StartChar: Wdieresis
Encoding: 7812 7812 149
Width: 1820
GlyphClass: 2
Flags: HMW
HStem: 0 43G<524 524 524 623 1225 1225 1225 1323> 1292 74<8 514 502 502 1800 1800> 1481 215<728 794 1069 1135>
VStem: 666 193<1554 1623> 1008 193<1554 1623>
AnchorPoint: "Anchor-3" 932 1366 basechar 0
LayerCount: 2
Fore
SplineSet
762 1481 m 0
 694 1481 666 1519 666 1589 c 0
 666 1657 694 1696 762 1696 c 0
 825 1696 858 1657 858 1589 c 0
 858 1519 825 1481 762 1481 c 0
1102 1481 m 0
 1036 1481 1008 1519 1008 1589 c 0
 1008 1657 1036 1696 1102 1696 c 0
 1168 1696 1200 1657 1200 1589 c 0
 1200 1519 1168 1481 1102 1481 c 0
524 0 m 1
 131 1239 l 1
 100 1264 53 1282 8 1292 c 1
 16 1366 l 1
 514 1366 l 1
 502 1292 l 1
 439 1284 381 1270 326 1237 c 1
 596 326 l 1
 901 1366 l 1
 967 1366 l 1
 1294 330 l 1
 1538 1237 l 1
 1483 1266 1420 1284 1352 1292 c 1
 1362 1366 l 1
 1812 1366 l 1
 1800 1292 l 1
 1757 1284 1716 1268 1677 1241 c 1
 1323 0 l 1
 1225 0 l 1
 909 946 l 1
 623 0 l 1
 524 0 l 1
EndSplineSet
EndChar

StartChar: Wgrave
Encoding: 7808 7808 150
Width: 1820
GlyphClass: 2
Flags: HMW
HStem: 0 43G<524 524 524 623 1225 1225 1225 1323> 1292 74<8 514 502 502 1800 1800>
VStem: 8 1804<1292 1366>
AnchorPoint: "Anchor-3" 932 1366 basechar 0
LayerCount: 2
Fore
SplineSet
987 1425 m 1
 778 1595 l 2
 747 1622 727 1642 727 1675 c 0
 727 1712 762 1747 801 1747 c 0
 830 1747 848 1737 866 1712 c 2
 1036 1475 l 1
 987 1425 l 1
524 0 m 1
 131 1239 l 1
 100 1264 53 1282 8 1292 c 1
 16 1366 l 1
 514 1366 l 1
 502 1292 l 1
 439 1284 381 1270 326 1237 c 1
 596 326 l 1
 901 1366 l 1
 967 1366 l 1
 1294 330 l 1
 1538 1237 l 1
 1483 1266 1420 1284 1352 1292 c 1
 1362 1366 l 1
 1812 1366 l 1
 1800 1292 l 1
 1757 1284 1716 1268 1677 1241 c 1
 1323 0 l 1
 1225 0 l 1
 909 946 l 1
 623 0 l 1
 524 0 l 1
EndSplineSet
EndChar

StartChar: Yacute
Encoding: 221 221 151
Width: 1140
GlyphClass: 2
Flags: HMW
HStem: 0 76<274 285 285 285 285 864> 1292 74<8 524 514 514 1120 1120>
VStem: 483 180<131 543 543 543>
AnchorPoint: "Anchor-3" 590 1366 basechar 0
LayerCount: 2
Fore
SplineSet
532 1423 m 1
 487 1473 l 1
 657 1710 l 2
 675 1735 694 1745 723 1745 c 0
 762 1745 797 1710 797 1673 c 0
 797 1640 778 1618 745 1593 c 2
 532 1423 l 1
274 0 m 1
 285 76 l 1
 359 84 420 94 483 131 c 1
 483 543 l 1
 135 1239 l 1
 104 1262 55 1282 8 1292 c 1
 18 1366 l 1
 524 1366 l 1
 514 1292 l 1
 453 1284 393 1270 336 1237 c 1
 592 702 l 1
 854 1239 l 1
 803 1266 738 1284 672 1292 c 1
 682 1366 l 1
 1133 1366 l 1
 1120 1292 l 1
 1075 1284 1032 1268 995 1239 c 1
 664 567 l 1
 664 131 l 1
 725 96 800 84 872 76 c 1
 864 0 l 1
 274 0 l 1
EndSplineSet
EndChar

StartChar: Ycircumflex
Encoding: 374 374 152
Width: 1140
GlyphClass: 2
Flags: HMW
HStem: 0 76<274 285 285 285 285 864> 1292 74<8 524 514 514 1120 1120>
VStem: 483 180<131 543 543 543>
AnchorPoint: "Anchor-3" 590 1366 basechar 0
LayerCount: 2
Fore
SplineSet
383 1427 m 1
 338 1477 l 1
 528 1696 l 2
 546 1716 567 1729 592 1729 c 0
 617 1729 637 1719 655 1696 c 2
 844 1477 l 1
 797 1427 l 1
 590 1585 l 1
 383 1427 l 1
274 0 m 1
 285 76 l 1
 359 84 420 94 483 131 c 1
 483 543 l 1
 135 1239 l 1
 104 1262 55 1282 8 1292 c 1
 18 1366 l 1
 524 1366 l 1
 514 1292 l 1
 453 1284 393 1270 336 1237 c 1
 592 702 l 1
 854 1239 l 1
 803 1266 738 1284 672 1292 c 1
 682 1366 l 1
 1133 1366 l 1
 1120 1292 l 1
 1075 1284 1032 1268 995 1239 c 1
 664 567 l 1
 664 131 l 1
 725 96 800 84 872 76 c 1
 864 0 l 1
 274 0 l 1
EndSplineSet
EndChar

StartChar: Ydieresis
Encoding: 376 376 153
Width: 1140
GlyphClass: 2
Flags: HMW
HStem: 0 76<274 285 285 285 285 864> 1292 74<8 524 514 514 1120 1120> 1481 215<386 452 727 793>
VStem: 324 193<1554 1623> 483 180<131 543 543 543> 666 193<1554 1623>
AnchorPoint: "Anchor-3" 590 1366 basechar 0
LayerCount: 2
Fore
SplineSet
420 1481 m 0xf4
 352 1481 324 1519 324 1589 c 0
 324 1657 352 1696 420 1696 c 0
 483 1696 516 1657 516 1589 c 0
 516 1519 483 1481 420 1481 c 0xf4
760 1481 m 0
 694 1481 666 1519 666 1589 c 0
 666 1657 694 1696 760 1696 c 0
 826 1696 858 1657 858 1589 c 0
 858 1519 826 1481 760 1481 c 0
274 0 m 1
 285 76 l 1
 359 84 420 94 483 131 c 1
 483 543 l 1
 135 1239 l 1
 104 1262 55 1282 8 1292 c 1
 18 1366 l 1
 524 1366 l 1
 514 1292 l 1
 453 1284 393 1270 336 1237 c 1
 592 702 l 1
 854 1239 l 1
 803 1266 738 1284 672 1292 c 1
 682 1366 l 1
 1133 1366 l 1
 1120 1292 l 1
 1075 1284 1032 1268 995 1239 c 1
 664 567 l 1
 664 131 l 1xc8
 725 96 800 84 872 76 c 1
 864 0 l 1
 274 0 l 1
EndSplineSet
EndChar

StartChar: Ygrave
Encoding: 7922 7922 154
Width: 1140
GlyphClass: 2
Flags: HMW
HStem: 0 76<274 285 285 285 285 864> 1292 74<8 524 514 514 1120 1120>
VStem: 483 180<131 543 543 543>
AnchorPoint: "Anchor-3" 590 1366 basechar 0
LayerCount: 2
Fore
SplineSet
645 1425 m 1
 436 1595 l 2
 405 1622 385 1642 385 1675 c 0
 385 1712 420 1747 459 1747 c 0
 488 1747 506 1737 524 1712 c 2
 694 1475 l 1
 645 1425 l 1
274 0 m 1
 285 76 l 1
 359 84 420 94 483 131 c 1
 483 543 l 1
 135 1239 l 1
 104 1262 55 1282 8 1292 c 1
 18 1366 l 1
 524 1366 l 1
 514 1292 l 1
 453 1284 393 1270 336 1237 c 1
 592 702 l 1
 854 1239 l 1
 803 1266 738 1284 672 1292 c 1
 682 1366 l 1
 1133 1366 l 1
 1120 1292 l 1
 1075 1284 1032 1268 995 1239 c 1
 664 567 l 1
 664 131 l 1
 725 96 800 84 872 76 c 1
 864 0 l 1
 274 0 l 1
EndSplineSet
EndChar

StartChar: uni1EF8
Encoding: 7928 7928 155
Width: 1140
GlyphClass: 2
Flags: HMW
HStem: 0 76<274 285 285 285 285 864> 1292 74<8 524 514 514 1120 1120> 1497 127<669 737 669 762> 1569 127<442 511>
VStem: 483 180<131 543 543 543>
AnchorPoint: "Anchor-3" 590 1366 basechar 0
LayerCount: 2
Fore
SplineSet
336 1497 m 1xd8
 307 1505 288 1520 270 1536 c 1
 293 1591 362 1696 475 1696 c 0xd8
 565 1696 629 1624 709 1624 c 0
 766 1624 805 1661 844 1700 c 1
 873 1690 891 1677 911 1661 c 1
 886 1606 813 1497 711 1497 c 0xe8
 611 1497 553 1569 469 1569 c 0
 416 1569 375 1536 336 1497 c 1xd8
274 0 m 1
 285 76 l 1
 359 84 420 94 483 131 c 1
 483 543 l 1
 135 1239 l 1
 104 1262 55 1282 8 1292 c 1
 18 1366 l 1
 524 1366 l 1
 514 1292 l 1
 453 1284 393 1270 336 1237 c 1
 592 702 l 1
 854 1239 l 1
 803 1266 738 1284 672 1292 c 1
 682 1366 l 1
 1133 1366 l 1
 1120 1292 l 1
 1075 1284 1032 1268 995 1239 c 1
 664 567 l 1
 664 131 l 1
 725 96 800 84 872 76 c 1
 864 0 l 1
 274 0 l 1
EndSplineSet
EndChar

StartChar: Zacute
Encoding: 377 377 156
Width: 1038
GlyphClass: 2
Flags: HMW
HStem: -6 43G<973 973> 0 106<360 546> 1026 350<123 136> 1262 115 1294 82 1327 49
VStem: 82 90
AnchorPoint: "Anchor-3" 565 1366 basechar 0
LayerCount: 2
Fore
SplineSet
508 1423 m 1x52
 463 1473 l 1
 633 1710 l 2
 651 1735 669 1745 698 1745 c 0
 737 1745 772 1710 772 1673 c 0
 772 1640 754 1618 721 1593 c 2
 508 1423 l 1x52
55 -8 m 1x92
 49 94 l 1
 758 1260 l 1
 695 1262 620 1262 520 1262 c 0
 424 1262 362 1259 270 1257 c 1x92
 221 1214 186 1112 172 1028 c 1
 160 1028 143 1026 129 1026 c 0
 119 1026 104 1026 94 1028 c 1x62
 70 1327 l 1
 123 1376 l 1
 123 1376 369 1366 578 1366 c 0x46
 752 1366 920 1374 975 1376 c 1x52
 993 1294 l 1
 266 106 l 1
 327 104 676 104 768 106 c 1
 827 178 876 271 903 371 c 1
 915 373 934 375 946 375 c 0
 962 375 977 373 991 371 c 1
 973 -6 l 1
 879 -2 631 0 461 0 c 0x4a
 260 0 69 -6 55 -8 c 1x92
EndSplineSet
EndChar

StartChar: Zcaron
Encoding: 381 381 157
Width: 1038
GlyphClass: 2
Flags: HMW
HStem: -6 43G<973 973> 0 106<360 546> 1026 350<123 136> 1262 115 1294 82 1327 49
VStem: 82 90
AnchorPoint: "Anchor-3" 565 1366 basechar 0
LayerCount: 2
Fore
SplineSet
565 1430 m 0x52
 540 1430 520 1442 502 1462 c 2
 313 1679 l 1
 358 1731 l 1
 565 1573 l 1
 774 1731 l 1
 819 1679 l 1
 629 1462 l 2
 611 1439 590 1430 565 1430 c 0x52
55 -8 m 1x92
 49 94 l 1
 758 1260 l 1
 695 1262 620 1262 520 1262 c 0
 424 1262 362 1259 270 1257 c 1x92
 221 1214 186 1112 172 1028 c 1
 160 1028 143 1026 129 1026 c 0
 119 1026 104 1026 94 1028 c 1x62
 70 1327 l 1
 123 1376 l 1
 123 1376 369 1366 578 1366 c 0x46
 752 1366 920 1374 975 1376 c 1x52
 993 1294 l 1
 266 106 l 1
 327 104 676 104 768 106 c 1
 827 178 876 271 903 371 c 1
 915 373 934 375 946 375 c 0
 962 375 977 373 991 371 c 1
 973 -6 l 1
 879 -2 631 0 461 0 c 0x4a
 260 0 69 -6 55 -8 c 1x92
EndSplineSet
EndChar

StartChar: Zdotaccent
Encoding: 379 379 158
Width: 1038
GlyphClass: 2
Flags: HMW
HStem: -6 43G<973 973> 0 106<360 546> 1026 350<123 136> 1262 115 1294 82 1327 49 1464 238<528 601>
VStem: 82 90 459 215<1545 1621>
AnchorPoint: "Anchor-3" 565 1366 basechar 0
LayerCount: 2
Fore
SplineSet
565 1464 m 0x5380
 491 1464 459 1507 459 1583 c 0
 459 1659 491 1702 565 1702 c 0
 637 1702 674 1659 674 1583 c 0
 674 1507 637 1464 565 1464 c 0x5380
55 -8 m 1x9380
 49 94 l 1
 758 1260 l 1
 695 1262 620 1262 520 1262 c 0
 424 1262 362 1259 270 1257 c 1x9380
 221 1214 186 1112 172 1028 c 1
 160 1028 143 1026 129 1026 c 0
 119 1026 104 1026 94 1028 c 1x6380
 70 1327 l 1
 123 1376 l 1
 123 1376 369 1366 578 1366 c 0x4780
 752 1366 920 1374 975 1376 c 1x5380
 993 1294 l 1
 266 106 l 1
 327 104 676 104 768 106 c 1
 827 178 876 271 903 371 c 1
 915 373 934 375 946 375 c 0
 962 375 977 373 991 371 c 1
 973 -6 l 1
 879 -2 631 0 461 0 c 0x4b80
 260 0 69 -6 55 -8 c 1x9380
EndSplineSet
EndChar

StartChar: aacute
Encoding: 225 225 159
Width: 962
GlyphClass: 2
Flags: HMW
HStem: -14 84<325 375> 0 70 439 85 893 82<368 485>
VStem: 53 180<182 292 182 308> 78 174<783 815> 604 174<188 446 446 446 530 696 125 765>
AnchorPoint: "Anchor-3" 428 956 basechar 0
AnchorPoint: "Anchor-2" 774 0 basechar 0
LayerCount: 2
Fore
SplineSet
371 1118 m 1xb6
 326 1167 l 1
 496 1405 l 2
 514 1430 532 1440 561 1440 c 0
 600 1440 635 1405 635 1368 c 0
 635 1335 617 1313 584 1288 c 2
 371 1118 l 1xb6
319 -14 m 0xba
 151 -14 53 72 53 219 c 0xba
 53 397 186 502 436 518 c 2
 604 530 l 1
 604 696 l 2
 604 833 549 893 422 893 c 0
 313 893 252 858 252 801 c 0
 252 766 274 739 313 725 c 1
 313 662 273 627 197 627 c 0
 125 627 78 673 78 745 c 0
 78 884 211 975 422 975 c 0
 645 975 778 872 778 696 c 2
 778 125 l 1
 803 107 863 82 922 70 c 1xb6
 913 0 l 1
 631 0 l 1x76
 610 92 l 1
 520 8 430 -14 319 -14 c 0xba
371 70 m 0
 449 70 516 104 604 188 c 1
 604 446 l 1
 440 432 l 2
 311 422 233 347 233 238 c 0
 233 127 279 70 371 70 c 0
EndSplineSet
EndChar

StartChar: abreve
Encoding: 259 259 160
Width: 962
GlyphClass: 2
Flags: HMW
HStem: -14 84<325 375> 0 70 439 85 893 82<368 485> 1135 111<407 500 407 521> 1337 41G 1350 41G<276 293 614 631>
VStem: 53 180<182 292 182 308> 78 174<783 815> 213 80 604 174<188 446 446 446 530 696 125 765> 614 78
AnchorPoint: "Anchor-3" 428 956 basechar 0
AnchorPoint: "Anchor-2" 774 0 basechar 0
LayerCount: 2
Fore
SplineSet
453 1135 m 0xbc50
 316 1135 221 1231 213 1376 c 1
 238 1384 260 1391 293 1391 c 1
 299 1305 361 1245 453 1245 c 0
 547 1245 608 1305 614 1391 c 1xba50
 647 1391 669 1386 692 1378 c 1
 686 1231 590 1135 453 1135 c 0xbc50
319 -14 m 0xbb20
 151 -14 53 72 53 219 c 0xbb20
 53 397 186 502 436 518 c 2
 604 530 l 1
 604 696 l 2
 604 833 549 893 422 893 c 0
 313 893 252 858 252 801 c 0
 252 766 274 739 313 725 c 1
 313 662 273 627 197 627 c 0
 125 627 78 673 78 745 c 0
 78 884 211 975 422 975 c 0
 645 975 778 872 778 696 c 2
 778 125 l 1
 803 107 863 82 922 70 c 1xbaa0
 913 0 l 1
 631 0 l 1x7aa0
 610 92 l 1
 520 8 430 -14 319 -14 c 0xbb20
371 70 m 0
 449 70 516 104 604 188 c 1
 604 446 l 1
 440 432 l 2
 311 422 233 347 233 238 c 0
 233 127 279 70 371 70 c 0
EndSplineSet
EndChar

StartChar: acircumflex
Encoding: 226 226 161
Width: 962
GlyphClass: 2
Flags: HMW
HStem: -14 84<325 375> 0 70 439 85 893 82<368 485>
VStem: 53 180<182 292 182 308> 78 174<783 815> 604 174<188 446 446 446 530 696 125 765>
AnchorPoint: "Anchor-3" 428 956 basechar 0
AnchorPoint: "Anchor-2" 774 0 basechar 0
LayerCount: 2
Fore
SplineSet
221 1120 m 1xb6
 176 1169 l 1
 367 1389 l 2
 385 1409 405 1421 430 1421 c 0
 455 1421 476 1412 494 1389 c 2
 682 1169 l 1
 635 1120 l 1
 428 1278 l 1
 221 1120 l 1xb6
319 -14 m 0xba
 151 -14 53 72 53 219 c 0xba
 53 397 186 502 436 518 c 2
 604 530 l 1
 604 696 l 2
 604 833 549 893 422 893 c 0
 313 893 252 858 252 801 c 0
 252 766 274 739 313 725 c 1
 313 662 273 627 197 627 c 0
 125 627 78 673 78 745 c 0
 78 884 211 975 422 975 c 0
 645 975 778 872 778 696 c 2
 778 125 l 1
 803 107 863 82 922 70 c 1xb6
 913 0 l 1
 631 0 l 1x76
 610 92 l 1
 520 8 430 -14 319 -14 c 0xba
371 70 m 0
 449 70 516 104 604 188 c 1
 604 446 l 1
 440 432 l 2
 311 422 233 347 233 238 c 0
 233 127 279 70 371 70 c 0
EndSplineSet
EndChar

StartChar: adieresis
Encoding: 228 228 162
Width: 962
GlyphClass: 2
Flags: HMW
HStem: -14 84<325 375> 0 70 439 85 893 82<368 485> 1143 215<224 290 565 631>
VStem: 53 180<182 292 182 308> 78 174<783 815> 162 193<1217 1285> 504 193<1217 1285> 604 174<188 446 446 446 530 696 125 765>
AnchorPoint: "Anchor-3" 428 956 basechar 0
AnchorPoint: "Anchor-2" 774 0 basechar 0
LayerCount: 2
Fore
SplineSet
258 1143 m 0xb980
 190 1143 162 1181 162 1251 c 0
 162 1319 190 1358 258 1358 c 0
 321 1358 354 1319 354 1251 c 0
 354 1181 321 1143 258 1143 c 0xb980
598 1143 m 0
 532 1143 504 1181 504 1251 c 0
 504 1319 532 1358 598 1358 c 0
 664 1358 696 1319 696 1251 c 0
 696 1181 664 1143 598 1143 c 0
319 -14 m 0xbc40
 151 -14 53 72 53 219 c 0xbc40
 53 397 186 502 436 518 c 2
 604 530 l 1
 604 696 l 2
 604 833 549 893 422 893 c 0
 313 893 252 858 252 801 c 0
 252 766 274 739 313 725 c 1
 313 662 273 627 197 627 c 0
 125 627 78 673 78 745 c 0
 78 884 211 975 422 975 c 0
 645 975 778 872 778 696 c 2
 778 125 l 1
 803 107 863 82 922 70 c 1xba40
 913 0 l 1
 631 0 l 1x7a40
 610 92 l 1
 520 8 430 -14 319 -14 c 0xbc40
371 70 m 0
 449 70 516 104 604 188 c 1
 604 446 l 1
 440 432 l 2
 311 422 233 347 233 238 c 0
 233 127 279 70 371 70 c 0
EndSplineSet
EndChar

StartChar: agrave
Encoding: 224 224 163
Width: 962
GlyphClass: 2
Flags: HMW
HStem: -14 84<325 375> 0 70 439 85 893 82<368 485>
VStem: 53 180<182 292 182 308> 78 174<783 815> 604 174<188 446 446 446 530 696 125 765>
AnchorPoint: "Anchor-3" 428 956 basechar 0
AnchorPoint: "Anchor-2" 774 0 basechar 0
LayerCount: 2
Fore
SplineSet
483 1118 m 1xb6
 274 1288 l 2
 243 1315 223 1335 223 1368 c 0
 223 1405 258 1440 297 1440 c 0
 326 1440 344 1430 362 1405 c 2
 532 1167 l 1
 483 1118 l 1xb6
319 -14 m 0xba
 151 -14 53 72 53 219 c 0xba
 53 397 186 502 436 518 c 2
 604 530 l 1
 604 696 l 2
 604 833 549 893 422 893 c 0
 313 893 252 858 252 801 c 0
 252 766 274 739 313 725 c 1
 313 662 273 627 197 627 c 0
 125 627 78 673 78 745 c 0
 78 884 211 975 422 975 c 0
 645 975 778 872 778 696 c 2
 778 125 l 1
 803 107 863 82 922 70 c 1xb6
 913 0 l 1
 631 0 l 1x76
 610 92 l 1
 520 8 430 -14 319 -14 c 0xba
371 70 m 0
 449 70 516 104 604 188 c 1
 604 446 l 1
 440 432 l 2
 311 422 233 347 233 238 c 0
 233 127 279 70 371 70 c 0
EndSplineSet
EndChar

StartChar: amacron
Encoding: 257 257 164
Width: 962
GlyphClass: 2
Flags: HMW
HStem: -14 84<325 375> 0 70 439 85 893 82<368 485> 1184 90<143 713 143 713>
VStem: 53 180<182 292 182 308> 78 174<783 815> 604 174<188 446 446 446 530 696 125 765>
AnchorPoint: "Anchor-3" 428 956 basechar 0
AnchorPoint: "Anchor-2" 774 0 basechar 0
LayerCount: 2
Fore
SplineSet
143 1184 m 1xbb
 143 1274 l 1
 713 1274 l 1
 713 1184 l 1
 143 1184 l 1xbb
319 -14 m 0xbd
 151 -14 53 72 53 219 c 0xbd
 53 397 186 502 436 518 c 2
 604 530 l 1
 604 696 l 2
 604 833 549 893 422 893 c 0
 313 893 252 858 252 801 c 0
 252 766 274 739 313 725 c 1
 313 662 273 627 197 627 c 0
 125 627 78 673 78 745 c 0
 78 884 211 975 422 975 c 0
 645 975 778 872 778 696 c 2
 778 125 l 1
 803 107 863 82 922 70 c 1xbb
 913 0 l 1
 631 0 l 1x7b
 610 92 l 1
 520 8 430 -14 319 -14 c 0xbd
371 70 m 0
 449 70 516 104 604 188 c 1
 604 446 l 1
 440 432 l 2
 311 422 233 347 233 238 c 0
 233 127 279 70 371 70 c 0
EndSplineSet
EndChar

StartChar: aogonek
Encoding: 261 261 165
Width: 962
GlyphClass: 2
Flags: HMW
HStem: -418 92<652 663> -14 84<325 375> 0 43G<774 774 774 913> 439 85 893 82<368 485>
VStem: 53 180<182 292 182 308> 78 174<783 815> 453 139<-261 -229> 604 174<188 446 446 446 530 696>
AnchorPoint: "Anchor-3" 428 956 basechar 0
AnchorPoint: "Anchor-2" 774 0 basechar 0
LayerCount: 2
Fore
SplineSet
774 0 m 1xba80
 651 -31 592 -147 592 -227 c 0
 592 -295 627 -326 678 -326 c 0
 705 -326 737 -318 778 -295 c 1
 813 -338 l 1
 764 -391 694 -418 631 -418 c 0
 533 -418 453 -358 453 -264 c 0
 453 -194 500 -135 535 -98 c 0
 568 -61 604 -19 627 20 c 1
 610 92 l 1
 520 8 430 -14 319 -14 c 0
 151 -14 53 72 53 219 c 0xdd
 53 397 186 502 436 518 c 2
 604 530 l 1
 604 696 l 2
 604 833 549 893 422 893 c 0
 313 893 252 858 252 801 c 0
 252 766 274 739 313 725 c 1
 313 662 273 627 197 627 c 0
 125 627 78 673 78 745 c 0
 78 884 211 975 422 975 c 0
 645 975 778 872 778 696 c 2
 778 125 l 1
 803 107 863 82 922 70 c 1xda80
 913 0 l 1
 774 0 l 1xba80
604 188 m 1xdc80
 604 446 l 1
 440 432 l 2
 311 422 233 347 233 238 c 0
 233 127 279 70 371 70 c 0
 449 70 516 104 604 188 c 1xdc80
EndSplineSet
EndChar

StartChar: aring
Encoding: 229 229 166
Width: 962
GlyphClass: 2
Flags: HMW
HStem: -14 84<325 375> 0 70 439 85 893 82<368 485> 1106 80<402 453 402 480> 1366 78<402 453>
VStem: 53 180<182 292 182 308> 78 174<783 815> 254 86<1250 1298 1250 1323> 520 84<1250 1298> 604 174<188 446 446 446 530 696 125 765>
AnchorPoint: "Anchor-3" 428 956 basechar 0
AnchorPoint: "Anchor-2" 774 0 basechar 0
LayerCount: 2
Fore
SplineSet
428 1106 m 0xbcc0
 322 1106 254 1178 254 1274 c 0
 254 1372 322 1444 428 1444 c 0
 532 1444 604 1372 604 1274 c 0
 604 1178 532 1106 428 1106 c 0xbcc0
428 1186 m 0
 477 1186 520 1227 520 1274 c 0
 520 1323 477 1366 428 1366 c 0
 377 1366 340 1323 340 1274 c 0
 340 1227 377 1186 428 1186 c 0
319 -14 m 0xbe20
 151 -14 53 72 53 219 c 0xbe20
 53 397 186 502 436 518 c 2
 604 530 l 1
 604 696 l 2
 604 833 549 893 422 893 c 0
 313 893 252 858 252 801 c 0
 252 766 274 739 313 725 c 1
 313 662 273 627 197 627 c 0
 125 627 78 673 78 745 c 0
 78 884 211 975 422 975 c 0
 645 975 778 872 778 696 c 2
 778 125 l 1
 803 107 863 82 922 70 c 1xbd20
 913 0 l 1
 631 0 l 1x7d20
 610 92 l 1
 520 8 430 -14 319 -14 c 0xbe20
371 70 m 0
 449 70 516 104 604 188 c 1
 604 446 l 1
 440 432 l 2
 311 422 233 347 233 238 c 0
 233 127 279 70 371 70 c 0
EndSplineSet
EndChar

StartChar: aringacute
Encoding: 507 507 167
Width: 962
GlyphClass: 2
Flags: HMW
HStem: -14 84<325 375> 0 70 439 85 893 74 893 109<417 467 417 485> 920 41G 926 41G 1182 76<412 467> 1182 78<440 442 442 467>
VStem: 53 180<182 292 182 308> 78 174<783 803> 268 86<1066 1114 1066 1134> 535 84<1066 1114> 604 174<188 446 446 446 530 696>
AnchorPoint: "Anchor-3" 428 956 basechar 0
AnchorPoint: "Anchor-2" 774 0 basechar 0
LayerCount: 2
Fore
SplineSet
778 125 m 1xa2a4
 803 107 863 82 922 70 c 1xa2a4
 913 0 l 1
 631 0 l 1x62a4
 610 92 l 1
 520 8 430 -14 319 -14 c 0
 151 -14 53 72 53 219 c 0xa2c4
 53 397 186 502 436 518 c 2
 604 530 l 1
 604 696 l 2
 604 833 549 893 422 893 c 0
 313 893 252 858 252 801 c 0
 252 766 274 739 313 725 c 1xb0a4
 313 662 273 627 197 627 c 0
 125 627 78 673 78 745 c 0xa2a4
 78 860 167 942 317 967 c 1
 286 998 268 1041 268 1090 c 0
 268 1178 324 1245 412 1257 c 1
 377 1294 l 1xa334
 547 1532 l 2
 565 1557 583 1567 612 1567 c 0
 651 1567 686 1532 686 1495 c 0
 686 1462 668 1440 635 1415 c 2
 440 1260 l 1
 442 1260 l 2
 546 1260 618 1188 618 1090 c 0xa4a8
 618 1037 596 990 559 961 c 1xa4a4
 698 926 778 833 778 696 c 2
 778 125 l 1xa2a4
442 1182 m 0xa8b8
 391 1182 354 1139 354 1090 c 0
 354 1043 391 1001 442 1001 c 0
 491 1001 535 1043 535 1090 c 0
 535 1139 491 1182 442 1182 c 0xa8b8
604 188 m 1xa2c4
 604 446 l 1
 440 432 l 2
 311 422 233 347 233 238 c 0
 233 127 279 70 371 70 c 0
 449 70 516 104 604 188 c 1xa2c4
EndSplineSet
EndChar

StartChar: atilde
Encoding: 227 227 168
Width: 962
GlyphClass: 2
Flags: HMW
HStem: -14 84<325 375> 0 70 439 85 893 82<368 485> 1137 127<507 575 507 600> 1208 127<281 349>
VStem: 53 180<182 292 182 308> 78 174<783 815> 604 174<188 446 446 446 530 696 125 765>
AnchorPoint: "Anchor-3" 428 956 basechar 0
AnchorPoint: "Anchor-2" 774 0 basechar 0
LayerCount: 2
Fore
SplineSet
174 1137 m 1xb580
 145 1145 127 1160 109 1176 c 1
 132 1231 200 1335 313 1335 c 0xb580
 403 1335 467 1264 547 1264 c 0
 604 1264 643 1300 682 1339 c 1
 711 1329 730 1316 750 1300 c 1
 725 1245 651 1137 549 1137 c 0xb980
 449 1137 391 1208 307 1208 c 0
 254 1208 213 1176 174 1137 c 1xb580
319 -14 m 0xb680
 151 -14 53 72 53 219 c 0xb680
 53 397 186 502 436 518 c 2
 604 530 l 1
 604 696 l 2
 604 833 549 893 422 893 c 0
 313 893 252 858 252 801 c 0
 252 766 274 739 313 725 c 1
 313 662 273 627 197 627 c 0
 125 627 78 673 78 745 c 0
 78 884 211 975 422 975 c 0
 645 975 778 872 778 696 c 2
 778 125 l 1
 803 107 863 82 922 70 c 1xb580
 913 0 l 1
 631 0 l 1x7580
 610 92 l 1
 520 8 430 -14 319 -14 c 0xb680
371 70 m 0
 449 70 516 104 604 188 c 1
 604 446 l 1
 440 432 l 2
 311 422 233 347 233 238 c 0
 233 127 279 70 371 70 c 0
EndSplineSet
EndChar

StartChar: ae
Encoding: 230 230 169
Width: 1449
GlyphClass: 2
Flags: HMW
HStem: -14 84<325 404> -14 100<949 1121 930 1133> 439 85 498 90<1221 1221 1221 1362> 893 82<368 485 966 1102>
VStem: 53 180<182 292 182 308> 78 172<783 815> 602 190<373 446 446 446 373 696> 1221 184<553 689>
AnchorPoint: "Anchor-5" 729 0 basechar 0
AnchorPoint: "Anchor-3" 729 956 basechar 0
LayerCount: 2
Fore
SplineSet
319 -14 m 0x5d80
 151 -14 53 72 53 219 c 0x6d80
 53 397 186 502 436 518 c 2
 602 530 l 1
 602 696 l 2
 602 833 549 893 422 893 c 0
 313 893 250 858 250 801 c 0
 250 766 274 739 313 725 c 1
 313 662 273 627 197 627 c 0
 125 627 78 673 78 745 c 0x6b80
 78 884 211 975 422 975 c 0
 563 975 668 934 725 858 c 1
 797 934 899 975 1032 975 c 0
 1319 975 1397 811 1405 553 c 1
 1362 498 l 1
 793 498 l 1
 793 487 l 2
 793 258 815 86 1044 86 c 0
 1198 86 1307 182 1307 182 c 1
 1358 121 l 1
 1358 121 1229 -14 1036 -14 c 0
 862 -14 750 39 684 139 c 1
 594 55 489 -14 319 -14 c 0x5d80
793 573 m 1
 955 575 1221 588 1221 588 c 1
 1221 791 1180 893 1024 893 c 0
 860 893 797 757 793 573 c 1
371 70 m 0xad80
 449 70 514 104 602 188 c 1
 602 446 l 1
 440 432 l 2
 311 422 233 347 233 238 c 0
 233 127 279 70 371 70 c 0xad80
EndSplineSet
EndChar

StartChar: aeacute
Encoding: 509 509 170
Width: 1449
GlyphClass: 2
Flags: HMW
HStem: -14 84<325 404> -14 100<949 1121 930 1133> 439 85 498 90<1221 1221 1221 1362> 893 82<368 485 966 1102>
VStem: 53 180<182 292 182 308> 78 172<783 815> 602 190<373 446 446 446 373 696> 1221 184<553 689>
AnchorPoint: "Anchor-5" 729 0 basechar 0
AnchorPoint: "Anchor-3" 729 956 basechar 0
LayerCount: 2
Fore
SplineSet
672 1118 m 1x5d80
 627 1167 l 1
 797 1405 l 2
 815 1430 833 1440 862 1440 c 0
 901 1440 936 1405 936 1368 c 0
 936 1335 918 1313 885 1288 c 2
 672 1118 l 1x5d80
319 -14 m 0
 151 -14 53 72 53 219 c 0x6d80
 53 397 186 502 436 518 c 2
 602 530 l 1
 602 696 l 2
 602 833 549 893 422 893 c 0
 313 893 250 858 250 801 c 0
 250 766 274 739 313 725 c 1
 313 662 273 627 197 627 c 0
 125 627 78 673 78 745 c 0x6b80
 78 884 211 975 422 975 c 0
 563 975 668 934 725 858 c 1
 797 934 899 975 1032 975 c 0
 1319 975 1397 811 1405 553 c 1
 1362 498 l 1
 793 498 l 1
 793 487 l 2
 793 258 815 86 1044 86 c 0
 1198 86 1307 182 1307 182 c 1
 1358 121 l 1
 1358 121 1229 -14 1036 -14 c 0
 862 -14 750 39 684 139 c 1
 594 55 489 -14 319 -14 c 0
793 573 m 1
 955 575 1221 588 1221 588 c 1
 1221 791 1180 893 1024 893 c 0
 860 893 797 757 793 573 c 1
371 70 m 0xad80
 449 70 514 104 602 188 c 1
 602 446 l 1
 440 432 l 2
 311 422 233 347 233 238 c 0
 233 127 279 70 371 70 c 0xad80
EndSplineSet
EndChar

StartChar: cacute
Encoding: 263 263 171
Width: 862
GlyphClass: 2
Flags: HMW
HStem: -14 100<386 577 386 587> 901 74<391 536>
VStem: 57 190<373 487> 625 188<773 819>
AnchorPoint: "Anchor-4" 485 0 basechar 0
AnchorPoint: "Anchor-3" 475 956 basechar 0
LayerCount: 2
Fore
SplineSet
418 1118 m 1
 373 1167 l 1
 543 1405 l 2
 561 1430 579 1440 608 1440 c 0
 647 1440 682 1405 682 1368 c 0
 682 1335 664 1313 631 1288 c 2
 418 1118 l 1
489 -14 m 0
 170 -14 57 168 57 487 c 0
 61 809 211 975 498 975 c 0
 686 975 813 887 813 758 c 0
 813 695 764 637 705 637 c 0
 654 637 610 668 598 711 c 1
 614 738 625 761 625 784 c 0
 625 854 574 901 498 901 c 0
 285 901 248 704 248 487 c 0
 248 258 273 86 500 86 c 0
 654 86 760 182 760 182 c 1
 813 121 l 1
 813 121 684 -14 489 -14 c 0
EndSplineSet
EndChar

StartChar: ccaron
Encoding: 269 269 172
Width: 862
GlyphClass: 2
Flags: HMW
HStem: -14 100<386 577 386 587> 901 74<391 536> 1329 41G<223 223 729 729>
VStem: 57 190<373 487> 625 188<773 819>
AnchorPoint: "Anchor-4" 485 0 basechar 0
AnchorPoint: "Anchor-3" 475 956 basechar 0
LayerCount: 2
Fore
SplineSet
475 1120 m 0
 450 1120 430 1133 412 1153 c 2
 223 1370 l 1
 268 1421 l 1
 475 1264 l 1
 684 1421 l 1
 729 1370 l 1
 539 1153 l 2
 521 1130 500 1120 475 1120 c 0
489 -14 m 0
 170 -14 57 168 57 487 c 0
 61 809 211 975 498 975 c 0
 686 975 813 887 813 758 c 0
 813 695 764 637 705 637 c 0
 654 637 610 668 598 711 c 1
 614 738 625 761 625 784 c 0
 625 854 574 901 498 901 c 0
 285 901 248 704 248 487 c 0
 248 258 273 86 500 86 c 0
 654 86 760 182 760 182 c 1
 813 121 l 1
 813 121 684 -14 489 -14 c 0
EndSplineSet
EndChar

StartChar: ccedilla
Encoding: 231 231 173
Width: 862
GlyphClass: 2
Flags: HMW
HStem: -418 68<414 469 414 493> -12 98<440 440> 901 74<391 536>
VStem: 57 190<373 487> 250 96<-283 -262> 526 104<-282 -217> 625 188<773 819>
AnchorPoint: "Anchor-4" 485 0 basechar 0
AnchorPoint: "Anchor-3" 475 956 basechar 0
LayerCount: 2
Fore
SplineSet
500 86 m 0xf4
 654 86 760 182 760 182 c 1
 813 121 l 1
 813 121 690 -8 504 -14 c 1
 475 -94 l 1
 569 -112 631 -152 631 -256 c 0
 631 -346 549 -418 436 -418 c 0
 303 -418 250 -344 250 -283 c 0
 250 -242 274 -203 317 -203 c 0
 329 -203 340 -205 354 -211 c 1
 350 -225 346 -240 346 -254 c 0
 346 -311 389 -350 438 -350 c 0
 499 -350 526 -316 526 -248 c 0
 526 -187 473 -164 414 -156 c 1
 377 -115 l 1xec
 440 -12 l 1
 157 6 57 184 57 487 c 0
 61 809 211 975 498 975 c 0
 686 975 813 887 813 758 c 0
 813 695 764 637 705 637 c 0
 654 637 610 668 598 711 c 1
 614 738 625 761 625 784 c 0xf2
 625 854 574 901 498 901 c 0
 285 901 248 704 248 487 c 0
 248 258 273 86 500 86 c 0xf4
EndSplineSet
EndChar

StartChar: ccircumflex
Encoding: 265 265 174
Width: 862
GlyphClass: 2
Flags: HMW
HStem: -14 100<386 577 386 587> 901 74<391 536>
VStem: 57 190<373 487> 625 188<773 819>
AnchorPoint: "Anchor-4" 485 0 basechar 0
AnchorPoint: "Anchor-3" 475 956 basechar 0
LayerCount: 2
Fore
SplineSet
268 1120 m 1
 223 1169 l 1
 414 1389 l 2
 432 1409 452 1421 477 1421 c 0
 502 1421 523 1412 541 1389 c 2
 729 1169 l 1
 682 1120 l 1
 475 1278 l 1
 268 1120 l 1
489 -14 m 0
 170 -14 57 168 57 487 c 0
 61 809 211 975 498 975 c 0
 686 975 813 887 813 758 c 0
 813 695 764 637 705 637 c 0
 654 637 610 668 598 711 c 1
 614 738 625 761 625 784 c 0
 625 854 574 901 498 901 c 0
 285 901 248 704 248 487 c 0
 248 258 273 86 500 86 c 0
 654 86 760 182 760 182 c 1
 813 121 l 1
 813 121 684 -14 489 -14 c 0
EndSplineSet
EndChar

StartChar: cdotaccent
Encoding: 267 267 175
Width: 862
GlyphClass: 2
Flags: HMW
HStem: -14 100<386 577 386 587> 901 74<391 536> 1133 238<438 511>
VStem: 57 190<373 487> 369 215<1213 1289> 625 188<773 819>
AnchorPoint: "Anchor-4" 485 0 basechar 0
AnchorPoint: "Anchor-3" 475 956 basechar 0
LayerCount: 2
Fore
SplineSet
475 1133 m 0
 401 1133 369 1175 369 1251 c 0
 369 1327 401 1370 475 1370 c 0
 547 1370 584 1327 584 1251 c 0
 584 1175 547 1133 475 1133 c 0
489 -14 m 0
 170 -14 57 168 57 487 c 0
 61 809 211 975 498 975 c 0
 686 975 813 887 813 758 c 0
 813 695 764 637 705 637 c 0
 654 637 610 668 598 711 c 1
 614 738 625 761 625 784 c 0xfc
 625 854 574 901 498 901 c 0
 285 901 248 704 248 487 c 0
 248 258 273 86 500 86 c 0
 654 86 760 182 760 182 c 1
 813 121 l 1
 813 121 684 -14 489 -14 c 0
EndSplineSet
EndChar

StartChar: dcaron
Encoding: 271 271 176
Width: 1163
GlyphClass: 1
Flags: HMW
HStem: -14 88<378 492> 0 70<711 1012> 0 125<870 870 870 1006> 889 86<427 553 371 560> 1296 59<553 557> 1325 41G
VStem: 57 180<327 595 327 627> 694 176<121 1407 459 848 848 848 940 1161 1161 1212> 1032 141<1273 1288>
LayerCount: 2
Fore
SplineSet
432 -14 m 0x97
 184 -14 57 146 57 459 c 0
 57 795 221 975 520 975 c 0
 586 975 639 963 694 940 c 1
 694 1161 l 2
 694 1263 657 1292 553 1296 c 1
 557 1356 l 1
 649 1372 745 1402 829 1427 c 1
 870 1407 l 1
 870 125 l 1x3b
 903 100 953 82 1012 70 c 1
 1006 0 l 1
 711 0 l 1x57
 694 121 l 1
 637 31 551 -14 432 -14 c 0x97
1059 1024 m 1x9780
 977 1055 l 1
 1016 1145 1032 1211 1032 1262 c 0
 1032 1315 1014 1346 983 1366 c 1
 997 1399 1030 1425 1073 1425 c 0
 1134 1425 1174 1376 1174 1315 c 0
 1174 1231 1114 1114 1059 1024 c 1x9780
451 74 m 0
 609 74 694 201 694 459 c 2
 694 848 l 1
 655 868 606 889 514 889 c 0
 340 889 238 731 238 459 c 0
 238 195 306 74 451 74 c 0
EndSplineSet
EndChar

StartChar: dcroat
Encoding: 273 273 177
Width: 1136
GlyphClass: 1
Flags: HMW
HStem: -14 88<378 492> 0 70<711 1012> 0 125<870 870 870 1006> 889 86<427 553 371 560> 1092 90<494 694 494 694 870 1063> 1296 59<553 557>
VStem: 57 180<327 595 327 627> 694 176<121 1092 459 848 848 848 940 1092 125 1092 125 1182>
LayerCount: 2
Fore
SplineSet
1063 1092 m 1x9f
 870 1092 l 1
 870 125 l 1x3f
 903 100 953 82 1012 70 c 1
 1006 0 l 1
 711 0 l 1x5f
 694 121 l 1
 637 31 551 -14 432 -14 c 0
 184 -14 57 146 57 459 c 0
 57 795 221 975 520 975 c 0
 586 975 639 963 694 940 c 1
 694 1092 l 1
 494 1092 l 1
 494 1182 l 1
 694 1182 l 1
 688 1268 649 1292 553 1296 c 1
 557 1356 l 1
 649 1372 745 1402 829 1427 c 1
 870 1407 l 1
 870 1182 l 1
 1063 1182 l 1
 1063 1092 l 1x9f
694 459 m 2
 694 848 l 1
 655 868 606 889 514 889 c 0
 340 889 238 731 238 459 c 0
 238 195 306 74 451 74 c 0x9f
 609 74 694 201 694 459 c 2
EndSplineSet
EndChar

StartChar: eacute
Encoding: 233 233 178
Width: 903
GlyphClass: 2
Flags: HMW
HStem: -14 100<383 561 383 571> 498 83 893 82<395 555>
VStem: 57 188<373 487 487 498 373 573 373 636> 674 184<553 690>
AnchorPoint: "Anchor-3" 457 956 basechar 0
AnchorPoint: "Anchor-2" 719 0 basechar 0
LayerCount: 2
Fore
SplineSet
399 1118 m 1
 354 1167 l 1
 524 1405 l 2
 542 1430 561 1440 590 1440 c 0
 629 1440 664 1405 664 1368 c 0
 664 1335 645 1313 612 1288 c 2
 399 1118 l 1
485 -14 m 0
 168 -14 57 168 57 487 c 0
 57 784 200 975 485 975 c 0
 772 975 850 811 858 553 c 1
 815 498 l 1
 246 498 l 1
 246 487 l 2
 246 258 269 86 498 86 c 0
 625 86 723 153 760 182 c 1
 811 121 l 1
 774 86 657 -14 485 -14 c 0
246 573 m 1
 674 588 l 1
 674 793 633 893 477 893 c 0
 313 893 250 759 246 573 c 1
EndSplineSet
EndChar

StartChar: ebreve
Encoding: 277 277 179
Width: 903
GlyphClass: 2
Flags: HMW
HStem: -14 100<383 561 383 571> 498 83 893 82<395 555> 1135 111<435 528 435 550> 1337 41G 1350 41G<305 322 643 659>
VStem: 57 188<373 487 487 498 373 573 373 636> 242 80 643 78 674 184<553 690>
AnchorPoint: "Anchor-3" 457 956 basechar 0
AnchorPoint: "Anchor-2" 719 0 basechar 0
LayerCount: 2
Fore
SplineSet
481 1135 m 0xf980
 344 1135 250 1231 242 1376 c 1
 267 1384 289 1391 322 1391 c 1
 328 1305 389 1245 481 1245 c 0
 575 1245 637 1305 643 1391 c 1xf580
 676 1391 698 1386 721 1378 c 1
 715 1231 618 1135 481 1135 c 0xf980
485 -14 m 0xf640
 168 -14 57 168 57 487 c 0
 57 784 200 975 485 975 c 0
 772 975 850 811 858 553 c 1
 815 498 l 1
 246 498 l 1
 246 487 l 2
 246 258 269 86 498 86 c 0
 625 86 723 153 760 182 c 1
 811 121 l 1
 774 86 657 -14 485 -14 c 0xf640
246 573 m 1
 674 588 l 1
 674 793 633 893 477 893 c 0
 313 893 250 759 246 573 c 1
EndSplineSet
EndChar

StartChar: ecaron
Encoding: 283 283 180
Width: 903
GlyphClass: 2
Flags: HMW
HStem: -14 100<383 561 383 571> 498 83 893 82<395 555> 1329 41G<205 205 711 711>
VStem: 57 188<373 487 487 498 373 573 373 636> 674 184<553 690>
AnchorPoint: "Anchor-3" 457 956 basechar 0
AnchorPoint: "Anchor-2" 719 0 basechar 0
LayerCount: 2
Fore
SplineSet
457 1120 m 0
 432 1120 411 1133 393 1153 c 2
 205 1370 l 1
 250 1421 l 1
 457 1264 l 1
 666 1421 l 1
 711 1370 l 1
 520 1153 l 2
 502 1130 482 1120 457 1120 c 0
485 -14 m 0
 168 -14 57 168 57 487 c 0
 57 784 200 975 485 975 c 0
 772 975 850 811 858 553 c 1
 815 498 l 1
 246 498 l 1
 246 487 l 2
 246 258 269 86 498 86 c 0
 625 86 723 153 760 182 c 1
 811 121 l 1
 774 86 657 -14 485 -14 c 0
246 573 m 1
 674 588 l 1
 674 793 633 893 477 893 c 0
 313 893 250 759 246 573 c 1
EndSplineSet
EndChar

StartChar: ecircumflex
Encoding: 234 234 181
Width: 903
GlyphClass: 2
Flags: HMW
HStem: -14 100<383 561 383 571> 498 83 893 82<395 555>
VStem: 57 188<373 487 487 498 373 573 373 636> 674 184<553 690>
AnchorPoint: "Anchor-3" 457 956 basechar 0
AnchorPoint: "Anchor-2" 719 0 basechar 0
LayerCount: 2
Fore
SplineSet
250 1120 m 1
 205 1169 l 1
 395 1389 l 2
 413 1409 434 1421 459 1421 c 0
 484 1421 504 1412 522 1389 c 2
 711 1169 l 1
 664 1120 l 1
 457 1278 l 1
 250 1120 l 1
485 -14 m 0
 168 -14 57 168 57 487 c 0
 57 784 200 975 485 975 c 0
 772 975 850 811 858 553 c 1
 815 498 l 1
 246 498 l 1
 246 487 l 2
 246 258 269 86 498 86 c 0
 625 86 723 153 760 182 c 1
 811 121 l 1
 774 86 657 -14 485 -14 c 0
246 573 m 1
 674 588 l 1
 674 793 633 893 477 893 c 0
 313 893 250 759 246 573 c 1
EndSplineSet
EndChar

StartChar: edieresis
Encoding: 235 235 182
Width: 903
GlyphClass: 2
Flags: HMW
HStem: -14 100<383 561 383 571> 498 83 893 82<395 555> 1143 215<253 318 594 659>
VStem: 57 188<373 487 487 498 373 573 373 636> 190 193<1217 1285> 532 193<1217 1285> 674 184<553 690>
AnchorPoint: "Anchor-3" 457 956 basechar 0
AnchorPoint: "Anchor-2" 719 0 basechar 0
LayerCount: 2
Fore
SplineSet
287 1143 m 0xf6
 219 1143 190 1181 190 1251 c 0
 190 1319 219 1358 287 1358 c 0
 350 1358 383 1319 383 1251 c 0
 383 1181 350 1143 287 1143 c 0xf6
627 1143 m 0
 561 1143 532 1181 532 1251 c 0
 532 1319 561 1358 627 1358 c 0
 693 1358 725 1319 725 1251 c 0
 725 1181 693 1143 627 1143 c 0
485 -14 m 0xe9
 168 -14 57 168 57 487 c 0
 57 784 200 975 485 975 c 0
 772 975 850 811 858 553 c 1
 815 498 l 1
 246 498 l 1
 246 487 l 2
 246 258 269 86 498 86 c 0
 625 86 723 153 760 182 c 1
 811 121 l 1
 774 86 657 -14 485 -14 c 0xe9
246 573 m 1
 674 588 l 1
 674 793 633 893 477 893 c 0
 313 893 250 759 246 573 c 1
EndSplineSet
EndChar

StartChar: edotaccent
Encoding: 279 279 183
Width: 903
GlyphClass: 2
Flags: HMW
HStem: -14 100<383 561 383 571> 498 83 893 82<395 555> 1133 238<420 493>
VStem: 57 188<373 487 487 498 373 573 373 636> 350 215<1213 1289> 674 184<553 690>
AnchorPoint: "Anchor-3" 457 956 basechar 0
AnchorPoint: "Anchor-2" 719 0 basechar 0
LayerCount: 2
Fore
SplineSet
457 1133 m 0
 383 1133 350 1175 350 1251 c 0
 350 1327 383 1370 457 1370 c 0
 529 1370 565 1327 565 1251 c 0
 565 1175 529 1133 457 1133 c 0
485 -14 m 0
 168 -14 57 168 57 487 c 0
 57 784 200 975 485 975 c 0
 772 975 850 811 858 553 c 1
 815 498 l 1
 246 498 l 1
 246 487 l 2
 246 258 269 86 498 86 c 0
 625 86 723 153 760 182 c 1
 811 121 l 1
 774 86 657 -14 485 -14 c 0
246 573 m 1
 674 588 l 1
 674 793 633 893 477 893 c 0
 313 893 250 759 246 573 c 1
EndSplineSet
EndChar

StartChar: egrave
Encoding: 232 232 184
Width: 903
GlyphClass: 2
Flags: HMW
HStem: -14 100<383 561 383 571> 498 83 893 82<395 555>
VStem: 57 188<373 487 487 498 373 573 373 636> 674 184<553 690>
AnchorPoint: "Anchor-3" 457 956 basechar 0
AnchorPoint: "Anchor-2" 719 0 basechar 0
LayerCount: 2
Fore
SplineSet
512 1118 m 1
 303 1288 l 2
 272 1315 252 1335 252 1368 c 0
 252 1405 287 1440 326 1440 c 0
 355 1440 373 1430 391 1405 c 2
 561 1167 l 1
 512 1118 l 1
485 -14 m 0
 168 -14 57 168 57 487 c 0
 57 784 200 975 485 975 c 0
 772 975 850 811 858 553 c 1
 815 498 l 1
 246 498 l 1
 246 487 l 2
 246 258 269 86 498 86 c 0
 625 86 723 153 760 182 c 1
 811 121 l 1
 774 86 657 -14 485 -14 c 0
246 573 m 1
 674 588 l 1
 674 793 633 893 477 893 c 0
 313 893 250 759 246 573 c 1
EndSplineSet
EndChar

StartChar: emacron
Encoding: 275 275 185
Width: 903
GlyphClass: 2
Flags: HMW
HStem: -14 100<383 561 383 571> 498 83 893 82<395 555> 1184 90<172 741 172 741>
VStem: 57 188<373 487 487 498 373 573 373 636> 674 184<553 690>
AnchorPoint: "Anchor-3" 457 956 basechar 0
AnchorPoint: "Anchor-2" 719 0 basechar 0
LayerCount: 2
Fore
SplineSet
172 1184 m 1
 172 1274 l 1
 741 1274 l 1
 741 1184 l 1
 172 1184 l 1
485 -14 m 0
 168 -14 57 168 57 487 c 0
 57 784 200 975 485 975 c 0
 772 975 850 811 858 553 c 1
 815 498 l 1
 246 498 l 1
 246 487 l 2
 246 258 269 86 498 86 c 0
 625 86 723 153 760 182 c 1
 811 121 l 1
 774 86 657 -14 485 -14 c 0
246 573 m 1
 674 588 l 1
 674 793 633 893 477 893 c 0
 313 893 250 759 246 573 c 1
EndSplineSet
EndChar

StartChar: eogonek
Encoding: 281 281 186
Width: 903
GlyphClass: 2
Flags: HMW
HStem: -418 92<597 607> -14 100<383 497> 498 83 893 82<395 555>
VStem: 57 188<373 487 487 498 373 573 373 636> 397 139<-261 -229> 674 184<553 690>
AnchorPoint: "Anchor-3" 457 956 basechar 0
AnchorPoint: "Anchor-2" 719 0 basechar 0
LayerCount: 2
Fore
SplineSet
815 498 m 1
 246 498 l 1
 246 487 l 2
 246 258 269 86 498 86 c 0
 625 86 723 153 760 182 c 1
 811 121 l 1
 795 107 764 78 719 51 c 0
 596 -37 537 -147 537 -227 c 0
 537 -295 572 -326 623 -326 c 0
 650 -326 682 -318 723 -295 c 1
 758 -338 l 1
 709 -391 638 -418 575 -418 c 0
 477 -418 397 -358 397 -264 c 0
 397 -194 444 -135 479 -98 c 0
 504 -69 530 -39 553 -10 c 1
 530 -12 508 -14 485 -14 c 0
 168 -14 57 168 57 487 c 0
 57 784 200 975 485 975 c 0
 772 975 850 811 858 553 c 1
 815 498 l 1
477 893 m 0
 313 893 250 759 246 573 c 1
 674 588 l 1
 674 793 633 893 477 893 c 0
EndSplineSet
EndChar

StartChar: eth
Encoding: 240 240 187
Width: 1085
GlyphClass: 1
Flags: HMW
HStem: -14 94<452 623 452 677> 889 86<476 596 420 613> 1343 41G<840 840>
VStem: 115 180<333 596 333 628> 780 180<481 539 539 539>
LayerCount: 2
Fore
SplineSet
537 -14 m 0
 256 -14 115 160 115 461 c 0
 115 795 274 975 565 975 c 0
 626 975 678 964 727 944 c 1
 692 1040 641 1113 569 1174 c 1
 268 1059 l 1
 233 1141 l 1
 477 1239 l 1
 424 1274 353 1304 283 1333 c 1
 317 1421 l 1
 423 1382 530 1339 606 1290 c 1
 840 1384 l 1
 881 1292 l 1
 705 1227 l 1
 879 1086 961 889 961 567 c 2
 961 481 l 2
 961 159 818 -14 537 -14 c 0
537 80 m 0
 709 80 780 198 780 481 c 2
 780 539 l 2
 778 695 770 770 758 836 c 1
 715 863 668 889 559 889 c 0
 393 889 295 731 295 461 c 0
 295 205 367 80 537 80 c 0
EndSplineSet
EndChar

StartChar: uni1EBD
Encoding: 7869 7869 188
Width: 903
GlyphClass: 2
Flags: HMW
HStem: -14 100<383 561 383 571> 498 83 893 82<395 555> 1137 127<536 604 536 629> 1208 127<309 378>
VStem: 57 188<373 487 487 498 373 573 373 636> 674 184<553 690>
AnchorPoint: "Anchor-3" 457 956 basechar 0
AnchorPoint: "Anchor-2" 719 0 basechar 0
LayerCount: 2
Fore
SplineSet
203 1137 m 1xee
 174 1145 155 1160 137 1176 c 1
 160 1231 229 1335 342 1335 c 0xee
 432 1335 495 1264 575 1264 c 0
 632 1264 672 1300 711 1339 c 1
 740 1329 758 1316 778 1300 c 1
 753 1245 680 1137 578 1137 c 0xf6
 478 1137 420 1208 336 1208 c 0
 283 1208 242 1176 203 1137 c 1xee
485 -14 m 0
 168 -14 57 168 57 487 c 0
 57 784 200 975 485 975 c 0
 772 975 850 811 858 553 c 1
 815 498 l 1
 246 498 l 1
 246 487 l 2
 246 258 269 86 498 86 c 0
 625 86 723 153 760 182 c 1
 811 121 l 1
 774 86 657 -14 485 -14 c 0
246 573 m 1
 674 588 l 1
 674 793 633 893 477 893 c 0
 313 893 250 759 246 573 c 1
EndSplineSet
EndChar

StartChar: gbreve
Encoding: 287 287 189
Width: 940
GlyphClass: 2
Flags: HMW
HStem: -449 84<401 561 401 630> -2 139<463 500 326 549> 301 84<418 446 418 418> 891 82<380 494 322 513> 1135 111<431 524 431 546> 1337 41G 1350 41G<301 317 639 655>
VStem: 45 188<-231 -130 -231 -118> 72 184<549 726 549 742> 238 80 637 186<549 680 530 726> 639 78 727 188<-232 -105> 750 141<1004 1018>
AnchorPoint: "Anchor-3" 453 956 basechar 0
LayerCount: 2
Fore
SplineSet
477 1135 m 0xfc50
 340 1135 246 1231 238 1376 c 1
 263 1384 284 1391 317 1391 c 1
 323 1305 385 1245 477 1245 c 0
 571 1245 633 1305 639 1391 c 1xfa50
 672 1391 694 1386 717 1378 c 1
 711 1231 614 1135 477 1135 c 0xfc50
481 -449 m 0xfb08
 184 -449 45 -344 45 -190 c 0
 45 -45 94 -2 203 57 c 1
 174 90 158 138 158 195 c 1xfb20
 326 313 l 1
 164 352 72 467 72 631 c 0
 72 854 196 973 446 973 c 0
 540 973 617 957 676 924 c 1
 723 938 750 965 750 1004 c 0
 750 1033 727 1061 692 1077 c 1
 692 1118 729 1147 788 1147 c 0
 849 1147 891 1105 891 1044 c 0xfa84
 891 962 842 899 748 866 c 1
 799 809 823 729 823 631 c 0xfaa0
 823 430 679 301 446 301 c 2
 418 301 l 1
 332 195 l 1
 338 156 365 139 463 137 c 2
 549 137 l 2
 817 137 915 -4 915 -164 c 0
 915 -344 778 -449 481 -449 c 0xfb08
446 385 m 0xfaa0
 581 385 637 461 637 637 c 0
 637 815 579 891 446 891 c 0
 313 891 256 815 256 637 c 0
 256 461 311 385 446 385 c 0xfaa0
481 -365 m 0xfb08
 641 -365 727 -301 727 -164 c 0
 727 -47 643 -2 500 -2 c 2
 326 -2 l 1
 267 -41 233 -96 233 -164 c 0
 233 -299 321 -365 481 -365 c 0xfb08
EndSplineSet
EndChar

StartChar: gcircumflex
Encoding: 285 285 190
Width: 940
GlyphClass: 2
Flags: HMW
HStem: -449 84<401 561 401 630> -2 139<463 500 326 549> 301 84<418 446 418 418> 891 82<380 494 322 513>
VStem: 45 188<-231 -130 -231 -118> 72 184<549 726 549 742> 637 186<549 680 530 726> 727 188<-232 -105> 750 141<1004 1018>
AnchorPoint: "Anchor-3" 453 956 basechar 0
LayerCount: 2
Fore
SplineSet
256 1130 m 1xf6
 211 1180 l 1
 391 1399 l 2
 409 1419 430 1432 455 1432 c 0
 480 1432 500 1422 518 1399 c 2
 696 1180 l 1
 649 1130 l 1
 453 1288 l 1
 256 1130 l 1xf6
481 -449 m 0xf9
 184 -449 45 -344 45 -190 c 0
 45 -45 94 -2 203 57 c 1
 174 90 158 138 158 195 c 1xfa
 326 313 l 1
 164 352 72 467 72 631 c 0
 72 854 196 973 446 973 c 0
 540 973 617 957 676 924 c 1
 723 938 750 965 750 1004 c 0
 750 1033 727 1061 692 1077 c 1
 692 1118 729 1147 788 1147 c 0
 849 1147 891 1105 891 1044 c 0xf480
 891 962 842 899 748 866 c 1
 799 809 823 729 823 631 c 0xf6
 823 430 679 301 446 301 c 2
 418 301 l 1
 332 195 l 1
 338 156 365 139 463 137 c 2
 549 137 l 2
 817 137 915 -4 915 -164 c 0
 915 -344 778 -449 481 -449 c 0xf9
446 385 m 0xf6
 581 385 637 461 637 637 c 0
 637 815 579 891 446 891 c 0
 313 891 256 815 256 637 c 0
 256 461 311 385 446 385 c 0xf6
481 -365 m 0xf9
 641 -365 727 -301 727 -164 c 0
 727 -47 643 -2 500 -2 c 2
 326 -2 l 1
 267 -41 233 -96 233 -164 c 0
 233 -299 321 -365 481 -365 c 0xf9
EndSplineSet
EndChar

StartChar: uni0123
Encoding: 291 291 191
Width: 940
GlyphClass: 2
Flags: HMW
HStem: -449 84<401 561 401 630> -2 139<463 500 326 549> 301 84<418 446 418 418> 891 82<380 494 322 513>
VStem: 45 188<-231 -130 -231 -118> 72 184<549 726 549 742> 393 139<1227 1232> 637 186<549 680 530 726> 727 188<-232 -105> 750 141<1004 1018>
AnchorPoint: "Anchor-3" 453 956 basechar 0
LayerCount: 2
Fore
SplineSet
506 1454 m 1xf7
 569 1427 l 1
 542 1357 532 1296 532 1253 c 0
 532 1200 547 1170 578 1143 c 1
 555 1110 525 1098 498 1098 c 0
 437 1098 393 1137 393 1194 c 0
 393 1270 443 1370 506 1454 c 1xf7
481 -449 m 0xfa80
 184 -449 45 -344 45 -190 c 0
 45 -45 94 -2 203 57 c 1
 174 90 158 138 158 195 c 1xfb
 326 313 l 1
 164 352 72 467 72 631 c 0
 72 854 196 973 446 973 c 0
 540 973 617 957 676 924 c 1
 723 938 750 965 750 1004 c 0
 750 1033 727 1061 692 1077 c 1
 692 1118 729 1147 788 1147 c 0
 849 1147 891 1105 891 1044 c 0xf640
 891 962 842 899 748 866 c 1
 799 809 823 729 823 631 c 0xf7
 823 430 679 301 446 301 c 2
 418 301 l 1
 332 195 l 1
 338 156 365 139 463 137 c 2
 549 137 l 2
 817 137 915 -4 915 -164 c 0
 915 -344 778 -449 481 -449 c 0xfa80
446 385 m 0xf7
 581 385 637 461 637 637 c 0
 637 815 579 891 446 891 c 0
 313 891 256 815 256 637 c 0
 256 461 311 385 446 385 c 0xf7
481 -365 m 0xfa80
 641 -365 727 -301 727 -164 c 0
 727 -47 643 -2 500 -2 c 2
 326 -2 l 1
 267 -41 233 -96 233 -164 c 0
 233 -299 321 -365 481 -365 c 0xfa80
EndSplineSet
EndChar

StartChar: gdotaccent
Encoding: 289 289 192
Width: 940
GlyphClass: 2
Flags: HMW
HStem: -449 84<401 561 401 630> -2 139<463 500 326 549> 301 84<418 446 418 418> 891 82<380 494 322 513> 1133 238<416 488>
VStem: 45 188<-231 -130 -231 -118> 72 184<549 726 549 742> 346 215<1213 1289> 637 186<549 680 530 726> 727 188<-232 -105> 750 141<1004 1018>
AnchorPoint: "Anchor-3" 453 956 basechar 0
LayerCount: 2
Fore
SplineSet
453 1133 m 0xfb80
 379 1133 346 1175 346 1251 c 0
 346 1327 379 1370 453 1370 c 0
 525 1370 561 1327 561 1251 c 0
 561 1175 525 1133 453 1133 c 0xfb80
481 -449 m 0xfd40
 184 -449 45 -344 45 -190 c 0
 45 -45 94 -2 203 57 c 1
 174 90 158 138 158 195 c 1xfd80
 326 313 l 1
 164 352 72 467 72 631 c 0
 72 854 196 973 446 973 c 0
 540 973 617 957 676 924 c 1
 723 938 750 965 750 1004 c 0
 750 1033 727 1061 692 1077 c 1
 692 1118 729 1147 788 1147 c 0
 849 1147 891 1105 891 1044 c 0xfb20
 891 962 842 899 748 866 c 1
 799 809 823 729 823 631 c 0xfb80
 823 430 679 301 446 301 c 2
 418 301 l 1
 332 195 l 1
 338 156 365 139 463 137 c 2
 549 137 l 2
 817 137 915 -4 915 -164 c 0
 915 -344 778 -449 481 -449 c 0xfd40
446 385 m 0xfb80
 581 385 637 461 637 637 c 0
 637 815 579 891 446 891 c 0
 313 891 256 815 256 637 c 0
 256 461 311 385 446 385 c 0xfb80
481 -365 m 0xfd40
 641 -365 727 -301 727 -164 c 0
 727 -47 643 -2 500 -2 c 2
 326 -2 l 1
 267 -41 233 -96 233 -164 c 0
 233 -299 321 -365 481 -365 c 0xfd40
EndSplineSet
EndChar

StartChar: hbar
Encoding: 295 295 193
Width: 1130
GlyphClass: 2
Flags: HMW
HStem: 0 70<641 641 641 1085 635 641> 0 72<53 514> 0 76<61 61 61 506 53 61> 877 98<584 659> 1092 90<35 197 35 197 371 604> 1296 61<53 59>
VStem: 197 174<127 705 127 836 836 1092> 776 174<127 674 674 692>
AnchorPoint: "Anchor-3" 614 1366 basechar 0
LayerCount: 2
Fore
SplineSet
950 127 m 1x9f
 975 107 1035 82 1094 70 c 1
 1085 0 l 1
 635 0 l 1
 641 70 l 1
 692 78 737 96 776 127 c 1x9f
 776 674 l 2
 776 811 717 877 602 877 c 0
 508 877 414 807 371 705 c 1
 371 127 l 1
 406 100 455 82 514 72 c 1x5f
 506 0 l 1
 53 0 l 1x9f
 61 76 l 1
 122 84 156 94 197 127 c 1x3f
 197 1092 l 1
 35 1092 l 1
 35 1182 l 1
 197 1182 l 1
 191 1268 149 1292 53 1296 c 1
 59 1358 l 1
 151 1372 248 1402 332 1427 c 1
 371 1407 l 1
 371 1182 l 1
 604 1182 l 1
 604 1092 l 1
 371 1092 l 1
 371 836 l 1
 437 920 533 975 635 975 c 0
 834 975 950 870 950 692 c 2
 950 127 l 1x9f
EndSplineSet
EndChar

StartChar: hcircumflex
Encoding: 293 293 194
Width: 1134
GlyphClass: 2
Flags: HMW
HStem: 0 70<635 641 641 641 641 1085> 0 72<53 514> 0 76<53 61 61 61 61 506> 877 98<584 659> 1296 61<53 59>
VStem: 197 174<127 705 836 1161 1161 1212> 776 174<127 674 674 692 127 742>
AnchorPoint: "Anchor-3" 614 1366 basechar 0
LayerCount: 2
Fore
SplineSet
408 1530 m 1x96
 362 1579 l 1
 553 1798 l 2
 571 1818 591 1831 616 1831 c 0
 641 1831 662 1821 680 1798 c 2
 868 1579 l 1
 821 1530 l 1
 614 1688 l 1
 408 1530 l 1x96
53 0 m 1
 61 76 l 1
 122 84 156 94 197 127 c 1x36
 197 1161 l 2
 197 1263 157 1292 53 1296 c 1
 59 1358 l 1
 151 1372 248 1402 332 1427 c 1
 371 1407 l 1
 371 836 l 1
 437 920 533 975 635 975 c 0
 834 975 950 870 950 692 c 2
 950 127 l 1
 975 107 1035 82 1094 70 c 1
 1085 0 l 1
 635 0 l 1
 641 70 l 1
 692 78 737 96 776 127 c 1x9e
 776 674 l 2
 776 811 717 877 602 877 c 0
 508 877 414 807 371 705 c 1
 371 127 l 1
 406 100 455 82 514 72 c 1x56
 506 0 l 1
 53 0 l 1
EndSplineSet
EndChar

StartChar: iacute
Encoding: 237 237 195
Width: 567
GlyphClass: 2
Flags: HMW
HStem: 0 74<61 70 70 70 70 514> 850 59<61 68> 918 41G<379 379>
VStem: 205 174<125 715 715 766>
AnchorPoint: "Anchor-3" 268 956 basechar 0
LayerCount: 2
Fore
SplineSet
211 1118 m 1
 166 1167 l 1
 336 1405 l 2
 354 1430 372 1440 401 1440 c 0
 440 1440 475 1405 475 1368 c 0
 475 1335 457 1313 424 1288 c 2
 211 1118 l 1
61 0 m 1
 70 74 l 1
 129 84 162 94 205 125 c 1
 205 715 l 2
 205 817 165 846 61 850 c 1
 68 909 l 1
 160 925 256 956 338 981 c 1xd0
 379 958 l 1
 379 125 l 1
 414 100 463 82 522 70 c 1
 514 0 l 1
 61 0 l 1
EndSplineSet
EndChar

StartChar: ibreve
Encoding: 301 301 196
Width: 567
GlyphClass: 2
Flags: HMW
HStem: 0 74<61 70 70 70 70 514> 850 59<61 68> 918 41G<379 379> 1135 111<247 340 247 361> 1337 41G 1350 41G<117 133 455 471>
VStem: 53 80 205 174<125 715 715 766> 455 78
AnchorPoint: "Anchor-3" 268 956 basechar 0
LayerCount: 2
Fore
SplineSet
293 1135 m 0xb780
 156 1135 61 1231 53 1376 c 1
 78 1384 100 1391 133 1391 c 1
 139 1305 201 1245 293 1245 c 0
 387 1245 449 1305 455 1391 c 1xb780
 488 1391 509 1386 532 1378 c 1xbb80
 526 1231 430 1135 293 1135 c 0xb780
61 0 m 1
 70 74 l 1
 129 84 162 94 205 125 c 1
 205 715 l 2
 205 817 165 846 61 850 c 1
 68 909 l 1
 160 925 256 956 338 981 c 1xd780
 379 958 l 1
 379 125 l 1
 414 100 463 82 522 70 c 1
 514 0 l 1
 61 0 l 1
EndSplineSet
EndChar

StartChar: icircumflex
Encoding: 238 238 197
Width: 567
GlyphClass: 2
Flags: HMW
HStem: 0 74<61 70 70 70 70 514> 850 59<61 68> 918 41G<379 379>
VStem: 205 174<125 715 715 766>
AnchorPoint: "Anchor-3" 268 956 basechar 0
LayerCount: 2
Fore
SplineSet
61 1120 m 1
 16 1169 l 1
 207 1389 l 2
 225 1409 245 1421 270 1421 c 0
 295 1421 316 1412 334 1389 c 2
 522 1169 l 1
 475 1120 l 1
 268 1278 l 1
 61 1120 l 1
61 0 m 1
 70 74 l 1
 129 84 162 94 205 125 c 1
 205 715 l 2
 205 817 165 846 61 850 c 1
 68 909 l 1
 160 925 256 956 338 981 c 1xd0
 379 958 l 1
 379 125 l 1
 414 100 463 82 522 70 c 1
 514 0 l 1
 61 0 l 1
EndSplineSet
EndChar

StartChar: idieresis
Encoding: 239 239 198
Width: 567
GlyphClass: 2
Flags: HMW
HStem: 0 74<61 70 70 70 70 514> 850 59<61 68> 918 41G<379 379> 1145 215<77 142 352 418>
VStem: 14 193<1219 1287> 205 174<125 715 715 766> 291 193<1219 1287>
AnchorPoint: "Anchor-3" 268 956 basechar 0
LayerCount: 2
Fore
SplineSet
111 1145 m 0xba
 43 1145 14 1183 14 1253 c 0
 14 1321 43 1360 111 1360 c 0
 174 1360 207 1321 207 1253 c 0
 207 1183 174 1145 111 1145 c 0xba
385 1145 m 0
 319 1145 291 1183 291 1253 c 0
 291 1321 319 1360 385 1360 c 0
 451 1360 483 1321 483 1253 c 0
 483 1183 451 1145 385 1145 c 0
61 0 m 1
 70 74 l 1
 129 84 162 94 205 125 c 1
 205 715 l 2
 205 817 165 846 61 850 c 1
 68 909 l 1
 160 925 256 956 338 981 c 1xd4
 379 958 l 1
 379 125 l 1
 414 100 463 82 522 70 c 1
 514 0 l 1xb4
 61 0 l 1
EndSplineSet
EndChar

StartChar: i.loclTRK
Encoding: 65538 -1 199
Width: 567
GlyphClass: 2
Flags: HMW
HStem: 0 74<61 70 70 70 70 514> 850 59<61 68> 918 41G<379 379> 1133 238<231 304>
VStem: 162 215<1213 1289> 205 174<125 715 715 766>
AnchorPoint: "Anchor-3" 268 956 basechar 0
LayerCount: 2
Fore
SplineSet
268 1133 m 0xb8
 194 1133 162 1175 162 1251 c 0
 162 1327 194 1370 268 1370 c 0
 340 1370 377 1327 377 1251 c 0
 377 1175 340 1133 268 1133 c 0xb8
61 0 m 1
 70 74 l 1
 129 84 162 94 205 125 c 1
 205 715 l 2
 205 817 165 846 61 850 c 1
 68 909 l 1
 160 925 256 956 338 981 c 1xd4
 379 958 l 1
 379 125 l 1
 414 100 463 82 522 70 c 1
 514 0 l 1xb4
 61 0 l 1
EndSplineSet
EndChar

StartChar: dotlessi
Encoding: 305 305 200
Width: 567
GlyphClass: 2
Flags: HMW
HStem: 0 74<61 70 70 70 70 514> 850 59<61 68> 918 41G<379 379>
VStem: 205 174<125 715 715 766>
AnchorPoint: "Anchor-3" 268 956 basechar 0
LayerCount: 2
Fore
SplineSet
61 0 m 1
 70 74 l 1
 129 84 162 94 205 125 c 1
 205 715 l 2
 205 817 165 846 61 850 c 1
 68 909 l 1
 160 925 256 956 338 981 c 1xd0
 379 958 l 1
 379 125 l 1
 414 100 463 82 522 70 c 1
 514 0 l 1
 61 0 l 1
EndSplineSet
EndChar

StartChar: igrave
Encoding: 236 236 201
Width: 567
GlyphClass: 2
Flags: HMW
HStem: 0 74<61 70 70 70 70 514> 850 59<61 68> 918 41G<379 379>
VStem: 205 174<125 715 715 766>
AnchorPoint: "Anchor-3" 268 956 basechar 0
LayerCount: 2
Fore
SplineSet
324 1118 m 1
 115 1288 l 2
 84 1315 63 1335 63 1368 c 0
 63 1405 98 1440 137 1440 c 0
 166 1440 185 1430 203 1405 c 2
 373 1167 l 1
 324 1118 l 1
61 0 m 1
 70 74 l 1
 129 84 162 94 205 125 c 1
 205 715 l 2
 205 817 165 846 61 850 c 1
 68 909 l 1
 160 925 256 956 338 981 c 1xd0
 379 958 l 1
 379 125 l 1
 414 100 463 82 522 70 c 1
 514 0 l 1
 61 0 l 1
EndSplineSet
EndChar

StartChar: imacron
Encoding: 299 299 202
Width: 567
GlyphClass: 2
Flags: HMW
HStem: 0 74<61 70 70 70 70 514> 850 59<61 68> 918 41G<379 379> 1184 90<-16 553 -16 553>
VStem: 205 174<125 715 715 766>
AnchorPoint: "Anchor-3" 268 956 basechar 0
LayerCount: 2
Fore
SplineSet
-16 1184 m 1
 -16 1274 l 1
 553 1274 l 1
 553 1184 l 1
 -16 1184 l 1
61 0 m 1
 70 74 l 1
 129 84 162 94 205 125 c 1
 205 715 l 2
 205 817 165 846 61 850 c 1
 68 909 l 1
 160 925 256 956 338 981 c 1xd8
 379 958 l 1
 379 125 l 1
 414 100 463 82 522 70 c 1
 514 0 l 1
 61 0 l 1
EndSplineSet
EndChar

StartChar: iogonek
Encoding: 303 303 203
Width: 587
GlyphClass: 1
Flags: HMW
HStem: -418 92<247 261> 0 70<403 543> 0 125<399 399 399 403 399 535> 850 59<82 88> 918 41G<399 399> 1124 238<264 337>
VStem: 51 139<-255 -198> 195 215<1205 1281> 225 174<125 715 715 766>
LayerCount: 2
Fore
SplineSet
301 1124 m 0xcd
 227 1124 195 1167 195 1243 c 0
 195 1319 227 1362 301 1362 c 0
 373 1362 410 1319 410 1243 c 0
 410 1167 373 1124 301 1124 c 0xcd
225 100 m 2xcc80
 225 715 l 2
 225 817 186 846 82 850 c 1
 88 909 l 1
 180 925 276 956 358 981 c 1xd480
 399 958 l 1
 399 125 l 1xac80
 434 100 484 82 543 70 c 1
 535 0 l 1xcc80
 403 0 l 2
 268 0 190 -141 190 -227 c 0
 190 -282 217 -326 276 -326 c 0
 303 -326 336 -318 377 -295 c 1
 412 -338 l 1
 363 -391 292 -418 229 -418 c 0xce80
 135 -418 51 -362 51 -264 c 0
 51 -131 225 -74 225 100 c 2xcc80
EndSplineSet
EndChar

StartChar: itilde
Encoding: 297 297 204
Width: 567
GlyphClass: 2
Flags: HMW
HStem: 0 74<61 70 70 70 70 514> 850 59<61 68> 918 41G<379 379> 1137 127<347 416 347 440> 1208 127<121 189>
VStem: 205 174<125 715 715 766>
AnchorPoint: "Anchor-3" 268 956 basechar 0
LayerCount: 2
Fore
SplineSet
14 1137 m 1xac
 -15 1145 -33 1160 -51 1176 c 1
 -28 1231 41 1335 154 1335 c 0xac
 244 1335 307 1264 387 1264 c 0
 444 1264 483 1300 522 1339 c 1
 551 1329 570 1316 590 1300 c 1
 565 1245 491 1137 389 1137 c 0xb4
 289 1137 231 1208 147 1208 c 0
 94 1208 53 1176 14 1137 c 1xac
61 0 m 1
 70 74 l 1
 129 84 162 94 205 125 c 1
 205 715 l 2
 205 817 165 846 61 850 c 1
 68 909 l 1
 160 925 256 956 338 981 c 1xcc
 379 958 l 1
 379 125 l 1
 414 100 463 82 522 70 c 1
 514 0 l 1
 61 0 l 1
EndSplineSet
EndChar

StartChar: jcircumflex
Encoding: 309 309 205
Width: 522
GlyphClass: 2
Flags: HMW
HStem: -442 88<113 169 113 174> 850 59<51 57> 918 41G<369 369>
VStem: -86 147<-300 -267 -300 -255> 195 174<150 715 715 766> 219 150<-258 -68>
AnchorPoint: "Anchor-3" 266 956 basechar 0
LayerCount: 2
Fore
SplineSet
59 1120 m 1xb8
 14 1169 l 1
 205 1389 l 2
 223 1409 243 1421 268 1421 c 0
 293 1421 314 1412 332 1389 c 2
 520 1169 l 1
 473 1120 l 1
 266 1278 l 1
 59 1120 l 1xb8
135 -442 m 0
 18 -442 -86 -402 -86 -285 c 0
 -86 -226 -47 -172 12 -172 c 0
 47 -172 76 -186 92 -213 c 1
 74 -227 61 -254 61 -281 c 0
 61 -320 88 -354 137 -354 c 0
 200 -354 219 -295 219 -221 c 0xb4
 219 -78 195 -32 195 150 c 2
 195 715 l 2
 195 817 155 846 51 850 c 1
 57 909 l 1
 149 925 246 954 330 981 c 1xd8
 369 958 l 1
 369 -68 l 2
 369 -181 356 -295 301 -367 c 0
 266 -414 213 -442 135 -442 c 0
EndSplineSet
EndChar

StartChar: uni0237
Encoding: 567 567 206
Width: 522
GlyphClass: 2
Flags: HMW
HStem: -442 88<113 169 113 174> 850 59<51 57> 918 41G<369 369>
VStem: -86 147<-300 -267 -300 -255> 195 174<150 715 715 766> 219 150<-258 -68>
AnchorPoint: "Anchor-3" 266 956 basechar 0
LayerCount: 2
Fore
SplineSet
135 -442 m 0xb8
 18 -442 -86 -402 -86 -285 c 0
 -86 -226 -47 -172 12 -172 c 0
 47 -172 76 -186 92 -213 c 1
 74 -227 61 -254 61 -281 c 0
 61 -320 88 -354 137 -354 c 0
 200 -354 219 -295 219 -221 c 0xb4
 219 -78 195 -32 195 150 c 2
 195 715 l 2
 195 817 155 846 51 850 c 1
 57 909 l 1
 149 925 246 954 330 981 c 1xd8
 369 958 l 1
 369 -68 l 2
 369 -181 356 -295 301 -367 c 0
 266 -414 213 -442 135 -442 c 0xb8
EndSplineSet
EndChar

StartChar: uni0137
Encoding: 311 311 207
Width: 1075
GlyphClass: 2
Flags: HMW
HStem: -432 43G<545 545> 0 72<53 514> 0 76<53 61 61 61 61 506> 895 61<719 997> 1296 61<53 59>
VStem: 197 174<127 408 559 1161 1161 1212> 518 139<-210 -205>
AnchorPoint: "Anchor-5" 565 0 basechar 0
LayerCount: 2
Fore
SplineSet
53 0 m 1xbc
 61 76 l 1
 122 84 156 94 197 127 c 1xbe
 197 1161 l 2
 197 1263 157 1292 53 1296 c 1
 59 1358 l 1
 151 1372 248 1402 332 1427 c 1
 371 1407 l 1
 371 559 l 1
 651 842 l 2
 698 891 713 929 719 956 c 1
 991 956 l 1
 997 895 l 1
 913 891 835 868 772 807 c 2
 584 618 l 1
 891 129 l 1
 938 102 1005 82 1079 72 c 1xdc
 1071 0 l 1
 778 0 l 1xbc
 465 500 l 1
 371 408 l 1
 371 127 l 1
 406 100 455 82 514 72 c 1xdc
 506 0 l 1
 53 0 l 1xbc
545 -432 m 1
 481 -406 l 1
 508 -336 518 -274 518 -231 c 0
 518 -178 504 -148 473 -121 c 1
 496 -88 526 -76 553 -76 c 0
 614 -76 657 -115 657 -172 c 0
 657 -248 608 -348 545 -432 c 1
EndSplineSet
EndChar

StartChar: kgreenlandic
Encoding: 312 312 208
Width: 1081
GlyphClass: 2
Flags: HMW
HStem: 0 72<784 1085> 0 74<61 70 70 70 70 514> 850 59<61 68> 895 61<725 1004>
VStem: 205 174<125 410 561 715 715 766>
AnchorPoint: "Anchor-3" 590 0 basechar 0
LayerCount: 2
Fore
SplineSet
61 0 m 1x58
 70 74 l 1
 129 84 162 94 205 125 c 1
 205 715 l 2
 205 817 165 846 61 850 c 1
 68 909 l 1
 158 925 256 954 338 981 c 1x68
 379 958 l 1
 379 561 l 1
 657 842 l 2
 694 879 715 927 725 956 c 1
 997 956 l 1
 1004 895 l 1
 920 891 841 868 778 807 c 2
 590 618 l 1
 897 129 l 1
 944 102 1011 82 1085 72 c 1x98
 1077 0 l 1
 784 0 l 1
 471 500 l 1
 379 410 l 1
 379 125 l 1
 414 100 463 82 522 70 c 1
 514 0 l 1
 61 0 l 1x58
EndSplineSet
EndChar

StartChar: lacute
Encoding: 314 314 209
Width: 555
GlyphClass: 2
Flags: HMW
HStem: 0 72<53 514> 0 76<53 61 61 61 61 506> 1296 61<53 59>
VStem: 197 174<127 1161 1161 1212>
AnchorPoint: "Anchor-5" 283 0 basechar 0
AnchorPoint: "Anchor-3" 283 1366 basechar 0
LayerCount: 2
Fore
SplineSet
225 1528 m 1x50
 180 1577 l 1
 350 1815 l 2
 368 1840 387 1849 416 1849 c 0
 455 1849 489 1815 489 1778 c 0
 489 1745 471 1723 438 1698 c 2
 225 1528 l 1x50
53 0 m 1
 61 76 l 1
 122 84 156 94 197 127 c 1x50
 197 1161 l 2
 197 1263 159 1292 53 1296 c 1
 59 1358 l 1
 151 1372 248 1402 332 1427 c 1
 371 1407 l 1
 371 127 l 1
 406 100 455 82 514 72 c 1xb0
 506 0 l 1
 53 0 l 1
EndSplineSet
EndChar

StartChar: lcaron
Encoding: 318 318 210
Width: 602
GlyphClass: 2
Flags: HMW
HStem: 0 72<53 514> 0 76<53 61 61 61 61 506> 1296 61<53 59>
VStem: 197 174<127 1161 1161 1212> 514 141<1269 1284>
AnchorPoint: "Anchor-5" 283 0 basechar 0
AnchorPoint: "Anchor-3" 283 1366 basechar 0
LayerCount: 2
Fore
SplineSet
53 0 m 1x50
 61 76 l 1
 122 84 156 94 197 127 c 1x58
 197 1161 l 2
 197 1263 159 1292 53 1296 c 1
 59 1358 l 1
 151 1372 248 1402 332 1427 c 1
 371 1407 l 1
 371 127 l 1
 406 100 455 82 514 72 c 1xb0
 506 0 l 1
 53 0 l 1x50
541 1020 m 1
 459 1051 l 1
 498 1141 514 1206 514 1257 c 0
 514 1310 496 1342 465 1362 c 1
 479 1395 512 1421 555 1421 c 0
 616 1421 655 1372 655 1311 c 0
 655 1227 596 1110 541 1020 c 1
EndSplineSet
EndChar

StartChar: uni013C
Encoding: 316 316 211
Width: 555
GlyphClass: 2
Flags: HMW
HStem: -432 43G<262 262> 0 72<53 514> 0 76<53 61 61 61 61 506> 1296 61<53 59>
VStem: 197 174<127 1161 1161 1212> 236 139<-210 -205>
AnchorPoint: "Anchor-5" 283 0 basechar 0
AnchorPoint: "Anchor-3" 283 1366 basechar 0
LayerCount: 2
Fore
SplineSet
53 0 m 1xb8
 61 76 l 1
 122 84 156 94 197 127 c 1xb8
 197 1161 l 2
 197 1263 159 1292 53 1296 c 1
 59 1358 l 1
 151 1372 248 1402 332 1427 c 1
 371 1407 l 1
 371 127 l 1
 406 100 455 82 514 72 c 1xd8
 506 0 l 1
 53 0 l 1xb8
262 -432 m 1xb4
 199 -406 l 1
 226 -336 236 -274 236 -231 c 0
 236 -178 221 -148 190 -121 c 1
 213 -88 243 -76 270 -76 c 0
 331 -76 375 -115 375 -172 c 0
 375 -248 325 -348 262 -432 c 1xb4
EndSplineSet
EndChar

StartChar: ldot
Encoding: 320 320 212
Width: 581
GlyphClass: 2
Flags: HMW
HStem: 0 72<53 514> 0 76<53 61 61 61 61 506> 618 238<535 608> 1296 61<53 59>
VStem: 197 174<127 1161 1161 1212> 463 217<701 773 700 774>
AnchorPoint: "Anchor-5" 283 0 basechar 0
AnchorPoint: "Anchor-3" 283 1366 basechar 0
LayerCount: 2
Fore
SplineSet
53 0 m 1x48
 61 76 l 1
 122 84 156 94 197 127 c 1x6c
 197 1161 l 2
 197 1263 159 1292 53 1296 c 1
 59 1358 l 1
 151 1372 248 1402 332 1427 c 1
 371 1407 l 1
 371 127 l 1
 406 100 455 82 514 72 c 1x98
 506 0 l 1
 53 0 l 1x48
571 618 m 0
 497 618 463 665 463 737 c 0
 463 811 497 856 571 856 c 0
 645 856 680 809 680 737 c 0
 680 663 645 618 571 618 c 0
EndSplineSet
Ligature2: "Ligature Substitution lookup 11 subtable" l periodcentered
EndChar

StartChar: lslash
Encoding: 322 322 213
Width: 632
GlyphClass: 2
Flags: HMW
HStem: 0 72<92 553> 0 76<100 100 100 545 92 100> 1296 61<92 98>
VStem: 236 174<127 563 563 563 127 791 791 1161 1161 1212>
AnchorPoint: "Anchor-5" 322 0 basechar 0
AnchorPoint: "Anchor-3" 322 1366 basechar 0
LayerCount: 2
Fore
SplineSet
410 666 m 1x70
 410 127 l 1
 445 100 494 82 553 72 c 1xb0
 545 0 l 1
 92 0 l 1
 100 76 l 1
 161 84 195 94 236 127 c 1
 236 563 l 1
 68 465 l 1
 12 559 l 1
 236 690 l 1
 236 1161 l 2
 236 1263 198 1292 92 1296 c 1
 98 1358 l 1
 190 1372 287 1402 371 1427 c 1
 410 1407 l 1
 410 791 l 1
 559 879 l 1
 614 784 l 1
 410 666 l 1x70
EndSplineSet
EndChar

StartChar: nacute
Encoding: 324 324 214
Width: 1142
GlyphClass: 2
Flags: HMW
HStem: 0 70<61 522> 0 74<61 70 70 70 70 514> 846 59<61 68> 877 98<591 667> 915 41G<354 354>
VStem: 205 174<127 705 127 711 127 762> 784 174<127 674 674 692 127 742>
AnchorPoint: "Anchor-5" 582 0 basechar 0
AnchorPoint: "Anchor-3" 582 956 basechar 0
LayerCount: 2
Fore
SplineSet
524 1118 m 1x96
 479 1167 l 1
 649 1405 l 2
 667 1430 686 1440 715 1440 c 0
 754 1440 788 1405 788 1368 c 0
 788 1335 770 1313 737 1288 c 2
 524 1118 l 1x96
61 0 m 1
 70 74 l 1
 129 84 164 94 205 127 c 1
 205 711 l 2
 205 813 165 842 61 846 c 1
 68 905 l 1x66
 156 921 239 952 317 975 c 1x96
 354 956 l 1x8e
 373 829 l 1
 436 917 539 975 643 975 c 0
 842 975 958 870 958 692 c 2
 958 127 l 1
 983 107 1043 82 1102 70 c 1
 1094 0 l 1
 643 0 l 1
 649 70 l 1
 700 78 745 96 784 127 c 1
 784 674 l 2
 784 811 725 877 608 877 c 0
 516 877 422 807 379 705 c 1
 379 127 l 1
 414 100 463 82 522 70 c 1
 514 0 l 1
 61 0 l 1
EndSplineSet
EndChar

StartChar: ncaron
Encoding: 328 328 215
Width: 1142
GlyphClass: 2
Flags: HMW
HStem: 0 70<61 522> 0 74<61 70 70 70 70 514> 846 59<61 68> 877 98<591 667> 915 41G<354 354> 1329 41G<330 330 836 836>
VStem: 205 174<127 705 127 711 127 762> 784 174<127 674 674 692 127 742>
AnchorPoint: "Anchor-5" 582 0 basechar 0
AnchorPoint: "Anchor-3" 582 956 basechar 0
LayerCount: 2
Fore
SplineSet
582 1120 m 0x97
 557 1120 536 1133 518 1153 c 2
 330 1370 l 1
 375 1421 l 1
 582 1264 l 1
 791 1421 l 1
 836 1370 l 1
 645 1153 l 2
 627 1130 607 1120 582 1120 c 0x97
61 0 m 1
 70 74 l 1
 129 84 164 94 205 127 c 1
 205 711 l 2
 205 813 165 842 61 846 c 1
 68 905 l 1x67
 156 921 239 952 317 975 c 1x97
 354 956 l 1x8f
 373 829 l 1
 436 917 539 975 643 975 c 0
 842 975 958 870 958 692 c 2
 958 127 l 1
 983 107 1043 82 1102 70 c 1
 1094 0 l 1
 643 0 l 1
 649 70 l 1
 700 78 745 96 784 127 c 1
 784 674 l 2
 784 811 725 877 608 877 c 0
 516 877 422 807 379 705 c 1
 379 127 l 1
 414 100 463 82 522 70 c 1
 514 0 l 1
 61 0 l 1
EndSplineSet
EndChar

StartChar: uni0146
Encoding: 326 326 216
Width: 1142
GlyphClass: 2
Flags: HMW
HStem: -432 43G<561 561> 0 70<61 522> 0 74<61 70 70 70 70 514> 846 59<61 68> 877 98<591 667> 915 41G<354 354>
VStem: 205 174<127 705 127 711 127 762> 535 139<-210 -205> 784 174<127 674 674 692 127 742>
AnchorPoint: "Anchor-5" 582 0 basechar 0
AnchorPoint: "Anchor-3" 582 956 basechar 0
LayerCount: 2
Fore
SplineSet
61 0 m 1xca80
 70 74 l 1
 129 84 164 94 205 127 c 1
 205 711 l 2
 205 813 165 842 61 846 c 1
 68 905 l 1xb380
 156 921 239 952 317 975 c 1xca80
 354 956 l 1xc680
 373 829 l 1
 436 917 539 975 643 975 c 0
 842 975 958 870 958 692 c 2
 958 127 l 1
 983 107 1043 82 1102 70 c 1
 1094 0 l 1
 643 0 l 1
 649 70 l 1
 700 78 745 96 784 127 c 1
 784 674 l 2
 784 811 725 877 608 877 c 0
 516 877 422 807 379 705 c 1
 379 127 l 1
 414 100 463 82 522 70 c 1
 514 0 l 1
 61 0 l 1xca80
561 -432 m 1
 498 -406 l 1
 525 -336 535 -274 535 -231 c 0
 535 -178 520 -148 489 -121 c 1
 512 -88 542 -76 569 -76 c 0
 630 -76 674 -115 674 -172 c 0
 674 -248 624 -348 561 -432 c 1
EndSplineSet
EndChar

StartChar: ntilde
Encoding: 241 241 217
Width: 1142
GlyphClass: 2
Flags: HMW
HStem: 0 70<61 522> 0 74<61 70 70 70 70 514> 846 59<61 68> 877 98<591 667> 915 41G<354 354> 1137 127<660 729 660 754> 1208 127<434 503>
VStem: 205 174<127 705 127 711 127 762> 784 174<127 674 674 692 127 742>
AnchorPoint: "Anchor-5" 582 0 basechar 0
AnchorPoint: "Anchor-3" 582 956 basechar 0
LayerCount: 2
Fore
SplineSet
328 1137 m 1x9380
 299 1145 280 1160 262 1176 c 1
 285 1231 354 1335 467 1335 c 0x9380
 557 1335 620 1264 700 1264 c 0
 757 1264 797 1300 836 1339 c 1
 865 1329 883 1316 903 1300 c 1
 878 1245 804 1137 702 1137 c 0x9580
 602 1137 545 1208 461 1208 c 0
 408 1208 367 1176 328 1137 c 1x9380
61 0 m 1
 70 74 l 1
 129 84 164 94 205 127 c 1
 205 711 l 2
 205 813 165 842 61 846 c 1
 68 905 l 1x6380
 156 921 239 952 317 975 c 1x9380
 354 956 l 1x8b80
 373 829 l 1
 436 917 539 975 643 975 c 0
 842 975 958 870 958 692 c 2
 958 127 l 1
 983 107 1043 82 1102 70 c 1
 1094 0 l 1
 643 0 l 1
 649 70 l 1
 700 78 745 96 784 127 c 1
 784 674 l 2
 784 811 725 877 608 877 c 0
 516 877 422 807 379 705 c 1
 379 127 l 1
 414 100 463 82 522 70 c 1
 514 0 l 1
 61 0 l 1
EndSplineSet
EndChar

StartChar: eng
Encoding: 331 331 218
Width: 1128
GlyphClass: 1
Flags: HMW
HStem: -307 88<708 759> 0 74<61 70 70 70 70 514> 846 59<61 68> 877 98<591 667> 915 41G<354 354>
VStem: 205 174<127 705 127 711 127 762> 514 147<-165 -132 -165 -120 -165 0> 784 174<285 674 674 692> 809 150<-123 68>
LayerCount: 2
Fore
SplineSet
61 0 m 1xd5
 70 74 l 1
 129 84 164 94 205 127 c 1
 205 711 l 2
 205 813 165 842 61 846 c 1
 68 905 l 1xe5
 156 921 239 952 317 975 c 1xd5
 354 956 l 1xcd
 373 829 l 1
 436 917 539 975 643 975 c 0
 842 975 958 870 958 692 c 2
 958 68 l 2
 958 -57 944 -182 874 -252 c 0xd5
 839 -287 793 -307 725 -307 c 0
 616 -307 514 -267 514 -150 c 0
 514 -91 553 -39 610 -39 c 0
 645 -39 674 -51 686 -78 c 1
 672 -92 662 -118 662 -145 c 0
 662 -184 684 -219 731 -219 c 0
 792 -219 809 -160 809 -86 c 0xd680
 809 57 784 103 784 285 c 2
 784 674 l 2
 784 811 725 877 608 877 c 0
 516 877 422 807 379 705 c 1
 379 127 l 1
 414 100 463 82 522 70 c 1
 514 0 l 1
 61 0 l 1xd5
EndSplineSet
EndChar

StartChar: oacute
Encoding: 243 243 219
Width: 983
GlyphClass: 2
Flags: HMW
HStem: -14 94<402 581 402 636> 881 94<402 581>
VStem: 57 184<339 624 339 642> 745 180<339 624>
AnchorPoint: "Anchor-3" 492 956 basechar 0
LayerCount: 2
Fore
SplineSet
434 1118 m 1
 389 1167 l 1
 559 1405 l 2
 577 1430 596 1440 625 1440 c 0
 664 1440 698 1405 698 1368 c 0
 698 1335 680 1313 647 1288 c 2
 434 1118 l 1
492 -14 m 0
 205 -14 57 159 57 481 c 0
 57 803 205 975 492 975 c 0
 781 975 926 803 926 481 c 0
 926 159 781 -14 492 -14 c 0
492 80 m 0
 670 80 745 196 745 481 c 0
 745 766 670 881 492 881 c 0
 314 881 242 766 242 481 c 0
 242 196 314 80 492 80 c 0
EndSplineSet
EndChar

StartChar: obreve
Encoding: 335 335 220
Width: 983
GlyphClass: 2
Flags: HMW
HStem: -14 94<402 581 402 636> 881 94<402 581> 1135 111<470 563 470 585> 1337 41G 1350 41G<340 356 678 694>
VStem: 57 184<339 624 339 642> 276 80 678 78 745 180<339 624>
AnchorPoint: "Anchor-3" 492 956 basechar 0
LayerCount: 2
Fore
SplineSet
516 1135 m 0xf7
 379 1135 284 1231 276 1376 c 1
 301 1384 323 1391 356 1391 c 1
 362 1305 424 1245 516 1245 c 0
 610 1245 672 1305 678 1391 c 1xef
 711 1391 733 1386 756 1378 c 1
 750 1231 653 1135 516 1135 c 0xf7
492 -14 m 0xec80
 205 -14 57 159 57 481 c 0
 57 803 205 975 492 975 c 0
 781 975 926 803 926 481 c 0
 926 159 781 -14 492 -14 c 0xec80
492 80 m 0
 670 80 745 196 745 481 c 0
 745 766 670 881 492 881 c 0
 314 881 242 766 242 481 c 0
 242 196 314 80 492 80 c 0
EndSplineSet
EndChar

StartChar: ocircumflex
Encoding: 244 244 221
Width: 983
GlyphClass: 2
Flags: HMW
HStem: -14 94<402 581 402 636> 881 94<402 581>
VStem: 57 184<339 624 339 642> 745 180<339 624>
AnchorPoint: "Anchor-3" 492 956 basechar 0
LayerCount: 2
Fore
SplineSet
285 1120 m 1
 240 1169 l 1
 430 1389 l 2
 448 1409 469 1421 494 1421 c 0
 519 1421 539 1412 557 1389 c 2
 745 1169 l 1
 698 1120 l 1
 492 1278 l 1
 285 1120 l 1
492 -14 m 0
 205 -14 57 159 57 481 c 0
 57 803 205 975 492 975 c 0
 781 975 926 803 926 481 c 0
 926 159 781 -14 492 -14 c 0
492 80 m 0
 670 80 745 196 745 481 c 0
 745 766 670 881 492 881 c 0
 314 881 242 766 242 481 c 0
 242 196 314 80 492 80 c 0
EndSplineSet
EndChar

StartChar: odieresis
Encoding: 246 246 222
Width: 983
GlyphClass: 2
Flags: HMW
HStem: -14 94<402 581 402 636> 881 94<402 581> 1143 215<288 353 629 694>
VStem: 57 184<339 624 339 642> 225 193<1217 1285> 567 193<1217 1285> 745 180<339 624>
AnchorPoint: "Anchor-3" 492 956 basechar 0
LayerCount: 2
Fore
SplineSet
322 1143 m 0xec
 254 1143 225 1181 225 1251 c 0
 225 1319 254 1358 322 1358 c 0
 385 1358 418 1319 418 1251 c 0
 418 1181 385 1143 322 1143 c 0xec
662 1143 m 0
 596 1143 567 1181 567 1251 c 0
 567 1319 596 1358 662 1358 c 0
 728 1358 760 1319 760 1251 c 0
 760 1181 728 1143 662 1143 c 0
492 -14 m 0xd2
 205 -14 57 159 57 481 c 0
 57 803 205 975 492 975 c 0
 781 975 926 803 926 481 c 0
 926 159 781 -14 492 -14 c 0xd2
492 80 m 0
 670 80 745 196 745 481 c 0
 745 766 670 881 492 881 c 0
 314 881 242 766 242 481 c 0
 242 196 314 80 492 80 c 0
EndSplineSet
EndChar

StartChar: ograve
Encoding: 242 242 223
Width: 983
GlyphClass: 2
Flags: HMW
HStem: -14 94<402 581 402 636> 881 94<402 581>
VStem: 57 184<339 624 339 642> 745 180<339 624>
AnchorPoint: "Anchor-3" 492 956 basechar 0
LayerCount: 2
Fore
SplineSet
547 1118 m 1
 338 1288 l 2
 307 1315 287 1335 287 1368 c 0
 287 1405 321 1440 360 1440 c 0
 389 1440 408 1430 426 1405 c 2
 596 1167 l 1
 547 1118 l 1
492 -14 m 0
 205 -14 57 159 57 481 c 0
 57 803 205 975 492 975 c 0
 781 975 926 803 926 481 c 0
 926 159 781 -14 492 -14 c 0
492 80 m 0
 670 80 745 196 745 481 c 0
 745 766 670 881 492 881 c 0
 314 881 242 766 242 481 c 0
 242 196 314 80 492 80 c 0
EndSplineSet
EndChar

StartChar: ohungarumlaut
Encoding: 337 337 224
Width: 983
GlyphClass: 2
Flags: HMW
HStem: -14 94<402 581 402 636> 881 94<402 581> 1348 41G<743 776>
VStem: 57 184<339 624 339 642> 745 180<339 624>
AnchorPoint: "Anchor-3" 492 956 basechar 0
LayerCount: 2
Fore
SplineSet
369 1073 m 1
 324 1122 l 1
 446 1352 l 2
 462 1383 485 1395 518 1395 c 0
 557 1395 590 1362 590 1325 c 0
 590 1298 574 1272 549 1247 c 2
 369 1073 l 1
575 1073 m 1
 530 1122 l 1
 690 1356 l 2
 710 1379 729 1389 758 1389 c 0
 795 1389 827 1350 827 1315 c 0
 827 1282 809 1260 774 1235 c 2
 575 1073 l 1
492 -14 m 0
 205 -14 57 159 57 481 c 0
 57 803 205 975 492 975 c 0
 781 975 926 803 926 481 c 0
 926 159 781 -14 492 -14 c 0
492 80 m 0
 670 80 745 196 745 481 c 0
 745 766 670 881 492 881 c 0
 314 881 242 766 242 481 c 0
 242 196 314 80 492 80 c 0
EndSplineSet
EndChar

StartChar: omacron
Encoding: 333 333 225
Width: 983
GlyphClass: 2
Flags: HMW
HStem: -14 94<402 581 402 636> 881 94<402 581> 1184 90<207 776 207 776>
VStem: 57 184<339 624 339 642> 745 180<339 624>
AnchorPoint: "Anchor-3" 492 956 basechar 0
LayerCount: 2
Fore
SplineSet
207 1184 m 1
 207 1274 l 1
 776 1274 l 1
 776 1184 l 1
 207 1184 l 1
492 -14 m 0
 205 -14 57 159 57 481 c 0
 57 803 205 975 492 975 c 0
 781 975 926 803 926 481 c 0
 926 159 781 -14 492 -14 c 0
492 80 m 0
 670 80 745 196 745 481 c 0
 745 766 670 881 492 881 c 0
 314 881 242 766 242 481 c 0
 242 196 314 80 492 80 c 0
EndSplineSet
EndChar

StartChar: oslash
Encoding: 248 248 226
Width: 1003
GlyphClass: 2
Flags: HMW
HStem: -14 94<462 601 462 656> 881 94<423 556>
VStem: 78 184<440 624 440 642> 766 180<339 530>
AnchorPoint: "Anchor-5" 512 0 basechar 0
AnchorPoint: "Anchor-3" 512 956 basechar 0
LayerCount: 2
Fore
SplineSet
102 -35 m 1
 86 -23 69 -6 57 6 c 1
 166 139 l 1
 107 221 78 336 78 481 c 0
 78 803 225 975 512 975 c 0
 627 975 721 946 791 893 c 1
 872 991 l 1
 889 991 l 1
 905 981 922 964 932 950 c 1
 842 842 l 1
 912 760 946 637 946 481 c 0
 946 159 801 -14 512 -14 c 0
 385 -14 285 18 213 84 c 1
 115 -35 l 1
 102 -35 l 1
281 276 m 1
 705 788 l 1
 664 851 600 881 512 881 c 0
 334 881 262 766 262 481 c 0
 262 399 269 331 281 276 c 1
512 80 m 0
 690 80 766 196 766 481 c 0
 766 579 757 656 737 717 c 1
 307 197 l 1
 346 117 412 80 512 80 c 0
EndSplineSet
EndChar

